<?xml version="1.0" encoding="utf-8"?>
<!-- Generator: Adobe Illustrator 23.0.5, SVG Export Plug-In . SVG Version: 6.00 Build 0)  -->
<svg version="1.1" id="Capa_1" xmlns="http://www.w3.org/2000/svg" xmlns:xlink="http://www.w3.org/1999/xlink" x="0px" y="0px"
	 viewBox="0 0 100 100" style="enable-background:new 0 0 100 100;" xml:space="preserve">
<path d="M50.1,94.8c-4.5,0-8.1-3.6-8.1-8.1V56.9H10.8c-4.5,0-8.1-3.6-8.1-8.1s3.6-8.1,8.1-8.1h30.8c-0.2-2.8-0.3-5.5-0.3-8.3
	c0-2.7-0.3-5.4-0.7-8.3c-0.4-3.2-0.8-6.6-0.8-10.3c0-4.5,3.6-8.1,8.1-8.1S56,9.5,56,14c0,2.7,0.3,5.4,0.7,8.3
	c0.4,3.2,0.8,6.6,0.8,10.3c0,2.7,0.2,5.5,0.3,8.3h31.7c4.5,0,8.1,3.6,8.1,8.1s-3.6,8.1-8.1,8.1H58.2v29.8
	C58.2,91.2,54.6,94.8,50.1,94.8z"/>
</svg>
