<?xml version="1.0" encoding="utf-8"?>
<!-- Generator: Adobe Illustrator 23.0.5, SVG Export Plug-In . SVG Version: 6.00 Build 0)  -->
<svg version="1.1" id="Capa_1" xmlns="http://www.w3.org/2000/svg" xmlns:xlink="http://www.w3.org/1999/xlink" x="0px" y="0px"
	 viewBox="0 0 100 100" style="enable-background:new 0 0 100 100;" xml:space="preserve">
<path d="M50,96.6C50,96.6,50,96.6,50,96.6L50,96.6c-0.7,0-1.3-0.1-1.9-0.4c-0.6-0.2-1.1-0.6-1.6-1.1L17.1,65.7c-1.9-1.9-1.9-5,0-6.9
	s5-1.9,6.9,0l21,21V8.3c0-2.7,2.2-4.9,4.9-4.9s4.9,2.2,4.9,4.9v71.5l21-21c1.9-1.9,5-1.9,6.9,0s1.9,5,0,6.9L53.5,95.1
	c-0.5,0.5-1,0.8-1.6,1.1C51.3,96.4,50.7,96.6,50,96.6L50,96.6C50,96.6,50,96.6,50,96.6z"/>
</svg>
