<?xml version="1.0" encoding="utf-8"?>
<!-- Generator: Adobe Illustrator 23.0.5, SVG Export Plug-In . SVG Version: 6.00 Build 0)  -->
<svg version="1.1" id="Capa_1" xmlns="http://www.w3.org/2000/svg" xmlns:xlink="http://www.w3.org/1999/xlink" x="0px" y="0px"
	 viewBox="0 0 100 100" style="enable-background:new 0 0 100 100;" xml:space="preserve">
<path d="M71,76.4c-1.4,0-2.8-0.5-3.8-1.6c-2-2.1-1.9-5.5,0.2-7.5c3.5-3.4,8.1-7.9,11.4-11.2c0.4-0.4,0.7-0.7,1-1h-7.5
	c-3.4,0-6.8-0.3-10.1-0.5c-6-0.5-11.6-0.5-17.1-0.6c-7.3-0.2-14.6-0.1-21.9,0C18.2,54,13.3,54,8.4,54c-2.9,0-5.3-2.4-5.3-5.3
	c0-2.9,2.4-5.3,5.3-5.3c4.8,0,9.6-0.1,14.4-0.2c7.5-0.1,15-0.2,22.4,0c5.9,0.2,11.9,0.2,17.6,0.7c3.2,0.2,6.3,0.5,9.3,0.5h8.6
	c-1.3-1.7-2.5-3-4.1-4.2c-3.2-2.3-6.6-5.8-8.9-9.3c-1.6-2.4-1-5.7,1.5-7.3c2.4-1.6,5.7-1,7.3,1.5c1.6,2.4,4.1,5,6.2,6.6
	c3.8,2.7,6,5.8,8.3,9.1c1.1,1.6,2.4,3.3,3.9,5.2c0.3,0.3,0.5,0.7,0.7,1c0.3,0.6,0.5,1.2,0.6,1.8c0.1,0.5,0.1,1.1,0,1.6
	c-0.1,0.4-0.2,0.8-0.3,1.1c-0.2,0.4-0.4,0.7-0.6,1.1c-3.7,5.4-5.9,7.6-9.3,11c-3.4,3.4-8,8-11.6,11.4C73.6,75.9,72.3,76.4,71,76.4z"
	/>
</svg>
