<?xml version="1.0" encoding="utf-8"?>
<!-- Generator: Adobe Illustrator 23.0.5, SVG Export Plug-In . SVG Version: 6.00 Build 0)  -->
<svg version="1.1" id="Capa_1" xmlns="http://www.w3.org/2000/svg" xmlns:xlink="http://www.w3.org/1999/xlink" x="0px" y="0px"
	 viewBox="0 0 100 100" style="enable-background:new 0 0 100 100;" xml:space="preserve">
<path d="M45,84.5c-5.5,0-9.1-4.1-11.3-6.6c-0.3-0.4-0.7-0.7-0.9-1c-0.8-0.9-2-1.5-3.7-2.5c-2.3-1.3-3.7-3.2-4.6-4.4
	c-0.2-0.3-0.4-0.5-0.6-0.7c-4.2-3.4-8.4-8-12.5-12.4c-2.1-2.3-4.2-4.6-6.3-6.7c-2.8-2.9-2.8-7.5,0-10.3c2.9-2.8,7.5-2.8,10.3,0
	c2.3,2.3,4.5,4.7,6.8,7.2c3.7,4,7.5,8.2,11.1,11.1c1.3,1.1,2.2,2.3,2.9,3.2c0.1,0.2,0.3,0.4,0.4,0.6c2,1.1,4.3,2.5,6.5,4.7
	c0.5,0.5,1,1,1.5,1.6c0.1,0.1,0.2,0.2,0.3,0.3c2.1-1.7,4.5-3.1,5.5-3.6c0.4-0.4,2.8-3,3.3-3.9c1.1-1.9,2.6-3.4,3.7-4.6
	c0.6-0.6,1.2-1.3,1.5-1.7c2.1-3.4,3.8-6.1,6-7.7c0.1-0.1,0.1-0.2,0.2-0.3c0.6-1.1,1.4-2.8,3-4.2c0.1-0.3,0.2-0.5,0.3-0.8
	c0.5-1.3,1.1-2.9,2.3-4.4c1-1.2,1.6-2.1,1.7-2.5c0.8-2.9,3.7-9.2,7-11.1c0.6-0.6,2.1-3.2,4.3-7.6l6.7,2.9l6.5,3.2
	c-2.6,5.3-5.4,10.4-8.9,13.2c-0.5,0.8-1.2,2.1-1.5,2.9c-0.4,1.7-1.4,4.2-4.5,8.1c0.1-0.1,0,0.2-0.1,0.6c-0.6,1.6-1.6,4-3.6,5.9
	c-0.1,0.2-0.2,0.4-0.3,0.6c-0.7,1.4-1.9,3.6-4.3,5.2c-0.6,0.7-1.6,2.4-2,3.1l-0.4,0.7c-1.1,1.7-2.4,3-3.4,4.1
	c-0.7,0.7-1.4,1.4-1.7,1.9c-1.1,1.9-5.6,7.4-8.7,9.2c-1.3,0.7-3.1,2-3.7,2.4c-2.7,3.5-6.2,4.4-8.5,4.4C45.2,84.5,45.1,84.5,45,84.5z
	 M36.8,62.2L36.8,62.2L36.8,62.2z M77.9,53.2C77.9,53.2,77.8,53.2,77.9,53.2C77.8,53.2,77.9,53.2,77.9,53.2z M65.8,46.5
	C65.8,46.5,65.8,46.5,65.8,46.5C65.8,46.5,65.8,46.5,65.8,46.5z M86.7,36.3C86.7,36.3,86.6,36.3,86.7,36.3
	C86.6,36.3,86.7,36.3,86.7,36.3z M72.3,34.9c0,0.2-0.1,0.4-0.2,0.8C72.2,35.5,72.2,35.2,72.3,34.9z"/>
</svg>
