<?xml version="1.0" encoding="utf-8"?>
<!-- Generator: Adobe Illustrator 23.0.5, SVG Export Plug-In . SVG Version: 6.00 Build 0)  -->
<svg version="1.1" id="Capa_1" xmlns="http://www.w3.org/2000/svg" xmlns:xlink="http://www.w3.org/1999/xlink" x="0px" y="0px"
	 viewBox="0 0 100 100" style="enable-background:new 0 0 100 100;" xml:space="preserve">
<path d="M9.2,96.2c-1.3,0-2.6-0.5-3.6-1.4c-2.2-2-2.4-5.4-0.4-7.7c7-7.8,15.3-16.8,23.8-25.6c1.9-1.9,3.7-4,5.5-6
	c2-2.3,4.1-4.7,6.4-7c-0.5-0.5-1-1-1.5-1.5c-2.4-2.4-4.8-4.8-6.9-6.9c-4.6-4.7-8.8-8.6-12.8-12.4C15.6,24,11.3,20,6.6,15.1
	c-2.1-2.1-2-5.6,0.1-7.7c2.1-2.1,5.6-2,7.7,0.1c4.6,4.7,8.7,8.6,12.8,12.3c4.1,3.9,8.4,7.9,13.2,12.7c2,2.1,4.4,4.4,6.7,6.7
	c0.6,0.6,1.2,1.2,1.8,1.8c4.1-3.8,7-6.9,10.7-11.1c3.7-4.1,7.3-7.8,10.9-11.4c4.3-4.4,8.4-8.5,12.1-12.9c1.9-2.3,5.3-2.6,7.7-0.7
	c2.3,1.9,2.6,5.3,0.7,7.7c-3.9,4.7-8.2,9-12.7,13.6c-3.5,3.5-7.1,7.1-10.6,11c-3.8,4.2-6.9,7.5-11.1,11.5c3.9,3.9,7.7,7.6,11.3,10.9
	c2.3,2.1,4.9,4.6,7.7,7.3c5.9,5.7,12.7,12.3,18.6,16.8c2.4,1.8,2.8,5.2,1,7.6c-1.8,2.4-5.2,2.8-7.6,1C81,87.6,74.1,80.8,67.9,74.9
	c-2.7-2.6-5.3-5.1-7.5-7.1c-3.8-3.4-7.8-7.4-11.9-11.5c-2,2-3.9,4.2-5.9,6.4c-1.9,2.2-3.9,4.4-5.8,6.4c-8.4,8.6-16.6,17.6-23.5,25.3
	C12.2,95.6,10.7,96.2,9.2,96.2z"/>
</svg>
