<?xml version="1.0" encoding="utf-8"?>
<!-- Generator: Adobe Illustrator 23.0.5, SVG Export Plug-In . SVG Version: 6.00 Build 0)  -->
<svg version="1.1" id="Capa_1" xmlns="http://www.w3.org/2000/svg" xmlns:xlink="http://www.w3.org/1999/xlink" x="0px" y="0px"
	 viewBox="0 0 100 100" style="enable-background:new 0 0 100 100;" xml:space="preserve">
<path d="M87.5,10.9c2.6,0,4.8,1,6.6,3c1.9,1.8,2.9,4.1,2.9,6.9v58.5c0,2.7-1,5.1-2.9,7.1c-1.8,1.8-4,2.7-6.6,2.7H12.5
	c-2.6,0-4.9-0.9-6.8-2.7c-1.8-2-2.6-4.3-2.6-7.1V20.7c0-2.7,0.9-5,2.6-6.9c1.9-2,4.2-3,6.8-3H87.5z M87.5,30.6v-9.8L49.9,45.2
	L12.5,20.7v9.8l37.3,24.2L87.5,30.6z"/>
</svg>
