<?xml version="1.0" encoding="utf-8"?>
<!-- Generator: Adobe Illustrator 23.0.5, SVG Export Plug-In . SVG Version: 6.00 Build 0)  -->
<svg version="1.1" id="Capa_1" xmlns="http://www.w3.org/2000/svg" xmlns:xlink="http://www.w3.org/1999/xlink" x="0px" y="0px"
	 viewBox="0 0 100 100" style="enable-background:new 0 0 100 100;" xml:space="preserve">
<path d="M50.1,83.1c-10.4,0-19.9-2.9-28.3-8.5l0,0C14,69.3,8.2,62.5,4.5,54.4c-1.3-2.8-1.3-5.9,0-8.7c3.8-8.1,9.6-14.9,17.3-20
	c8.4-5.8,17.9-8.7,28.3-8.7c10.4,0,19.9,2.9,28.2,8.7c7.7,5.1,13.5,11.9,17.2,20c1.3,2.8,1.3,5.9,0,8.7c-3.7,8.1-9.5,14.9-17.2,20.2
	C69.9,80.2,60.5,83.1,50.1,83.1z M24.8,70L24.8,70c7.5,5,16,7.6,25.2,7.6S67.8,75,75.1,70c6.9-4.7,12-10.8,15.3-18
	c0.6-1.3,0.6-2.8,0-4.1c-3.3-7.2-8.5-13.2-15.3-17.8c-7.4-5.2-15.8-7.8-25.1-7.8c-9.2,0-17.7,2.6-25.2,7.7C18,34.8,12.8,40.8,9.5,48
	c-0.6,1.3-0.6,2.8,0,4.1C12.8,59.2,18,65.3,24.8,70z"/>
<path d="M50.1,66.5c-5.3,0-9.9-1.6-13.8-4.8c-3.7-3.3-5.6-7.2-5.6-11.8s1.9-8.4,5.6-11.6c3.9-3.3,8.5-4.9,13.8-4.9
	c5.3,0,9.9,1.6,13.6,4.9c3.7,3.2,5.6,7.1,5.6,11.6s-1.9,8.5-5.6,11.8C59.9,65,55.4,66.5,50.1,66.5z"/>
</svg>
