<?xml version="1.0" encoding="utf-8"?>
<!-- Generator: Adobe Illustrator 23.0.5, SVG Export Plug-In . SVG Version: 6.00 Build 0)  -->
<svg version="1.1" id="Capa_1" xmlns="http://www.w3.org/2000/svg" xmlns:xlink="http://www.w3.org/1999/xlink" x="0px" y="0px"
	 viewBox="0 0 100 100" style="enable-background:new 0 0 100 100;" xml:space="preserve">
<path d="M53.4,90.7c-2.2,1.9-5.5,1.9-7.7-0.1l-3.1-2.8C36.5,82.3,32,78.1,29,75.5c-2.9-2.8-6.5-6.4-10.6-10.8
	c-4.1-4.4-7.2-8-9.1-10.8c-1.8-2.8-3.4-6-4.9-9.5c-1.3-3.7-2-7.3-2-10.8c0-7.2,2.5-13.3,7.5-18.4c5-5,11.1-7.5,18.4-7.5
	c6.2,0,11.6,1.8,16.3,5.3c2.9,2.1,7,2.1,9.9,0c4.7-3.5,10.1-5.3,16.3-5.3c7.4,0,13.6,2.5,18.6,7.5c5,5,7.5,11.1,7.5,18.4
	c0,3.5-0.7,7.2-2.2,10.8c-1.5,3.5-3.1,6.7-4.9,9.5c-1.8,2.8-4.8,6.4-9.1,10.8c-4.1,4.4-7.7,8-10.6,10.8c-2.8,2.7-7.4,6.9-13.7,12.6
	L53.4,90.7z"/>
</svg>
