<?xml version="1.0" encoding="utf-8"?>
<!-- Generator: Adobe Illustrator 23.0.5, SVG Export Plug-In . SVG Version: 6.00 Build 0)  -->
<svg version="1.1" id="Capa_1" xmlns="http://www.w3.org/2000/svg" xmlns:xlink="http://www.w3.org/1999/xlink" x="0px" y="0px"
	 viewBox="0 0 100 100" style="enable-background:new 0 0 100 100;" xml:space="preserve">
<path d="M73.5,57.6c0-3.1-0.6-5.3-1.7-6.7c-1.1-1.5-3.2-2.3-6.3-2.3c-3.8,0-6.5,1.1-8,3.4c-1.5,2.2-2.3,5.4-2.3,9.5v30.7
	c0,0.7-0.2,1.3-0.6,1.7c-0.4,0.4-1,0.6-1.7,0.6h-16c-0.6,0-1.1-0.2-1.7-0.6c-0.4-0.4-0.6-1-0.6-1.7V35.3c0-0.6,0.2-1.1,0.6-1.5
	c0.6-0.6,1.1-0.8,1.7-0.8h15.6c0.6,0,1,0.1,1.3,0.4c0.4,0.3,0.7,0.7,0.8,1.3c0,0.6,0,0.9,0,1.1c0.1,0.3,0.2,0.8,0.2,1.5
	c3.9-3.8,9.3-5.7,16-5.7c7.4,0,13.3,1.9,17.5,5.7c4.2,3.8,6.3,9.3,6.3,16.6v38.3c0,0.7-0.3,1.3-0.8,1.7c-0.4,0.4-0.9,0.6-1.5,0.6
	H75.8c-0.6,0-1.1-0.2-1.7-0.6c-0.4-0.4-0.6-1-0.6-1.7V57.6z M26.4,15.8c0,2.9-1.1,5.5-3.2,7.8c-2.1,2.1-4.7,3.2-7.8,3.2
	c-2.9,0-5.5-1.1-7.6-3.2c-2.1-2.2-3.2-4.8-3.2-7.8c0-3.1,1.1-5.7,3.2-7.8c2.1-2.1,4.6-3.2,7.6-3.2c3.1,0,5.7,1.1,7.8,3.2
	C25.3,10.1,26.4,12.7,26.4,15.8z M26,35.3v56.8c0,0.7-0.3,1.3-0.8,1.7c-0.4,0.4-0.9,0.6-1.5,0.6h-16c-0.7,0-1.3-0.2-1.7-0.6
	c-0.4-0.4-0.6-1-0.6-1.7V35.3c0-0.6,0.2-1.1,0.6-1.5C6.4,33.3,7,33,7.7,33h16c0.6,0,1.1,0.3,1.5,0.8C25.7,34.3,26,34.8,26,35.3z"/>
</svg>
