<?xml version="1.0" encoding="utf-8"?>
<!-- Generator: Adobe Illustrator 23.0.5, SVG Export Plug-In . SVG Version: 6.00 Build 0)  -->
<svg version="1.1" id="Capa_1" xmlns="http://www.w3.org/2000/svg" xmlns:xlink="http://www.w3.org/1999/xlink" x="0px" y="0px"
	 viewBox="0 0 100 100" style="enable-background:new 0 0 100 100;" xml:space="preserve">
<style type="text/css">
	.st0{fill-rule:evenodd;clip-rule:evenodd;}
</style>
<path class="st0" d="M95.8,30.4C95.1,13.5,85.7,4.1,68.8,3.4c-5-0.2-6.6-0.3-19.2-0.3C37,3.1,35.4,3.1,30.4,3.4
	C13.5,4.1,4.1,13.5,3.4,30.4c-0.2,5-0.3,6.5-0.3,19.2s0.1,14.2,0.3,19.2c0.8,16.9,10.1,26.3,27.1,27.1c5,0.2,6.5,0.3,19.2,0.3
	c12.6,0,14.2-0.1,19.2-0.3c16.9-0.8,26.3-10.1,27.1-27.1c0.2-5,0.3-6.5,0.3-19.2S96.1,35.4,95.8,30.4z M87.5,68.4
	C86.9,80.9,81,86.9,68.4,87.5c-4.9,0.2-6.4,0.3-18.8,0.3c-12.4,0-13.9,0-18.8-0.3c-12.6-0.6-18.5-6.6-19.1-19.1
	c-0.2-4.9-0.3-6.4-0.3-18.8c0-12.4,0.1-13.9,0.3-18.8c0.6-12.5,6.5-18.5,19.1-19.1c4.9-0.2,6.4-0.3,18.8-0.3c12.4,0,13.9,0,18.8,0.3
	c12.6,0.6,18.5,6.6,19.1,19.1c0.2,4.9,0.3,6.4,0.3,18.8C87.7,62,87.7,63.5,87.5,68.4z"/>
<path class="st0" d="M49.6,25.7c-13.2,0-23.9,10.7-23.9,23.9c0,13.2,10.7,23.9,23.9,23.9c13.2,0,23.9-10.7,23.9-23.9
	C73.5,36.4,62.8,25.7,49.6,25.7z M49.6,65.1c-8.6,0-15.5-6.9-15.5-15.5c0-8.6,6.9-15.5,15.5-15.5c8.6,0,15.5,6.9,15.5,15.5
	C65.1,58.2,58.2,65.1,49.6,65.1z"/>
<path class="st0" d="M68.8,24.8c0-3.1,2.5-5.6,5.6-5.6c3.1,0,5.6,2.5,5.6,5.6c0,3.1-2.5,5.6-5.6,5.6C71.3,30.4,68.8,27.9,68.8,24.8z
	"/>
</svg>
