<?xml version="1.0" encoding="utf-8"?>
<!-- Generator: Adobe Illustrator 23.0.5, SVG Export Plug-In . SVG Version: 6.00 Build 0)  -->
<svg version="1.1" id="Capa_1" xmlns="http://www.w3.org/2000/svg" xmlns:xlink="http://www.w3.org/1999/xlink" x="0px" y="0px"
	 viewBox="0 0 100 100" style="enable-background:new 0 0 100 100;" xml:space="preserve">
<path d="M57.8,97.3c-1.8,0-3.6-0.9-4.6-2.5c-1.7-2.5-1-6,1.6-7.7c2.5-1.7,5.2-4.2,8-6.9c0.5-0.5,1.1-1,1.6-1.5c-1.7,0-3.3,0.1-5,0.1
	c-2.8,0.1-5.5,0.1-8.3,0.1H26.9c-1.2,0-2.4-0.1-3.5-0.3c-0.7-0.1-1.3-0.2-2-0.2c-2.1,0-4.1-0.8-5.4-2.2c-2.2-2.4-2-5.4-1.9-7
	c0-0.2,0-0.4,0-0.6c0-4.5,0.1-8.9,0.3-13.4c0.1-4.3,0.3-8.7,0.3-13c0-9.9-0.2-20.8-0.5-33.3c-0.1-3.1,2.3-5.6,5.4-5.7
	c3.1-0.3,5.6,2.3,5.7,5.4c0.3,12.6,0.5,23.6,0.5,33.6c0,4.4-0.1,8.9-0.3,13.3c-0.1,4.1-0.2,8.1-0.3,12.2c0.6,0.1,1.2,0.2,1.8,0.2
	h24.2c2.7,0,5.4-0.1,8.1-0.1c2.6-0.1,5.2-0.1,7.8-0.1c-0.1-0.1-0.2-0.1-0.3-0.2c-1.2-0.8-2.9-2.6-6.5-6.1c-1.3-1.3-3.1-3.1-3.8-3.7
	c-2.2-1.5-3-4.5-1.8-7c1.4-2.7,4.7-3.9,7.4-2.5c1.1,0.6,1.9,1.3,6,5.4c1.6,1.7,4.4,4.4,5.1,5c1.4,1,2.5,2,3.4,2.9
	c0.4,0.4,0.9,0.8,1.3,1.2c1.4,1.2,2.6,2.4,3.8,3.6c1.8,1.6,4.3,3.9,4,6.9c0,0.2,0,0.4,0,0.7c-0.3,2.4-2,3.8-2.6,4.3
	c-0.3,0.3-1,1.1-2.2,1.7c-3.2,1.5-6.9,5-10.5,8.4c-3.1,2.9-6.2,5.9-9.6,8.1C59.9,97,58.8,97.3,57.8,97.3z"/>
</svg>
