<?xml version="1.0" encoding="utf-8"?>
<!-- Generator: Adobe Illustrator 23.0.5, SVG Export Plug-In . SVG Version: 6.00 Build 0)  -->
<svg version="1.1" id="Capa_1" xmlns="http://www.w3.org/2000/svg" xmlns:xlink="http://www.w3.org/1999/xlink" x="0px" y="0px"
	 viewBox="0 0 100 100" style="enable-background:new 0 0 100 100;" xml:space="preserve">
<path d="M50.3,77.4c-1.6,0-3.2-0.5-4.6-1.5C35.9,68.7,31.8,64.5,25.8,58C19.6,51.5,11.3,42.6,5,35.7c-2.9-3.2-2.6-8.2,0.6-11.1
	c3.2-2.9,8.2-2.6,11.1,0.6c6.1,6.8,14.4,15.6,20.5,22.1c4.6,4.9,7.6,8.1,12.8,12.2c2-1.6,3.9-3.1,5.7-4.4c5.2-3.9,9.3-7,12.6-11.9
	c4-5.9,10.3-12.3,16.4-16.6c3.5-2.5,8.4-1.7,10.9,1.9c2.5,3.5,1.7,8.4-1.9,10.9c-4.5,3.2-9.5,8.3-12.5,12.6
	c-4.7,7-10.2,11.2-16,15.6c-3.1,2.3-6.3,4.8-9.6,7.8C54,76.7,52.1,77.4,50.3,77.4z"/>
</svg>
