<?xml version="1.0" encoding="utf-8"?>
<!-- Generator: Adobe Illustrator 23.0.5, SVG Export Plug-In . SVG Version: 6.00 Build 0)  -->
<svg version="1.1" id="Capa_1" xmlns="http://www.w3.org/2000/svg" xmlns:xlink="http://www.w3.org/1999/xlink" x="0px" y="0px"
	 viewBox="0 0 100 100" style="enable-background:new 0 0 100 100;" xml:space="preserve">
<path d="M37.8,8.7c-0.7-0.2-1.5-0.2-2.3-0.2c-6.3,0.3-11.1,7.1-10.8,15.1c0.3,7.1,4.6,12.8,9.9,13.9c0.7,0.2,1.5,0.2,2.3,0.2
	c7.7-0.1,11.1-7.1,10.8-15.1C47.4,15.5,43.1,9.8,37.8,8.7z"/>
<path d="M17.2,30.7c-1.1-0.3-2.2-0.5-3.4-0.4c-6,0.3-10.5,6.5-9.9,13.8c0.5,5.9,4,10.7,8.6,12.2c1.1,0.3,2.2,0.5,3.4,0.4
	c7.6-0.4,10.5-6.5,9.9-13.8C25.4,37,21.8,32.2,17.2,30.7z"/>
<path d="M83,76.8c0.7-11.5-10.7-15.5-13.8-21C64.1,46.8,57.4,42,50,42s-14.1,4.8-19.3,13.8c-3.1,5.4-14.2,9.5-13.8,21
	c0.6,14.7,14.2,15.9,20.8,13.8c4.8-1.5,8.4-3.9,12.2-3.8c3.8,0,7.4,2.4,12.2,3.8C68.8,92.7,82.1,92,83,76.8L83,76.8z"/>
<path d="M62.2,8.7c0.7-0.2,1.5-0.2,2.3-0.2c6.3,0.3,11.1,7.1,10.8,15.1c-0.3,7.1-4.6,12.8-9.9,13.9c-0.7,0.2-1.5,0.2-2.3,0.2
	c-7.7-0.1-11.1-7.1-10.8-15.1C52.6,15.5,56.9,9.8,62.2,8.7z"/>
<path d="M82.8,30.7c1.1-0.3,2.2-0.5,3.4-0.4c6,0.3,10.5,6.5,9.9,13.8c-0.5,5.9-4,10.7-8.6,12.2c-1.1,0.3-2.2,0.5-3.4,0.4
	c-7.6-0.4-10.5-6.5-9.9-13.8C74.6,37,78.2,32.2,82.8,30.7z"/>
</svg>
