<?xml version="1.0" encoding="utf-8"?>
<!-- Generator: Adobe Illustrator 23.0.5, SVG Export Plug-In . SVG Version: 6.00 Build 0)  -->
<svg version="1.1" id="Capa_1" xmlns="http://www.w3.org/2000/svg" xmlns:xlink="http://www.w3.org/1999/xlink" x="0px" y="0px"
	 viewBox="0 0 100 100" style="enable-background:new 0 0 100 100;" xml:space="preserve">
<path d="M15.4,58.9c-1.6-0.6-3.2-1.5-4.5-2.6C4.3,51,2.3,41.1,4.4,33.1c0.9-3.4,2.7-6.7,5.5-8.8c4.4-3.4,9.5-5.4,15.2-5.2
	c4.8,0.1,10.3,1.8,14,5.1c3.4,3.1,5,8.1,5.6,12.6c1.1,8.1-0.3,16.4-3.5,23.9c-1.8,4.3-4.3,8.4-7.2,12.1c-1.5,1.9-3,3.7-4.7,5.4
	c-1.7,1.7-3,3.8-5.2,1.8c-0.2-0.2-0.4-0.4-0.3-0.6c0-0.2,0.1-0.3,0.2-0.5c4.4-5.7,8.5-11.4,6.7-19.1C25.9,60.7,20.2,60.7,15.4,58.9
	L15.4,58.9z"/>
<path d="M81.4,68.6c-1.1,2.9-2.6,5.6-4.4,8.2c-0.2,0.3-0.4,0.7-0.4,1.1c0.1,0.4,0.5,0.7,0.9,0.9c0.8,0.4,1.7,0.9,2.6,0.7
	c0.7-0.1,1.3-0.7,1.8-1.2c1.5-1.5,3-2.8,4.3-4.5c1.3-1.9,2.5-3.8,3.6-5.8c2.2-4,3.9-8.2,5.1-12.5c0.3-1.1,0.6-2.2,0.7-3.3
	c0.9-6.2,1.3-12.4-0.5-18.5c-1.5-5.1-4.9-9.8-9.7-12c-3.1-1.4-6.6-1.7-10-1.8c-2.1-0.1-4.1-0.1-6.1,0.3c-6.6,1.3-12,7-13.8,13.6
	c-1.8,6.6-0.1,13.9,3.5,19.6c0.9,1.4,1.8,2.6,3,3.7c2.7,2.4,6.4,3.4,10,3.5c3,0.1,6-0.5,8.9-0.9c1.2-0.2,2-0.3,2.2,1
	c0.3,1.4-0.3,3.1-0.6,4.5C82.2,66.3,81.9,67.4,81.4,68.6L81.4,68.6z"/>
</svg>
