<?xml version="1.0" encoding="utf-8"?>
<!-- Generator: Adobe Illustrator 23.0.5, SVG Export Plug-In . SVG Version: 6.00 Build 0)  -->
<svg version="1.1" id="Capa_1" xmlns="http://www.w3.org/2000/svg" xmlns:xlink="http://www.w3.org/1999/xlink" x="0px" y="0px"
	 viewBox="0 0 100 100" style="enable-background:new 0 0 100 100;" xml:space="preserve">
<path d="M93.7,86.8L76.8,69.9c12.6-16.2,11.5-39.7-3.4-54.6C57.3-0.8,31.1-0.8,15,15.3C-1.1,31.4-1.1,57.6,15,73.7
	c8.1,8.1,18.6,12.1,29.2,12.1c9,0,17.9-2.9,25.4-8.7L86.5,94c1,1,2.3,1.5,3.6,1.5s2.6-0.5,3.6-1.5C95.7,92,95.7,88.8,93.7,86.8z
	 M22.2,66.5c-12.1-12.1-12.1-31.9,0-44c12.1-12.1,31.9-12.1,44,0c12.1,12.1,12.1,31.9,0,44C54.1,78.6,34.3,78.6,22.2,66.5z"/>
</svg>
