<?xml version="1.0" encoding="utf-8"?>
<!-- Generator: Adobe Illustrator 23.0.5, SVG Export Plug-In . SVG Version: 6.00 Build 0)  -->
<svg version="1.1" id="Capa_1" xmlns="http://www.w3.org/2000/svg" xmlns:xlink="http://www.w3.org/1999/xlink" x="0px" y="0px"
	 viewBox="0 0 100 100" style="enable-background:new 0 0 100 100;" xml:space="preserve">
<path d="M87,31.5c0,0.8,0,1.6,0,2.3c0,6.4-1.2,12.7-3.7,18.9c-2.3,6.1-5.7,11.7-10.2,16.8c-4.4,5.1-10.1,9.3-17.2,12.5
	c-7,3.1-14.7,4.7-23.1,4.7C22,86.8,12.3,84,3.4,78.5c1.5,0.1,3,0.2,4.6,0.2c8.9,0,16.8-2.6,23.8-7.9c-4.2-0.1-8-1.4-11.3-3.8
	c-3.2-2.4-5.4-5.5-6.5-9.1c1.2,0.3,2.3,0.4,3.5,0.4c1.7,0,3.4-0.3,5-0.8c-4.4-0.8-8-3-10.9-6.4s-4.4-7.3-4.4-11.7c0-0.1,0-0.2,0-0.2
	c2.8,1.4,5.7,2.2,8.7,2.3c-5.7-3.8-8.5-9-8.5-15.5c0-3.4,0.9-6.5,2.6-9.3c4.8,5.7,10.5,10.2,17.2,13.6c6.8,3.4,14.2,5.3,22,5.7
	c-0.3-1.4-0.4-2.8-0.4-4.2c0-5.1,1.8-9.4,5.5-13c3.8-3.7,8.3-5.5,13.5-5.5c5.5,0,10.2,1.9,14,5.7c4.4-0.8,8.4-2.3,12.2-4.5
	c-1.5,4.4-4.3,7.8-8.5,10.2c3.9-0.4,7.6-1.3,11.1-2.8C93.9,25.6,90.7,28.8,87,31.5z"/>
</svg>
