<svg width="254" height="151" viewBox="0 0 254 151" fill="none" xmlns="http://www.w3.org/2000/svg">
<path d="M89.4349 135.236C84.5623 140.764 78.0911 144.616 71.0614 146.965L70.8495 146.387C65.8998 140.109 67.0554 130.364 72.294 124.335C78.38 117.325 89.3964 115.187 97.678 119.405L98.3714 119.443C97.4084 122.236 96.2143 124.952 94.7698 127.552C93.2676 130.286 91.515 132.887 89.4349 135.236Z" fill="#F6B97B"/>
<path d="M69.3292 75.1848C76.6863 74.5108 84.2553 78.3241 88.088 84.6413L88.0302 85.0842C77.6301 84.102 66.7677 87.1065 57.9468 93.0192L57.735 92.711C55.9438 90.4962 53.6134 88.4354 50.9941 86.6057L51.1675 86.3554C55.6164 80.5582 62.0491 75.8397 69.3292 75.1848Z" fill="#F6B97B"/>
<path d="M53.4597 149.95C46.8729 150.104 40.2476 149.238 33.9883 147.254L34.4698 145.732C34.0846 139.203 34.6238 132.559 36.1453 126.165C37.0313 122.428 38.2254 118.788 39.7661 115.322C41.7499 110.796 44.2921 106.539 47.3929 102.707C48.664 101.147 50.0122 99.6637 51.4567 98.2577C53.4404 96.3125 55.6167 94.5599 57.9471 93.0191C66.768 87.1065 77.6303 84.102 88.0305 85.0842C91.9402 85.4694 95.7728 86.3938 99.4321 87.9539L100.299 87.7805C101.32 92.9806 101.705 98.277 101.435 103.535H100.877C94.4824 103.496 88.1268 102.187 81.7519 102.61C70.9666 103.342 60.6242 109.37 54.9426 118.557C49.2803 127.744 48.587 139.897 53.4597 149.527V149.95Z" fill="#F6B97B"/>
<path d="M39.4186 77.9004L38.5712 80.5967C37.5119 80.2693 36.4526 80.0189 35.4319 79.8263C31.0985 79.0174 26.7073 78.8441 22.2969 79.0174V78.4782C23.4524 70.524 27.8051 63.1476 33.8911 57.8705C39.9771 52.6126 51.6676 48.8955 59.6218 47.7015V47.6437C61.3744 47.7592 63.1271 47.9903 64.8604 48.2985C73.4309 49.8585 81.674 53.8838 87.5866 60.2779C88.3378 61.0868 89.0311 61.9342 89.6859 62.8009L89.2237 63.1669C80.4799 58.4675 69.8294 57.5046 60.3922 60.5476C51.5521 63.4172 43.9061 69.7729 39.4186 77.9004Z" fill="#F6B97B"/>
<path d="M22.1798 141.206C20.6006 140.032 19.2909 138.26 18.482 135.14C17.8272 132.597 20.2539 128.36 22.2761 126.646C23.9132 125.24 27.4184 124.47 29.537 124.104C31.6748 123.738 34.0437 124.335 35.4304 125.991L36.143 126.165C34.6215 132.559 34.0822 139.203 34.4674 145.732L33.9859 147.254C30.7888 146.252 27.6688 144.943 24.7221 143.325C23.7591 142.805 22.8154 142.246 21.9102 141.63L22.1798 141.206Z" fill="#F6B97B"/>
<path d="M9.10403 129.574C6.69659 126.203 4.75138 122.486 3.44173 118.538C2.0743 114.397 1.38096 110.045 1.11133 105.692L2.09356 105.73C3.90396 102.803 6.75437 100.684 9.70107 98.9318C15.3249 95.5807 21.6805 93.2503 28.2287 93.231C34.7577 93.2118 42.9045 97.5644 47.1608 102.533L47.392 102.707C44.2912 106.539 41.7489 110.796 39.7652 115.322H39.7459C36.5874 111.701 31.7917 109.505 28.3828 108.831C22.9324 107.753 16.9812 109.679 13.2063 113.781C9.43144 117.864 7.96772 123.95 9.48922 129.304L9.10403 129.574Z" fill="#F6B97B"/>
<path d="M3.74961 82.9077C2.03552 88.2426 1.0918 94.0012 1.01476 100.01C0.976242 101.898 1.01476 103.804 1.11106 105.692C1.38069 110.044 2.07403 114.397 3.44146 118.538C4.75111 122.486 6.69632 126.203 9.10376 129.574C12.532 134.35 16.9424 138.471 21.9113 141.63C22.8165 142.246 23.7603 142.805 24.7232 143.325C27.6699 144.943 30.79 146.252 33.9871 147.254C40.2464 149.237 46.8717 150.104 53.4584 149.95C54.6718 149.95 55.8851 149.873 57.0792 149.777C61.7978 149.411 66.5549 148.506 71.0616 146.965C78.0914 144.615 84.5626 140.763 89.4352 135.236C91.5152 132.886 93.2679 130.286 94.7701 127.551C96.2146 124.951 97.4087 122.236 98.3716 119.443C99.6813 115.649 100.586 111.72 101.068 107.714C101.241 106.327 101.357 104.941 101.434 103.535C101.704 98.2768 101.318 92.9804 100.298 87.7804C99.3539 82.8499 97.8516 78.0158 95.8294 73.432C94.1731 69.6764 92.1893 66.0364 89.6856 62.8008C89.0308 61.9341 88.3374 61.0867 87.5863 60.2778C81.6736 53.8836 73.4306 49.8584 64.8601 48.2984C63.1267 47.9902 61.3741 47.7591 59.6215 47.6435C52.7073 47.1043 45.6776 47.9517 38.956 49.7236C27.1692 52.8051 17.7705 59.3341 11.2608 68.0971C8.00597 72.5076 5.46371 77.4958 3.74961 82.9077Z" stroke="#527062" stroke-width="2" stroke-miterlimit="10" stroke-linecap="round"/>
<path d="M4.4043 83.1004C6.06062 81.0781 8.87251 80.5196 11.4533 80.1344C15.0356 79.5952 18.6756 79.1907 22.2964 79.0174C26.7068 78.844 31.098 79.0174 35.4314 79.8263C36.4521 80.0189 37.5114 80.2692 38.5707 80.5967C42.7885 81.8293 47.1797 83.9478 50.9931 86.6056C53.6124 88.4353 55.9428 90.496 57.7339 92.7109" stroke="#527062" stroke-width="2" stroke-miterlimit="10" stroke-linecap="round"/>
<path d="M2.0918 105.73C3.90219 102.803 6.7526 100.684 9.69931 98.9318C15.3231 95.5807 21.6787 93.2503 28.227 93.231C34.7559 93.2118 42.9027 97.5644 47.1591 102.533" stroke="#527062" stroke-width="2" stroke-miterlimit="10" stroke-linecap="round"/>
<path d="M9.48976 129.304C7.96826 123.95 9.43198 117.864 13.2068 113.781C16.9817 109.679 22.9329 107.753 28.3833 108.831C31.7923 109.505 36.5879 111.701 39.7465 115.322" stroke="#527062" stroke-width="2" stroke-miterlimit="10" stroke-linecap="round"/>
<path d="M24.491 142.555C23.6821 142.169 22.9117 141.746 22.1798 141.206C20.6006 140.032 19.2909 138.26 18.482 135.14C17.8272 132.597 20.2539 128.36 22.2761 126.646C23.9132 125.24 27.4184 124.47 29.537 124.104C31.6748 123.738 34.0437 124.335 35.4304 125.991" stroke="#527062" stroke-width="2" stroke-miterlimit="10" stroke-linecap="round"/>
<path d="M97.678 119.405C89.3964 115.187 78.38 117.325 72.294 124.335C67.0554 130.364 65.8998 140.109 70.8495 146.387" stroke="#527062" stroke-width="2" stroke-miterlimit="10" stroke-linecap="round"/>
<path d="M22.2773 78.4781C23.4522 70.5239 27.8048 63.1476 33.8908 57.8704C39.9768 52.6126 51.6674 48.8955 59.6216 47.7014" stroke="#527062" stroke-width="2" stroke-miterlimit="10" stroke-linecap="round"/>
<path d="M38.5508 79.5568C38.8204 78.9983 39.1093 78.459 39.4175 77.9005C43.9049 69.773 51.551 63.4173 60.3911 60.5476C69.8282 57.5046 80.4788 58.4676 89.2226 63.1669" stroke="#527062" stroke-width="2" stroke-miterlimit="10" stroke-linecap="round"/>
<path d="M34.4695 145.732C34.0843 139.203 34.6235 132.559 36.145 126.165C37.031 122.428 38.2251 118.788 39.7658 115.322C41.7496 110.796 44.2918 106.539 47.3926 102.707C48.6637 101.147 50.0119 99.6637 51.4564 98.2577C53.4401 96.3125 55.6164 94.5599 57.9468 93.0191C66.7677 87.1065 77.63 84.102 88.0302 85.0842C91.9399 85.4694 95.7725 86.3939 99.4318 87.9539" stroke="#527062" stroke-width="2" stroke-miterlimit="10" stroke-linecap="round"/>
<path d="M100.875 103.516C94.481 103.496 88.1254 102.187 81.7504 102.61C70.9651 103.342 60.6228 109.371 54.9412 118.557C49.2789 127.744 48.5856 139.897 53.4582 149.527" stroke="#527062" stroke-width="2" stroke-miterlimit="10" stroke-linecap="round"/>
<path d="M51.166 86.3554C55.615 80.5582 62.0476 75.8397 69.3277 75.1848C76.6849 74.5108 84.2539 78.3241 88.0865 84.6413" stroke="#527062" stroke-width="2" stroke-miterlimit="10" stroke-linecap="round"/>
<path d="M249.803 48.0204C245.527 53.9089 238.032 56.8134 230.76 57.0127C223.488 57.212 216.364 55.0126 209.601 52.34C200.816 48.8918 192.358 44.6065 184.377 39.5865C180.382 37.0892 176.491 34.3989 172.169 32.5491C167.838 30.7246 162.952 29.7948 158.415 31.0042C150.869 33.0265 145.886 40.6125 144.41 48.2819C142.958 55.9613 144.273 63.859 145.267 71.6024C146.287 79.3558 146.918 87.4688 144.192 94.7815C141.124 103.043 133.671 109.503 125.063 111.402C116.628 113.267 107.328 110.612 101.095 104.637C100.97 104.545 100.856 104.427 100.749 104.326" stroke="#527062" stroke-width="2" stroke-miterlimit="10" stroke-linecap="round"/>
</svg>
