<svg width="188" height="208" viewBox="0 0 188 208" fill="none" xmlns="http://www.w3.org/2000/svg">
<path d="M86.756 187.002L87.1913 187.317C86.6109 188.166 86.0064 189.015 85.4502 189.864C84.749 190.907 84.0477 191.95 83.2014 192.871C82.476 193.623 81.678 194.278 80.88 194.933C70.2644 203.592 59.6005 205.071 46.4217 206.914C43.2781 207.157 40.0862 207.303 36.991 206.793C33.8716 206.284 30.8731 205.095 28.0681 203.64C26.0852 202.621 24.1749 201.457 22.3613 200.147C28.0197 203.179 33.7991 200.172 36.8459 197.164C40.1346 193.89 42.19 189.621 44.8257 185.789C48.2836 180.744 52.8539 176.378 58.4156 173.856C63.9773 171.333 70.5546 170.8 76.1888 173.152C81.8231 175.505 86.2482 180.914 86.756 187.002Z" fill="#F7B97C"/>
<path d="M81.097 133.618C82.2819 139.487 81.5323 146.012 77.8809 150.766C73.3832 156.659 65.3308 158.818 57.9555 158.212C52.8049 157.824 47.6543 156.199 43.616 152.949C39.3359 149.48 36.6276 144.46 33.7259 139.778C30.8 135.097 27.2937 130.416 22.2398 128.258C17.4035 126.22 10.1975 129.325 7.61012 133.957H7.58594C10.9471 127.845 15.5899 122.776 21.9254 118.847C32.9279 111.983 46.6387 109.218 59.358 112.177C61.3893 112.638 63.3963 113.268 65.3308 114.02C66.8784 114.627 68.3776 115.306 69.8285 116.058C71.0134 116.737 72.1016 117.513 72.8995 118.338C74.6648 120.229 76.1398 122.364 77.5907 124.522C79.3801 127.166 80.4441 130.489 81.097 133.618Z" fill="#C97155"/>
<path d="M7.58663 133.933C5.7005 137.329 4.20126 141.064 3.04056 145.09C0.81588 152.779 0.356436 161.001 1.92822 168.859C4.41889 181.399 11.9634 192.823 22.3614 200.147C24.175 201.457 26.0853 202.621 28.0682 203.64C30.8732 205.095 33.8717 206.284 36.9911 206.793C40.0863 207.302 43.2782 207.157 46.4217 206.914C59.6005 205.071 70.2645 203.592 80.88 194.933C81.678 194.278 82.476 193.623 83.2014 192.871C84.0478 191.949 84.749 190.907 85.4503 189.864C86.0065 189.015 86.611 188.166 87.1913 187.317C90.48 182.684 93.8896 177.93 94.5908 172.303C95.5581 164.591 95.8966 157.193 94.6392 149.456C92.3661 135.219 82.5969 122.679 69.8292 116.058C68.3783 115.306 66.8791 114.627 65.3315 114.02C63.397 113.268 61.3899 112.638 59.3587 112.177C46.6394 109.218 32.9286 111.983 21.9261 118.847C15.5906 122.776 10.9478 127.845 7.58663 133.933Z" stroke="#507062" stroke-width="1.5" stroke-linecap="round" stroke-linejoin="round"/>
<path d="M86.7565 187.002C86.2487 180.914 81.8235 175.505 76.1893 173.152C70.555 170.8 63.9777 171.333 58.416 173.856C52.8543 176.378 48.2841 180.744 44.8262 185.789C42.1904 189.621 40.135 193.89 36.8464 197.164C33.7995 200.172 28.0202 203.179 22.3618 200.147C21.8781 199.905 21.3703 199.59 20.8867 199.226" stroke="#507062" stroke-width="1.5" stroke-linecap="round" stroke-linejoin="round"/>
<path d="M7.24805 134.709C7.34477 134.467 7.48986 134.2 7.61077 133.957C10.1982 129.325 17.4042 126.22 22.2404 128.258C27.2943 130.416 30.8006 135.097 33.7265 139.778C36.6283 144.459 39.3366 149.48 43.6167 152.948C47.6549 156.199 52.8055 157.824 57.9562 158.212C65.3314 158.818 73.3838 156.659 77.8815 150.766C81.5329 146.012 82.2825 139.487 81.0976 133.618C80.4447 130.489 79.3808 127.166 77.5913 124.522C76.1405 122.364 74.6654 120.229 72.9002 118.338C72.1022 117.513 71.014 116.737 69.8292 116.058C68.3299 115.184 66.6856 114.481 65.3314 114.02" stroke="#507062" stroke-width="1.5" stroke-linecap="round" stroke-linejoin="round"/>
<path d="M71 90.8516C74.425 78.0077 85.3997 64.7985 93.0947 53.8635C96.8974 48.4596 100.664 41.6163 106.351 37.8245" stroke="#507062" stroke-width="1.5" stroke-linecap="round"/>
<path d="M110.035 79.0678C127.625 57.4188 140.171 49.7007 152.671 37.2007C165.171 24.7007 180.019 7.61078 186.63 1" stroke="#507062" stroke-width="1.5" stroke-linecap="round"/>
<path d="M119.609 125.467C123.847 121.229 128.363 116.915 133.644 114.01C140.196 110.407 144.707 105.072 152.015 102.635" stroke="#507062" stroke-width="1.5" stroke-linecap="round"/>
</svg>
