<svg width="171" height="258" viewBox="0 0 171 258" fill="none" xmlns="http://www.w3.org/2000/svg">
<path d="M17.7971 82.2728C28.3455 89.8846 34.3087 103.421 32.7761 116.326C32.4541 119.057 31.823 121.749 31.1017 124.402C30.7926 125.535 30.4706 126.656 30.1229 127.763H30.1358C32.5829 127.21 35.9959 126.527 38.0953 127.905C39.3446 128.729 40.1303 130.107 40.697 131.498C41.5084 133.482 41.9978 135.607 42.1137 137.745L42.2683 137.797C46.9822 121.208 47.8194 103.022 43.582 87.1413C40.7099 76.3482 33.639 66.1348 23.2066 62.1421C17.6683 60.0299 11.0354 59.9139 6.16692 63.3013C1.31133 66.6886 -0.775173 74.1201 2.79246 78.8598C4.82743 81.5645 8.27916 82.9683 11.6665 83.11C13.7401 83.2002 15.8008 82.8524 17.7971 82.2728Z" fill="#F6B97B"/>
<path d="M7.72658 193.41C7.63642 196.089 7.73946 198.781 7.91977 201.447C8.43496 209.291 9.59411 217.25 13.1617 224.231C16.7294 231.225 23.0404 237.175 30.7552 238.631L30.9742 238.489C30.0468 237.072 29.1839 235.578 28.3854 234.045C25.6807 228.881 22.9244 223.587 22.0358 217.817C21.9842 217.444 21.9327 217.057 21.8812 216.684C19.125 212.459 17.6953 200.842 18.7515 193.05C19.1507 190.1 19.7432 187.164 20.619 184.305C23.2722 175.611 28.3854 167.999 32.8932 160.207C36.8344 153.407 40.0027 145.782 42.2695 137.797L42.115 137.745C41.9991 135.607 41.5096 133.482 40.6982 131.498C40.1315 130.107 39.3459 128.729 38.0965 127.905C35.9972 126.527 32.5841 127.21 30.137 127.763H30.1241C26.93 138.299 22.332 148.293 17.6825 158.223C12.5049 169.3 8.11296 181.059 7.72658 193.41Z" fill="white"/>
<path d="M144.854 252.541C145.91 253.081 147.326 252.682 148.125 251.768C148.524 251.304 148.782 250.725 148.924 250.119H148.962C150.804 250.57 153.019 251.111 154.075 249.012C154.346 248.496 154.41 247.904 154.41 247.324C154.423 242.147 149.529 240.421 147.468 236.299C145.407 232.217 145.395 227.31 145.845 222.879C148.202 199.631 160.605 178.367 163.349 155.171C164.057 149.195 164.109 143.167 164.173 137.166C164.25 127.751 164.34 118.245 162.473 109.024C161.983 106.667 161.301 104.233 160.992 101.837C160.476 103.151 159.936 104.477 159.395 105.817C159.304 106.577 159.034 107.208 158.622 107.697C156.806 112.102 154.887 116.558 152.852 120.899C152.311 122.096 151.744 123.268 151.165 124.441C150.237 126.372 149.284 128.266 148.305 130.12C145.961 134.577 143.321 139.033 142.6 144.017C137.113 136.547 128.368 132.349 119.996 128.356C111.637 124.376 102.338 120.242 97.1477 112.578C96.4394 112.269 95.7567 111.947 95.0741 111.587L94.9711 111.78C94.4301 116.352 95.1772 120.963 95.3832 125.574C95.5893 130.172 95.1772 135.028 92.627 138.878C91.455 140.656 89.8708 142.124 88.3124 143.58C85.3501 146.336 82.3878 149.105 79.4126 151.861C76.1025 154.952 72.6895 158.108 68.5294 159.911C62.0123 162.731 54.5808 161.907 47.5357 161.031C46.6857 161.83 45.8356 162.641 44.9856 163.453C39.4989 168.695 33.9478 173.988 29.8521 180.376C24.0563 189.392 21.4417 199.76 21.5963 210.399C21.6221 212.485 21.6478 214.597 21.8796 216.684C21.9312 217.057 21.9827 217.444 22.0342 217.817C22.9229 223.587 25.6791 228.881 28.3838 234.046C29.1824 235.578 30.0453 237.072 30.9726 238.489C33.9735 243.113 37.7601 247.015 43.0794 249.346C54.6839 254.472 68.0013 250.274 80.6619 249.295C85.9683 248.883 91.3133 249.063 96.6326 249.449C105.648 250.132 114.612 251.42 123.435 253.339C124.208 253.841 125.006 254.305 125.818 254.743C127.737 255.786 129.965 256.701 132.064 256.082C132.682 255.889 133.249 255.503 133.687 255.013C135.683 256.688 138.452 256.134 139.586 254.782L139.663 254.859C142.226 256.031 144.21 254.46 144.854 252.541ZM38.4556 233.067C34.3342 229.937 33.2008 224.154 33.6516 218.989C34.2955 211.751 38.0821 200.417 45.4106 197.532C54.0914 194.106 63.6223 197.519 69.1347 204.796C72.522 209.278 74.2865 214.855 74.6858 220.458C74.8146 222.183 74.8017 223.961 74.2608 225.609C73.7327 227.232 72.7023 228.662 71.5689 229.95C69.0317 232.835 65.8118 235.192 62.1282 236.364C60.0546 236.364 58.2386 237.098 56.0491 236.905C53.6664 236.699 51.2837 236.402 48.9138 236.158C45.2431 235.758 41.3793 235.295 38.4556 233.067Z" fill="white"/>
<path d="M33.6522 218.989C33.2014 224.154 34.3348 229.937 38.4563 233.067C41.3799 235.295 45.2438 235.758 48.9145 236.158C51.2843 236.402 53.667 236.699 56.0497 236.905C58.2393 237.098 60.0553 236.364 62.1289 236.364C65.8124 235.192 69.0323 232.835 71.5696 229.95C72.703 228.662 73.7334 227.232 74.2614 225.609C74.8024 223.961 74.8152 222.183 74.6864 220.458C74.2872 214.855 72.5227 209.278 69.1354 204.796C63.6229 197.519 54.092 194.106 45.4112 197.532C38.0828 200.417 34.2962 211.751 33.6522 218.989Z" fill="#F6B97B"/>
<path d="M63.3522 145.962C58.0716 150.985 52.8039 156.008 47.5361 161.031C54.5812 161.907 62.0127 162.731 68.5298 159.911C72.6899 158.107 76.103 154.952 79.413 151.861C82.3882 149.105 85.3505 146.336 88.3128 143.579C89.8712 142.124 91.4554 140.656 92.6274 138.878C95.1776 135.027 95.5897 130.172 95.3836 125.574C95.1776 120.963 94.4306 116.352 94.9715 111.78L95.0745 111.587C92.7047 110.402 90.4637 108.946 88.4158 107.259C87.218 114.291 82.8905 121.336 78.666 127.068C73.9263 133.508 69.148 140.437 63.3522 145.962Z" fill="#F6B97B"/>
<path d="M140.5 70.4108C139.921 70.7328 139.212 70.7199 138.542 70.6813C137.783 70.6555 137.036 70.6297 136.289 70.5911C134.949 70.5396 133.468 70.4237 132.541 69.4448C131.394 68.2341 131.703 66.1863 132.657 64.8211C133.751 63.2755 135.477 62.3095 137.203 61.5239C138.027 61.1375 139.289 60.7382 140.436 60.7382C141.659 60.7382 142.741 61.2019 142.986 62.6702C143.192 63.8937 142.02 66.2636 141.853 67.6159C141.737 68.6205 141.543 69.7539 140.706 70.3077C140.642 70.3593 140.577 70.3979 140.5 70.4108ZM82.7483 101.386C83.7658 102.713 84.8734 103.962 86.0583 105.134C86.8053 105.881 87.591 106.589 88.4153 107.246C90.4631 108.946 92.7042 110.402 95.074 111.587C95.7566 111.947 96.4392 112.269 97.1476 112.566C101.05 114.266 105.249 115.283 109.486 115.528C113.878 115.785 118.283 115.244 122.649 114.704C128.561 113.969 134.563 113.222 140.101 111.02C145.137 109.011 149.619 105.881 153.831 102.429C154.681 101.76 155.505 101.051 156.329 100.343C158.158 98.7587 159.974 97.1358 161.571 95.3456C162.717 94.0834 163.748 92.7439 164.624 91.2885C166.491 88.1588 167.534 84.604 168.372 81.0622C169.814 74.8671 170.638 68.3758 169.363 62.1421C169.273 61.6784 169.157 61.2277 169.041 60.7769C167.779 61.2921 166.556 61.8459 165.345 62.4641C165.461 62.6444 165.551 62.8376 165.628 63.0437C165.976 63.971 166.04 64.9885 165.95 65.9802C165.68 68.8781 164.057 71.6215 161.623 73.2185C159.201 74.8285 156.033 75.2664 153.264 74.3777C152.272 74.0557 151.332 73.5663 150.572 72.845C149.593 71.9177 148.988 70.6684 148.704 69.3289C148.614 68.891 148.55 68.4402 148.524 67.9894C148.331 64.6794 149.941 61.3951 152.375 59.1927C153.509 58.1752 154.848 57.8146 156.252 57.8403C157.115 56.7069 157.926 55.5349 158.635 54.2856C159.085 53.4871 159.51 52.6628 160.064 51.9415C160.953 50.7695 162.151 49.9065 163.284 48.9663C159.897 44.2782 155.608 40.1825 151.293 36.4474C149.606 34.9791 146.94 33.4851 145.987 31.5017C142.432 24.0315 141.634 14.3203 140.243 6.18046C139.908 4.22277 139.367 1.94309 137.538 1.15744C135.207 0.152835 132.785 2.3166 131.266 4.35157C127.634 9.16852 124.645 14.4749 122.366 20.0646C121.606 21.9579 120.807 24.7785 119.12 26.0922C117.729 27.1741 115.823 26.9938 114.084 27.2514C109.641 27.934 105.236 28.8485 101.14 30.7933C96.6067 32.9442 92.4208 35.8292 88.8274 39.3324C88.3766 39.7703 87.913 40.2211 87.3334 40.4529C86.9341 40.6075 86.4962 40.6461 86.0583 40.6719C80.4686 40.981 75.0849 39.1264 69.624 38.2377C65.7601 37.6066 58.9469 36.705 55.8429 39.7961C54.3489 41.2644 53.9238 43.5827 54.2716 45.6434C54.6322 47.717 55.6626 49.5974 56.7573 51.3877C59.7969 56.3463 63.4289 60.9443 67.5633 65.04C70.1006 67.5515 72.9212 69.9986 74.1834 73.3473C75.2009 76.0391 75.0849 79.0014 75.291 81.8865C75.8062 88.9316 78.4594 95.7835 82.7483 101.386ZM115.527 94.9978C114.226 97.5094 111.817 99.467 109.035 100.047C108.945 100.06 108.855 100.085 108.765 100.098C106.807 100.433 104.798 100.175 102.879 99.7118C101.797 99.4542 100.715 99.1322 99.775 98.5526C98.0363 97.4965 96.8643 95.6805 96.3491 93.7099C96.2976 93.5553 96.2589 93.4137 96.2332 93.2591C95.7953 91.1211 96.0657 88.8801 96.6968 86.7936C96.9673 85.8791 97.3279 84.9776 97.8173 84.1661C98.2295 83.4706 98.7318 82.8524 99.35 82.3501C100.445 81.4614 101.836 81.0235 103.214 80.7015C105.416 80.1864 107.632 80.328 109.615 81.0107C111.933 81.7963 113.917 83.329 115.166 85.3897C116.274 87.2186 116.815 89.4725 116.48 92.0098C116.351 93.053 116.016 94.0705 115.527 94.9978Z" fill="white"/>
<path d="M96.6967 86.7935C96.0656 88.88 95.7952 91.1211 96.2331 93.2591C96.2588 93.4136 96.2975 93.5553 96.349 93.7099C100.239 91.662 104.193 89.743 108.25 88.0429C110.529 87.0898 112.835 86.2011 115.166 85.3897C113.917 83.3289 111.933 81.7963 109.615 81.0106C105.635 81.9122 101.707 82.9683 97.8173 84.1661C97.3278 84.9775 96.9672 85.8791 96.6967 86.7935Z" fill="#F6B97B"/>
<path d="M97.149 112.566C102.339 120.242 111.638 124.376 119.997 128.356C128.369 132.349 137.114 136.547 142.601 144.017C143.322 139.033 145.962 134.577 148.307 130.12C149.285 128.266 150.238 126.372 151.166 124.44L151.101 124.415C149.878 124.518 148.603 124.518 147.482 124.028C146.362 123.526 145.434 122.418 145.486 121.195C145.537 120.293 146.078 119.508 146.632 118.799C146.967 118.387 147.315 117.962 147.778 117.692C148.68 117.176 149.813 117.357 150.844 117.537C151.32 117.627 151.823 117.73 152.17 118.065C152.827 118.709 152.621 119.791 152.351 120.667L152.853 120.899C154.888 116.558 156.807 112.102 158.623 107.697C157.953 108.534 156.949 108.985 155.905 108.985C154.708 108.985 153.484 108.38 152.724 107.079C152.054 105.894 152.557 104.348 153.433 103.305C153.626 103.073 153.832 102.867 154.051 102.7L153.832 102.429C149.62 105.881 145.138 109.011 140.102 111.02C134.564 113.222 128.562 113.969 122.65 114.704C118.284 115.244 113.879 115.785 109.488 115.528C105.25 115.283 101.051 114.266 97.149 112.566ZM108.032 121.414C107.71 120.873 107.8 120.164 108.032 119.572C109.629 115.554 114.588 116.674 115.876 120.177C115.992 120.486 116.095 120.821 116.069 121.143C116.03 121.491 115.863 121.813 115.683 122.096C115.219 122.843 114.627 123.539 113.841 123.925C113.042 124.325 112.051 124.35 111.329 123.848C110.969 123.603 110.711 123.243 110.363 122.972C109.616 122.393 108.509 122.238 108.032 121.414ZM126.179 117.911C126.141 116.687 126.759 115.463 127.764 114.768C130.069 113.145 134.654 114.485 135.337 117.344C135.762 119.16 134.667 121.195 132.928 121.839C132.4 122.045 131.808 122.122 131.241 122.122C130.018 122.122 128.794 121.774 127.841 121.027C126.888 120.28 126.231 119.134 126.179 117.911ZM130.971 131.37C129.915 128.394 133.302 126.205 135.852 126.347C136.354 126.372 136.869 126.463 137.32 126.694C138.428 127.248 138.969 128.549 139.149 129.798C139.239 130.455 139.239 131.176 138.892 131.743C138.647 132.142 138.273 132.426 137.874 132.658C135.929 133.778 131.911 133.997 130.971 131.37Z" fill="#C97155"/>
<path d="M99.3502 82.3501C98.732 82.8524 98.2297 83.4706 97.8176 84.1661C101.707 82.9683 105.635 81.9122 109.615 81.0107C107.632 80.328 105.417 80.1864 103.214 80.7015C101.836 81.0235 100.445 81.4614 99.3502 82.3501Z" fill="#F6B97B"/>
<path d="M96.3491 93.7098C96.8643 95.6804 98.0363 97.4964 99.775 98.5526C100.715 99.1321 101.797 99.4541 102.879 99.7117C104.798 100.175 106.807 100.433 108.765 100.098C111.096 98.5268 113.324 96.7623 115.527 94.9978C116.016 94.0705 116.351 93.053 116.48 92.0097C116.815 89.4725 116.274 87.2185 115.166 85.3896C112.835 86.2011 110.529 87.0898 108.25 88.0428C104.193 89.7429 100.239 91.662 96.3491 93.7098Z" fill="#F6B97B"/>
<path d="M108.031 119.572C107.8 120.164 107.709 120.873 108.031 121.414C108.508 122.238 109.616 122.393 110.363 122.972C110.71 123.243 110.968 123.603 111.329 123.848C112.05 124.35 113.042 124.325 113.84 123.925C114.626 123.539 115.218 122.843 115.682 122.096C115.862 121.813 116.03 121.491 116.068 121.143C116.094 120.821 115.991 120.486 115.875 120.177C114.587 116.674 109.628 115.554 108.031 119.572Z" fill="white"/>
<path d="M127.763 114.768C126.758 115.463 126.14 116.687 126.179 117.91C126.23 119.134 126.887 120.28 127.84 121.027C128.793 121.774 130.017 122.122 131.24 122.122C131.807 122.122 132.399 122.045 132.928 121.839C134.666 121.195 135.761 119.16 135.336 117.344C134.653 114.484 130.068 113.145 127.763 114.768Z" fill="white"/>
<path d="M135.851 126.347C133.301 126.205 129.914 128.394 130.97 131.37C131.91 133.997 135.929 133.778 137.874 132.658C138.273 132.426 138.646 132.142 138.891 131.743C139.239 131.176 139.239 130.455 139.149 129.798C138.968 128.549 138.427 127.248 137.32 126.694C136.869 126.463 136.354 126.372 135.851 126.347Z" fill="white"/>
<path d="M140.502 70.4107C140.579 70.3978 140.643 70.3592 140.708 70.3077C141.545 69.7538 141.738 68.6204 141.854 67.6158C142.022 66.2635 143.194 63.8936 142.988 62.6701C142.743 61.2018 141.661 60.7382 140.437 60.7382C139.291 60.7382 138.029 61.1374 137.205 61.5238C135.479 62.3095 133.753 63.2754 132.658 64.821C131.705 66.1862 131.396 68.2341 132.542 69.4447C133.47 70.4236 134.951 70.5395 136.29 70.591C137.037 70.6297 137.784 70.6554 138.544 70.6812C139.214 70.7198 139.922 70.7327 140.502 70.4107Z" fill="#C97155"/>
<path d="M145.486 121.195C145.435 122.418 146.362 123.526 147.483 124.028C148.603 124.518 149.878 124.518 151.102 124.415L151.166 124.441C151.746 123.269 152.313 122.096 152.854 120.899L152.351 120.667C152.622 119.791 152.828 118.709 152.171 118.065C151.823 117.73 151.321 117.627 150.844 117.537C149.814 117.357 148.681 117.177 147.779 117.692C147.315 117.962 146.968 118.387 146.633 118.799C146.079 119.508 145.538 120.293 145.486 121.195Z" fill="white"/>
<path d="M156.254 57.8403C154.85 57.8145 153.51 58.1751 152.377 59.1926C149.943 61.395 148.333 64.6793 148.526 67.9894C148.552 68.4401 148.616 68.8909 148.706 69.3288L150.329 69.1743C150.561 68.028 151.604 67.2552 152.532 66.5597C153.124 66.1218 153.704 65.6582 154.283 65.1945C155.996 63.7777 157.658 62.2837 159.293 60.7897C159.925 60.223 160.543 59.6563 161.174 59.0896L161.161 59.0767C159.603 58.4198 157.89 57.866 156.254 57.8403Z" fill="#F6B97B"/>
<path d="M157.271 67.4485L154.283 65.1946C153.703 65.6582 153.124 66.1219 152.531 66.5598C151.604 67.2553 150.56 68.0281 150.329 69.1744L148.706 69.3289C148.989 70.6684 149.595 71.9177 150.573 72.845C151.333 73.5663 152.273 74.0557 153.265 74.3777C156.034 75.2664 159.203 74.8285 161.624 73.2185C164.058 71.6215 165.681 68.8781 165.952 65.9802C166.042 64.9885 165.977 63.971 165.63 63.0437C165.552 62.8376 165.462 62.6444 165.346 62.4641C162.513 63.8809 159.808 65.5552 157.271 67.4485Z" fill="#F6B97B"/>
<path d="M153.431 103.305C152.556 104.348 152.053 105.894 152.723 107.079C153.483 108.38 154.706 108.985 155.904 108.985C156.947 108.985 157.952 108.534 158.622 107.697C158.879 107.066 159.137 106.448 159.395 105.817C159.395 105.791 159.407 105.752 159.407 105.714C159.704 102.519 156.342 100.909 154.05 102.7C153.831 102.867 153.625 103.073 153.431 103.305Z" fill="white"/>
<path d="M153.832 102.429L154.051 102.7C156.343 100.909 159.705 102.519 159.409 105.713C159.409 105.752 159.396 105.791 159.396 105.817C159.937 104.477 160.478 103.15 160.993 101.837C160.709 99.6086 160.735 97.4191 161.572 95.3455C159.975 97.1357 158.159 98.7585 156.33 100.343C155.506 101.051 154.682 101.759 153.832 102.429Z" fill="#C97155"/>
<path d="M154.282 65.1946L157.27 67.4485C159.807 65.5553 162.512 63.8809 165.346 62.4642C164.509 60.8671 162.86 59.7852 161.173 59.0897C160.542 59.6564 159.923 60.2231 159.292 60.7898C157.657 62.2838 155.995 63.7779 154.282 65.1946Z" fill="#F6B97B"/>
<path d="M88.4154 107.246C87.5911 106.589 86.8055 105.881 86.0585 105.134C84.8735 103.962 83.7659 102.713 82.7484 101.386C78.4595 95.7835 75.8063 88.9316 75.2912 81.8865C75.0851 79.0014 75.201 76.0391 74.1835 73.3473C72.9213 69.9986 70.1007 67.5515 67.5634 65.04C63.4291 60.9443 59.7971 56.3463 56.7575 51.3877C55.6627 49.5974 54.6324 47.717 54.2717 45.6434C53.924 43.5827 54.349 41.2644 55.843 39.7961C58.947 36.705 65.7603 37.6066 69.6242 38.2377C75.0851 39.1264 80.4687 40.981 86.0585 40.6719C86.4964 40.6461 86.9343 40.6075 87.3335 40.4529C87.9131 40.2211 88.3768 39.7703 88.8276 39.3324C92.4209 35.8292 96.6068 32.9442 101.14 30.7933C105.236 28.8485 109.641 27.934 114.084 27.2514C115.823 26.9938 117.729 27.1741 119.12 26.0922C120.807 24.7785 121.606 21.9579 122.366 20.0646C124.646 14.4749 127.634 9.16852 131.266 4.35157C132.785 2.3166 135.207 0.152835 137.538 1.15744C139.367 1.94309 139.908 4.22277 140.243 6.18046C141.634 14.3203 142.432 24.0315 145.987 31.5017C146.94 33.4851 149.606 34.9791 151.293 36.4474C155.608 40.1825 159.897 44.2782 163.284 48.9663C164.495 50.6278 165.59 52.3794 166.53 54.2083C167.599 56.2819 168.462 58.4714 169.041 60.7769C169.157 61.2277 169.273 61.6784 169.363 62.1421C170.651 68.3758 169.814 74.8671 168.372 81.0622C167.534 84.6041 166.491 88.1588 164.624 91.2885C163.748 92.7439 162.718 94.0834 161.571 95.3456C159.974 97.1358 158.158 98.7587 156.329 100.343C155.505 101.051 154.681 101.76 153.831 102.429C149.619 105.881 145.137 109.011 140.101 111.02C134.563 113.222 128.561 113.969 122.649 114.704C118.283 115.244 113.878 115.785 109.486 115.528C105.249 115.283 101.05 114.266 97.1477 112.566C96.4394 112.269 95.7568 111.947 95.0741 111.587C92.7043 110.402 90.4633 108.946 88.4154 107.259" stroke="#537062" stroke-width="1.5" stroke-linecap="round" stroke-linejoin="round"/>
<path d="M61.9613 46.2617C63.4424 45.4374 65.2584 45.373 66.9199 45.7594C68.5814 46.1329 70.114 46.9185 71.6209 47.7042C74.7378 49.3528 77.9577 51.2332 79.6191 54.3243" stroke="#537062" stroke-width="1.5" stroke-linecap="round" stroke-linejoin="round"/>
<path d="M153.754 49.7519C151.384 48.7731 148.538 49.0307 146.361 50.4088C144.197 51.7998 142.781 54.2726 142.665 56.8485" stroke="#537062" stroke-width="1.5" stroke-linecap="round" stroke-linejoin="round"/>
<path d="M120.949 70.2176C118.747 69.2645 116.158 69.2259 113.917 70.1275C111.689 71.029 109.847 72.845 108.92 75.0603" stroke="#537062" stroke-width="1.5" stroke-linecap="round" stroke-linejoin="round"/>
<path d="M141.854 67.6158C141.738 68.6204 141.545 69.7538 140.708 70.3077C140.643 70.3592 140.579 70.3978 140.502 70.4107C139.922 70.7327 139.214 70.7198 138.544 70.6812C137.784 70.6554 137.037 70.6297 136.29 70.591C134.951 70.5395 133.47 70.4236 132.542 69.4447C131.396 68.2341 131.705 66.1862 132.658 64.821C133.753 63.2754 135.479 62.3095 137.205 61.5238C138.029 61.1374 139.291 60.7382 140.437 60.7382C141.661 60.7382 142.743 61.2018 142.988 62.6701C143.194 63.8936 142.022 66.2635 141.854 67.6158Z" stroke="#537062" stroke-width="1.5" stroke-linecap="round" stroke-linejoin="round"/>
<path d="M140.487 70.3849C140.487 70.3849 140.487 70.3978 140.487 70.4106C142.368 74.3132 146.154 80.2249 143.334 84.591C142.561 85.776 141.286 86.5745 139.946 87.0124C138.607 87.4503 137.177 87.592 135.773 87.7208C134.138 87.8624 132.399 87.9912 130.956 87.2313" stroke="#537062" stroke-width="1.5" stroke-linecap="round" stroke-linejoin="round"/>
<path d="M145.188 81.1009C145.909 81.513 146.707 81.8737 147.545 81.8608C148.794 81.835 149.902 80.9463 150.545 79.8645C151.177 78.7826 151.421 77.5204 151.666 76.2839" stroke="#537062" stroke-width="1.5" stroke-linecap="round" stroke-linejoin="round"/>
<path d="M133.494 77.5332C130.364 77.7393 127.235 78.0484 124.118 78.4476C119.249 79.0659 114.407 79.9288 109.615 81.0107C105.636 81.9123 101.707 82.9684 97.8178 84.1662C93.4001 85.5314 89.0468 87.0898 84.7708 88.8286" stroke="#537062" stroke-width="1.5" stroke-linecap="round" stroke-linejoin="round"/>
<path d="M131.01 80.9977C125.639 82.0924 120.333 83.5736 115.168 85.3896C112.837 86.201 110.531 87.0897 108.252 88.0428C104.195 89.7429 100.241 91.6619 96.3509 93.7098C91.7529 96.1312 87.2322 98.7328 82.7501 101.386C81.2432 102.275 79.7363 103.163 78.2423 104.065" stroke="#537062" stroke-width="1.5" stroke-linecap="round" stroke-linejoin="round"/>
<path d="M131.924 84.7843C125.729 86.7549 120.654 90.8892 115.528 94.9978C113.326 96.7623 111.098 98.5268 108.766 100.098C108.65 100.175 108.522 100.266 108.406 100.343" stroke="#537062" stroke-width="1.5" stroke-linecap="round" stroke-linejoin="round"/>
<path d="M153.226 61.5497C154.257 60.3261 155.287 59.1025 156.253 57.8403C157.116 56.7069 157.927 55.5349 158.636 54.2856C159.086 53.4871 159.511 52.6628 160.065 51.9415C160.954 50.7695 162.152 49.9065 163.285 48.9663C163.929 48.4383 164.534 47.8845 165.062 47.2405" stroke="#537062" stroke-width="1.5" stroke-linecap="round" stroke-linejoin="round"/>
<path d="M161.173 59.0767C162.95 57.4539 164.74 55.831 166.531 54.2082C166.904 53.8605 167.291 53.5256 167.664 53.1779" stroke="#537062" stroke-width="1.5" stroke-linecap="round" stroke-linejoin="round"/>
<path d="M150.329 69.1744C150.561 68.0281 151.604 67.2554 152.532 66.5599C153.124 66.122 153.704 65.6583 154.283 65.1946C155.996 63.7779 157.658 62.2838 159.293 60.7898C159.925 60.2231 160.543 59.6564 161.174 59.0897" stroke="#537062" stroke-width="1.5" stroke-linecap="round" stroke-linejoin="round"/>
<path d="M155.724 68.6462C156.24 68.2341 156.755 67.8348 157.27 67.4484C159.807 65.5551 162.512 63.8808 165.345 62.464C166.556 61.8458 167.78 61.292 169.042 60.7768C169.093 60.751 169.132 60.7382 169.184 60.7124" stroke="#537062" stroke-width="1.5" stroke-linecap="round" stroke-linejoin="round"/>
<path d="M156.253 57.8403C157.889 57.866 159.602 58.4198 161.16 59.0767H161.173C162.86 59.7851 164.509 60.867 165.346 62.464C165.462 62.6443 165.552 62.8375 165.63 63.0436C165.977 63.9709 166.042 64.9884 165.952 65.9801C165.681 68.878 164.058 71.6214 161.624 73.2185C159.203 74.8284 156.034 75.2663 153.265 74.3776C152.273 74.0556 151.333 73.5662 150.573 72.8449C149.595 71.9176 148.989 70.6683 148.706 69.3288C148.616 68.8909 148.551 68.4401 148.526 67.9894C148.332 64.6793 149.942 61.395 152.377 59.1926C153.51 58.1751 154.849 57.8145 156.253 57.8403Z" stroke="#537062" stroke-width="1.5" stroke-linecap="round" stroke-linejoin="round"/>
<path d="M115.166 85.3897C116.274 87.2186 116.815 89.4725 116.48 92.0098C116.351 93.053 116.016 94.0705 115.527 94.9978C114.226 97.5094 111.817 99.4671 109.035 100.047C108.945 100.06 108.855 100.085 108.765 100.098C106.807 100.433 104.798 100.175 102.879 99.7118C101.797 99.4542 100.715 99.1322 99.775 98.5526C98.0363 97.4965 96.8643 95.6805 96.3491 93.7099C96.2976 93.5553 96.2589 93.4137 96.2332 93.2591C95.7953 91.1211 96.0657 88.8801 96.6968 86.7936C96.9673 85.8791 97.3279 84.9776 97.8174 84.1661C98.2295 83.4706 98.7318 82.8524 99.35 82.3501C100.445 81.4614 101.836 81.0235 103.214 80.7015C105.416 80.1864 107.632 80.328 109.615 81.0107C111.933 81.7963 113.917 83.329 115.166 85.3897Z" stroke="#537062" stroke-width="1.5" stroke-linecap="round" stroke-linejoin="round"/>
<path d="M161.571 95.3455C160.734 97.4191 160.708 99.6086 160.992 101.837C161.301 104.232 161.983 106.667 162.473 109.024C164.34 118.245 164.25 127.75 164.173 137.165C164.109 143.167 164.057 149.195 163.349 155.171C160.605 178.367 148.202 199.631 145.845 222.879C145.395 227.309 145.407 232.216 147.468 236.299C149.529 240.421 154.423 242.147 154.41 247.324C154.41 247.904 154.346 248.496 154.075 249.011C153.019 251.111 150.804 250.57 148.962 250.119" stroke="#537062" stroke-width="1.5" stroke-linecap="round" stroke-linejoin="round"/>
<path d="M139.56 158.764C135.271 165.114 134.035 172.996 132.966 180.582C132.296 185.412 131.627 190.242 131.33 195.11C130.545 207.578 132.116 220.071 134.087 232.41C134.512 235.076 134.988 237.845 136.521 240.073C137.873 242.069 139.934 243.447 141.711 245.07C143.489 246.693 145.111 248.805 145.086 251.214C145.086 251.652 145.008 252.103 144.854 252.54C144.21 254.459 142.226 256.031 139.663 254.859" stroke="#537062" stroke-width="1.5" stroke-linecap="round" stroke-linejoin="round"/>
<path d="M138.465 249.333C139.972 250.441 140.719 252.605 139.908 254.292C139.83 254.46 139.714 254.627 139.586 254.782C138.452 256.134 135.683 256.688 133.687 255.013" stroke="#537062" stroke-width="1.5" stroke-linecap="round" stroke-linejoin="round"/>
<path d="M134.048 250.982C135.117 252.09 134.743 253.854 133.687 255.013C133.249 255.503 132.682 255.889 132.064 256.082C129.965 256.701 127.737 255.786 125.818 254.743C125.006 254.305 124.208 253.841 123.435 253.339C120.73 251.652 118.206 249.656 115.952 247.402C114.471 245.933 113.054 244.285 112.487 242.276C111.985 240.511 112.178 238.644 112.217 236.815C112.243 235.321 112.165 233.839 111.998 232.358C111.56 228.34 110.542 224.373 109.499 220.445C107.516 212.936 105.455 205.401 102.299 198.305C100.651 194.621 98.719 191.066 97.0962 187.383C93.0005 178.032 90.9397 167.793 91.12 157.593" stroke="#537062" stroke-width="1.5" stroke-linecap="round" stroke-linejoin="round"/>
<path d="M147.558 244.401C148.151 245.573 148.743 246.77 148.962 248.058C149.078 248.741 149.078 249.449 148.924 250.119C148.782 250.724 148.524 251.304 148.125 251.768C147.327 252.682 145.91 253.081 144.854 252.541C144.764 252.502 144.673 252.45 144.583 252.386" stroke="#537062" stroke-width="1.5" stroke-linecap="round" stroke-linejoin="round"/>
<path d="M161.135 101.476C161.083 101.592 161.045 101.721 160.993 101.837C160.478 103.151 159.937 104.477 159.396 105.817C159.138 106.448 158.881 107.066 158.623 107.697C156.807 112.102 154.888 116.558 152.853 120.899C152.312 122.096 151.746 123.268 151.166 124.44C150.239 126.372 149.286 128.266 148.307 130.12C145.963 134.577 143.322 139.033 142.601 144.017C137.114 136.547 128.369 132.348 119.997 128.356C111.639 124.376 102.34 120.242 97.1492 112.578" stroke="#537062" stroke-width="1.5" stroke-linecap="round" stroke-linejoin="round"/>
<path d="M88.4155 107.246C87.2177 114.291 82.8901 121.336 78.6657 127.068C73.926 133.508 69.1477 140.437 63.3519 145.962C58.0713 150.985 52.8035 156.008 47.5358 161.031C46.6857 161.83 45.8357 162.641 44.9856 163.453C39.499 168.695 33.9479 173.988 29.8522 180.376C24.0564 189.392 21.4418 199.76 21.5964 210.399C21.6221 212.485 21.6479 214.597 21.8797 216.684C21.9312 217.057 21.9828 217.444 22.0343 217.817C22.923 223.587 25.6792 228.881 28.3839 234.045C29.1824 235.578 30.0454 237.072 30.9727 238.489C33.9736 243.113 37.7602 247.015 43.0795 249.346C54.6839 254.472 68.0014 250.274 80.662 249.295C85.9684 248.883 91.3134 249.063 96.6326 249.449C105.648 250.132 114.612 251.42 123.435 253.339C123.512 253.352 123.602 253.378 123.68 253.39" stroke="#537062" stroke-width="1.5" stroke-linecap="round" stroke-linejoin="round"/>
<path d="M69.1354 204.796C72.5227 209.278 74.2872 214.855 74.6864 220.458C74.8152 222.183 74.8024 223.961 74.2614 225.609C73.7334 227.232 72.703 228.662 71.5696 229.95C69.0323 232.835 65.8124 235.192 62.1289 236.364C60.0553 236.364 58.2393 237.098 56.0497 236.905C53.667 236.699 51.2843 236.402 48.9145 236.158C45.2438 235.758 41.3799 235.295 38.4563 233.067C34.3348 229.937 33.2014 224.154 33.6522 218.989C34.2962 211.751 38.0828 200.417 45.4112 197.532C54.092 194.106 63.6229 197.519 69.1354 204.796Z" stroke="#537062" stroke-width="1.5" stroke-linecap="round" stroke-linejoin="round"/>
<path d="M94.9715 111.78C94.4306 116.352 95.1776 120.963 95.3836 125.574C95.5897 130.172 95.1776 135.027 92.6274 138.878C91.4554 140.656 89.8712 142.124 88.3128 143.579C85.3505 146.336 82.3882 149.105 79.413 151.861C76.103 154.952 72.6899 158.108 68.5298 159.911C62.0127 162.731 54.5812 161.907 47.5361 161.031C47.5104 161.031 47.4846 161.031 47.4588 161.031" stroke="#537062" stroke-width="1.5" stroke-linecap="round" stroke-linejoin="round"/>
<path d="M53.0743 176.487C61.021 177.221 68.9805 178.805 76.1287 182.347C85.8656 187.164 94.3919 196.708 96.839 207.398C98.8353 216.117 97.8178 225.545 93.9797 233.646C92.8463 236.067 91.4425 238.373 89.7939 240.511" stroke="#537062" stroke-width="1.5" stroke-linecap="round" stroke-linejoin="round"/>
<path d="M93.6583 233.917C93.7614 233.826 93.8644 233.736 93.9803 233.646C95.0236 232.848 96.4274 232.59 97.754 232.41C102.468 231.791 107.272 231.779 111.999 232.358C112.14 232.371 112.282 232.397 112.424 232.41" stroke="#537062" stroke-width="1.5" stroke-linecap="round" stroke-linejoin="round"/>
<path d="M154.05 102.7C153.831 102.867 153.625 103.073 153.431 103.305C152.556 104.348 152.053 105.894 152.723 107.079C153.483 108.38 154.706 108.985 155.904 108.985C156.947 108.985 157.952 108.534 158.622 107.697C159.034 107.208 159.304 106.576 159.395 105.817C159.395 105.791 159.407 105.752 159.407 105.714C159.704 102.519 156.342 100.909 154.05 102.7Z" stroke="#537062" stroke-width="1.5" stroke-linecap="round" stroke-linejoin="round"/>
<path d="M152.35 120.667C152.62 119.791 152.826 118.709 152.169 118.065C151.822 117.73 151.319 117.627 150.843 117.537C149.812 117.357 148.679 117.177 147.778 117.692C147.314 117.962 146.966 118.387 146.631 118.799C146.077 119.508 145.536 120.293 145.485 121.195C145.433 122.418 146.361 123.526 147.481 124.028C148.602 124.518 149.877 124.518 151.1 124.415" stroke="#537062" stroke-width="1.5" stroke-linecap="round" stroke-linejoin="round"/>
<path d="M135.851 126.347C136.354 126.372 136.869 126.463 137.32 126.694C138.427 127.248 138.968 128.549 139.149 129.798C139.239 130.455 139.239 131.176 138.891 131.743C138.646 132.142 138.273 132.426 137.874 132.658C135.929 133.778 131.91 133.997 130.97 131.37C129.914 128.394 133.301 126.205 135.851 126.347Z" stroke="#537062" stroke-width="1.5" stroke-linecap="round" stroke-linejoin="round"/>
<path d="M135.336 117.344C135.761 119.16 134.666 121.195 132.928 121.839C132.399 122.045 131.807 122.122 131.24 122.122C130.017 122.122 128.793 121.774 127.84 121.027C126.887 120.28 126.23 119.134 126.179 117.91C126.14 116.687 126.758 115.463 127.763 114.768C130.068 113.145 134.653 114.484 135.336 117.344Z" stroke="#537062" stroke-width="1.5" stroke-linecap="round" stroke-linejoin="round"/>
<path d="M115.875 120.177C115.991 120.486 116.094 120.821 116.068 121.143C116.03 121.491 115.862 121.813 115.682 122.096C115.218 122.843 114.626 123.539 113.84 123.925C113.042 124.325 112.05 124.35 111.329 123.848C110.968 123.603 110.71 123.243 110.363 122.972C109.616 122.393 108.508 122.238 108.031 121.414C107.709 120.873 107.8 120.164 108.031 119.572C109.628 115.554 114.587 116.674 115.875 120.177Z" stroke="#537062" stroke-width="1.5" stroke-linecap="round" stroke-linejoin="round"/>
<path d="M21.5065 80.9205C20.2958 81.4357 19.0593 81.8993 17.7971 82.2728C15.8008 82.8524 13.7401 83.2002 11.6665 83.11C8.27916 82.9683 4.82743 81.5645 2.79246 78.8598C-0.775173 74.1201 1.31132 66.6886 6.16692 63.3013C11.0354 59.9139 17.6683 60.0299 23.2066 62.1421C33.639 66.1348 40.7099 76.3482 43.582 87.1413C47.8194 103.022 46.9822 121.208 42.2683 137.797C40.0015 145.782 36.8331 153.407 32.892 160.207C28.3841 167.999 23.271 175.611 20.6178 184.305C19.742 187.164 19.1495 190.1 18.7502 193.05C17.6941 200.842 19.1237 212.459 21.88 216.684" stroke="#537062" stroke-width="1.5" stroke-linecap="round" stroke-linejoin="round"/>
<path d="M30.7533 238.631C23.0385 237.175 16.7275 231.225 13.1599 224.231C9.59225 217.251 8.43309 209.291 7.9179 201.447C7.73759 198.781 7.63455 196.09 7.72471 193.411C8.1111 181.059 12.503 169.3 17.6806 158.224C22.3301 148.294 26.9281 138.299 30.1222 127.764C30.47 126.656 30.792 125.535 31.1011 124.402C31.8223 121.749 32.4534 119.057 32.7754 116.326C34.3081 103.421 28.3449 89.8848 17.7965 82.273C17.7321 82.2214 17.6548 82.1699 17.5904 82.1184" stroke="#537062" stroke-width="1.5" stroke-linecap="round" stroke-linejoin="round"/>
<path d="M30.1353 127.763C32.5824 127.21 35.9955 126.527 38.0949 127.905C39.3442 128.729 40.1298 130.107 40.6965 131.498C41.5079 133.482 41.9974 135.607 42.1133 137.745" stroke="#537062" stroke-width="1.5" stroke-linecap="round" stroke-linejoin="round"/>
</svg>
