<svg width="156" height="149" viewBox="0 0 156 149" fill="none" xmlns="http://www.w3.org/2000/svg">
<path d="M98.5947 116.462C97.4747 116.422 96.3447 116.202 95.2747 115.862C93.7047 115.372 92.1847 114.592 91.0847 113.372C89.9847 112.152 89.3247 110.452 89.2447 108.782C89.2447 108.592 89.2347 108.412 89.2247 108.232C89.1547 106.832 89.1147 105.492 89.1147 104.022C90.3647 103.912 91.5947 103.422 92.7747 102.942C94.5147 102.232 96.2647 101.522 97.9747 100.752C99.4147 100.112 100.905 99.3618 101.765 98.0418C103.145 95.9118 102.365 92.8918 100.545 91.1318C99.9647 90.5818 99.3247 90.1318 98.6347 89.7618L101.305 89.1118C103.375 91.0718 105.665 92.8018 108.115 94.2518C115.935 98.8918 125.205 100.782 134.275 100.382C134.135 102.392 133.985 104.392 133.825 106.402V106.842C132.775 106.802 131.735 106.822 130.705 106.902C122.135 107.532 113.435 112.092 109.865 119.902C108.505 122.882 107.905 126.702 109.175 129.822C105.495 129.742 101.805 129.772 98.1247 129.912L98.0347 129.892C98.8047 125.442 98.9947 121.002 98.5947 116.472V116.462Z" fill="white"/>
<path d="M109.175 129.822C107.905 126.702 108.505 122.882 109.865 119.902C113.435 112.092 122.135 107.532 130.705 106.902C131.735 106.822 132.775 106.802 133.815 106.842C140.525 107.092 147.085 109.792 151.125 115.382C155.615 121.622 155.305 128.702 152.445 135.402C151.205 138.302 148.435 140.132 145.355 141.032C144.485 141.282 143.595 141.462 142.705 141.572C141.645 141.702 140.595 141.732 139.585 141.672C138.635 143.152 137.415 144.422 135.845 145.212C134.525 145.882 132.925 146.062 131.475 145.752C130.475 145.552 129.545 145.102 128.845 144.422C128.495 144.082 128.195 143.692 127.975 143.242C126.855 141.002 127.755 138.312 128.845 136.052C127.645 137.522 126.405 139.022 124.775 139.992C123.205 140.922 121.175 141.282 119.545 140.492C119.485 140.472 119.415 140.432 119.355 140.402C118.795 140.092 118.325 139.662 117.955 139.152C117.325 138.312 116.945 137.252 116.805 136.192C116.575 134.502 116.675 132.172 116.985 130.502C116.895 130.672 116.795 130.822 116.695 130.982C115.705 132.462 114.255 133.032 112.865 132.872C111.755 132.742 110.695 132.162 109.945 131.192C109.725 130.922 109.535 130.612 109.375 130.282C109.305 130.132 109.235 129.972 109.175 129.822Z" fill="white"/>
<path d="M109.945 131.191C110.695 132.161 111.755 132.741 112.865 132.871V132.941C112.545 133.171 112.225 133.411 111.915 133.641C111.515 133.951 111.025 134.271 110.545 134.131C110.045 133.991 109.795 133.411 109.765 132.891C109.735 132.371 109.855 131.841 109.765 131.331L109.935 131.191H109.945Z" fill="#507062"/>
<path d="M131.985 67.2815C135.455 77.5415 134.975 89.6815 134.305 99.8915C134.295 100.052 134.285 100.222 134.275 100.382C125.205 100.782 115.935 98.8915 108.115 94.2515C105.665 92.8015 103.375 91.0715 101.305 89.1115C96.7449 84.8015 93.2649 79.3815 91.5849 73.3415C90.8849 70.8215 90.4949 68.2215 90.1949 65.6215C89.0349 55.5815 89.1849 45.4415 89.3349 35.3415L89.3549 35.0815C92.3749 35.3515 95.3449 35.8715 98.0949 36.5415C110.535 39.5815 120.705 48.5215 127.835 58.8615C129.615 61.4415 130.965 64.2815 131.985 67.2815Z" fill="#F7B97C"/>
<path d="M145.355 141.032L145.405 141.202C145.075 141.802 144.745 142.402 144.295 142.922C143.855 143.442 143.285 143.882 142.625 144.052C142.525 144.082 142.415 144.092 142.335 144.052C142.145 143.962 142.155 143.702 142.195 143.492C142.335 142.912 142.505 142.332 142.725 141.772L142.705 141.572C143.595 141.462 144.485 141.282 145.355 141.032Z" fill="#507062"/>
<path d="M154 13.1782C152 31.6782 137.775 54.3482 135.475 57.6782C132.965 61.2982 133 62.6782 131.985 67.2815C130.965 64.2815 129.615 61.4415 127.835 58.8615C120.705 48.5215 110.535 39.5815 98.0952 36.5415C95.3452 35.8715 92.3752 35.3515 89.3552 35.0815C88.8352 35.0315 88.3152 34.9915 87.7852 34.9615V34.7415C121 27.6782 121 10.6782 135 2.67809C139.5 0.678114 145.5 0.178128 150 3.67815C153.19 6.15936 154 8.94148 154 13.1782Z" fill="#C38B58"/>
<path d="M131.475 145.751C130.835 146.551 130.085 147.381 129.075 147.481C128.905 147.501 128.725 147.491 128.595 147.401C128.355 147.231 128.335 146.891 128.355 146.601C128.405 145.931 128.515 145.261 128.675 144.601L128.845 144.421C129.545 145.101 130.475 145.551 131.475 145.751Z" fill="#507062"/>
<path d="M119.545 140.491L119.475 140.641C118.785 141.141 118.035 141.551 117.245 141.851C117.095 141.911 116.915 141.961 116.775 141.891C116.505 141.751 116.575 141.371 116.685 141.101C116.955 140.441 117.295 139.821 117.675 139.231L117.955 139.151C118.325 139.661 118.795 140.091 119.355 140.401C119.415 140.431 119.485 140.471 119.545 140.491Z" fill="#507062"/>
<path d="M100.545 91.1317C102.365 92.8917 103.145 95.9117 101.765 98.0417C100.905 99.3617 99.4149 100.112 97.9749 100.752C96.2649 101.522 94.5149 102.232 92.7749 102.942C91.5949 103.422 90.3649 103.912 89.1149 104.022C88.6749 104.062 88.2349 104.062 87.7949 103.992C86.7249 103.822 85.7549 103.292 84.8049 102.772C82.7149 101.622 80.6349 100.452 78.5649 99.2517C77.7549 98.7817 76.9249 98.2817 76.3849 97.5217C75.4549 96.2017 75.6249 94.3517 76.3849 92.9317C78.4749 89.0017 83.9549 87.9517 88.7949 87.9517C90.5549 87.9517 92.2349 88.0917 93.6249 88.2817C95.3549 88.5117 97.1049 88.9417 98.6349 89.7617C99.3249 90.1317 99.9649 90.5817 100.545 91.1317Z" fill="#C97155"/>
<path d="M78.4749 116.212L78.4149 116.662C78.2549 121.192 79.0649 125.762 80.7349 129.972L80.3749 130.122C76.4849 129.842 72.5649 129.892 68.6849 130.272L68.3449 130.152C69.0849 127.242 67.8349 124.032 66.3149 121.342C63.9049 117.042 60.7449 113.062 56.6449 110.312C53.2449 108.012 49.1449 106.622 45.0649 106.712V106.222C44.6949 104.922 44.3549 103.612 44.0449 102.292L44.3149 102.232C52.2749 100.752 60.4149 99.1118 67.3049 94.8518C75.1849 89.9718 80.8949 81.7118 82.6649 72.6118C85.0049 60.6018 80.7349 48.3518 80.5249 36.1318L80.4249 35.0818C82.8449 34.8218 85.3249 34.8018 87.7849 34.9618C88.3149 34.9918 88.8349 35.0318 89.3549 35.0818L89.3349 35.3418C89.1849 45.4418 89.0349 55.5818 90.1949 65.6218C90.4949 68.2218 90.8849 70.8218 91.5849 73.3418C93.2649 79.3818 96.7449 84.8018 101.305 89.1118L98.6349 89.7618C97.1049 88.9418 95.3549 88.5118 93.6249 88.2818C92.2349 88.0918 90.5549 87.9518 88.7949 87.9518C83.9549 87.9518 78.4749 89.0018 76.3849 92.9318C75.6249 94.3518 75.4549 96.2018 76.3849 97.5218C76.9249 98.2818 77.7549 98.7818 78.5649 99.2518C80.6349 100.452 82.7149 101.622 84.8049 102.772C85.7549 103.292 86.7249 103.822 87.7949 103.992C88.2349 104.062 88.6749 104.062 89.1149 104.022C89.1149 105.492 89.1549 106.832 89.2249 108.232C89.2349 108.412 89.2449 108.592 89.2449 108.782C89.2449 109.372 89.2149 109.972 89.0549 110.542C88.8549 111.212 88.4749 111.832 88.0449 112.382C86.4349 114.472 83.9849 115.882 81.3749 116.242C80.4149 116.372 79.4349 116.362 78.4749 116.212Z" fill="white"/>
<path d="M98.5949 116.472C98.9949 121.002 98.8049 125.442 98.0349 129.892C97.9349 130.562 97.8049 131.232 97.6649 131.902C97.3649 133.312 97.0049 134.732 96.3049 136.002C95.6049 137.262 94.5149 138.362 93.1449 138.812C92.0749 139.162 90.9249 139.102 89.8149 138.952C88.4349 138.772 87.0549 138.442 85.8749 137.702C84.3249 136.732 83.2649 135.152 82.3949 133.542C81.7649 132.392 81.2149 131.192 80.7349 129.972C79.0649 125.762 78.2549 121.192 78.4149 116.662L78.4749 116.212C79.4349 116.362 80.4149 116.372 81.3749 116.242C83.9849 115.882 86.4349 114.472 88.0449 112.382C88.4749 111.832 88.8549 111.212 89.0549 110.542C89.2149 109.972 89.2449 109.372 89.2449 108.782C89.3249 110.452 89.9849 112.152 91.0849 113.372C92.1849 114.592 93.7049 115.372 95.2749 115.862C96.3449 116.202 97.4749 116.422 98.5949 116.462V116.472Z" fill="#C97155"/>
<path d="M61.9249 42.6915C65.1849 40.1815 68.865 38.2215 72.725 36.7915C75.135 35.9015 77.7449 35.3515 80.4249 35.0815L80.5249 36.1315C80.7349 48.3515 85.005 60.6014 82.665 72.6114C80.895 81.7114 75.1849 89.9715 67.3049 94.8515C60.4149 99.1115 52.2749 100.751 44.3149 102.231L44.0449 102.291C42.5249 95.8915 41.6149 89.3514 41.3249 82.7714H41.0849C38.4999 79.6782 34.9999 75.6782 29.4999 72.6782C25.9999 71.5582 19.8149 71.2082 17.7549 68.1782C8.49992 60.6782 7.49992 58.6782 2.49999 46.1782C1.49992 41.6782 0 33.1782 2.49989 24.6782C5.49989 20.6782 8.32494 20.1782 11.5 20.1782C20 21.6782 20.5 26.1782 31.5 32.6782C35 34.1783 43.88 40.1582 46 39.1782C51.5 40.1782 56.2149 42.1715 61.9249 42.6915Z" fill="#F7B97C"/>
<path d="M50.725 138.952C51.045 140.152 50.825 141.402 50.215 142.442C49.705 143.322 48.905 144.042 47.925 144.422C47.685 144.512 47.445 144.592 47.205 144.642C45.255 145.122 43.095 144.562 41.395 143.442C40.125 142.602 39.065 141.482 38.165 140.242L38.135 140.262C37.845 140.622 37.525 140.942 37.165 141.212C36.215 141.962 35.065 142.382 33.845 142.532C31.425 142.822 28.765 142.012 26.925 140.362C23.815 137.572 22.675 133.152 22.485 128.972C22.285 124.502 23.125 119.742 26.085 116.392C27.455 114.832 29.205 113.672 30.935 112.532C34.555 110.142 38.325 107.712 42.605 106.952C43.415 106.802 44.245 106.722 45.065 106.712C49.145 106.622 53.245 108.012 56.645 110.312C60.745 113.062 63.905 117.042 66.315 121.342C67.835 124.032 69.085 127.242 68.345 130.152C68.255 130.502 68.135 130.852 67.985 131.202C67.875 131.452 67.735 131.682 67.585 131.912C67.025 132.702 66.205 133.352 65.335 133.662C64.415 134.002 63.425 133.962 62.635 133.352C62.415 133.182 62.235 132.982 62.075 132.762C62.725 134.852 62.325 137.352 61.125 139.182C60.565 140.032 59.835 140.732 58.955 141.182C58.245 141.552 57.435 141.752 56.535 141.732C54.685 141.682 52.715 141.262 51.435 139.912C51.165 139.622 50.925 139.292 50.725 138.952Z" fill="white"/>
<path d="M67.585 131.912C68.035 132.802 68.355 133.572 68.035 134.512C67.985 134.652 67.915 134.802 67.775 134.842C67.655 134.892 67.515 134.842 67.395 134.792C66.765 134.532 66.165 134.162 65.655 133.702L65.335 133.662C66.205 133.352 67.025 132.702 67.585 131.912Z" fill="#507062"/>
<path d="M61.5151 140.652C61.5551 141.172 61.4651 141.712 61.1451 142.122C61.0951 142.192 61.0251 142.262 60.9451 142.292C60.8551 142.312 60.7551 142.282 60.6751 142.252C60.0551 142.042 59.4851 141.702 59.0051 141.272L58.9551 141.182C59.8351 140.732 60.5651 140.032 61.1251 139.182C61.2951 139.652 61.4651 140.152 61.5151 140.652Z" fill="#507062"/>
<path d="M51.1751 144.011C51.4051 144.601 51.4751 145.271 51.2351 145.851C51.1351 146.091 50.9651 146.321 50.7151 146.401C50.5351 146.461 50.3451 146.431 50.1551 146.391C49.0451 146.151 48.0151 145.581 47.2351 144.761L47.2051 144.641C47.4451 144.591 47.6851 144.511 47.9251 144.421C48.9051 144.041 49.7051 143.321 50.2151 142.441C50.5751 142.941 50.9351 143.441 51.1751 144.011Z" fill="#507062"/>
<path d="M37.2447 141.311C37.5247 141.851 37.6747 142.461 37.6647 143.071C37.6647 143.351 37.6247 143.641 37.4547 143.861C37.2547 144.111 36.8947 144.211 36.5747 144.181C36.2447 144.141 35.9447 144.001 35.6547 143.851C35.0247 143.511 34.4247 143.121 33.8647 142.681L33.8447 142.531C35.0647 142.381 36.2147 141.961 37.1647 141.211L37.2447 141.311Z" fill="#507062"/>
<path d="M61.925 42.6917C24.5001 37.6782 22.5 21.1782 10.0001 20.1785C0.973375 19.4565 0.670012 31.708 1.50005 39.1785C3.11609 53.7231 9.70122 66.4427 24.5001 71.1783C32.2301 73.6283 37.5002 77.6784 41.085 82.7817" stroke="#507062" stroke-width="1.5" stroke-linecap="round" stroke-linejoin="round"/>
<path d="M55.0547 49.7218C56.9847 47.0318 59.3147 44.6818 61.9247 42.6918C65.1847 40.1818 68.8647 38.2218 72.7247 36.7918C75.1347 35.9018 77.7447 35.3518 80.4247 35.0818C82.8447 34.8218 85.3247 34.8018 87.7847 34.9618C88.3147 34.9918 88.8347 35.0318 89.3547 35.0818C92.3747 35.3518 95.3447 35.8718 98.0947 36.5418C110.535 39.5818 120.705 48.5218 127.835 58.8618C129.615 61.4418 130.965 64.2818 131.985 67.2818C135.455 77.5418 134.975 89.6818 134.305 99.8918C134.295 100.052 134.285 100.222 134.275 100.382C134.135 102.392 133.985 104.392 133.825 106.402" stroke="#507062" stroke-width="1.5" stroke-linecap="round" stroke-linejoin="round"/>
<path d="M41.3148 73.7515C41.1848 76.7615 41.1948 79.7715 41.3248 82.7715C41.6148 89.3515 42.5248 95.8915 44.0448 102.291C44.3548 103.611 44.6948 104.921 45.0548 106.221" stroke="#507062" stroke-width="1.5" stroke-linecap="round" stroke-linejoin="round"/>
<path d="M59.415 126.492C60.015 128.002 60.605 129.522 61.205 131.032C61.445 131.632 61.695 132.252 62.075 132.762C62.235 132.982 62.415 133.182 62.635 133.352C63.425 133.962 64.415 134.002 65.335 133.662C66.205 133.352 67.025 132.702 67.585 131.912C67.735 131.682 67.875 131.452 67.985 131.202C68.135 130.852 68.255 130.502 68.345 130.152C69.085 127.242 67.835 124.032 66.315 121.342C63.905 117.042 60.745 113.062 56.645 110.312C53.245 108.012 49.145 106.622 45.065 106.712C44.245 106.722 43.415 106.802 42.605 106.952C38.325 107.712 34.555 110.142 30.935 112.532C29.205 113.672 27.455 114.832 26.085 116.392C23.125 119.742 22.285 124.502 22.485 128.972C22.675 133.152 23.815 137.572 26.925 140.362C28.765 142.012 31.425 142.822 33.845 142.532C35.065 142.382 36.215 141.962 37.165 141.212C37.525 140.942 37.845 140.622 38.135 140.262" stroke="#507062" stroke-width="1.5" stroke-linecap="round" stroke-linejoin="round"/>
<path d="M34.375 133.082C35.075 134.892 35.925 136.652 36.915 138.322C37.305 138.982 37.715 139.622 38.165 140.242C39.065 141.482 40.125 142.602 41.395 143.442C43.095 144.562 45.255 145.122 47.205 144.642C47.445 144.592 47.685 144.512 47.925 144.422C48.905 144.042 49.705 143.322 50.215 142.442C50.825 141.402 51.045 140.152 50.725 138.952" stroke="#507062" stroke-width="1.5" stroke-linecap="round" stroke-linejoin="round"/>
<path d="M48.5151 134.412L49.9851 137.532C50.2151 138.012 50.4451 138.502 50.7251 138.952C50.9251 139.292 51.1651 139.622 51.4351 139.912C52.7151 141.262 54.6851 141.682 56.5351 141.732C57.4351 141.752 58.2451 141.552 58.9551 141.182C59.8351 140.732 60.5651 140.032 61.1251 139.182C62.3251 137.352 62.7251 134.852 62.0751 132.762C62.0651 132.702 62.0451 132.652 62.0251 132.592" stroke="#507062" stroke-width="1.5" stroke-linecap="round" stroke-linejoin="round"/>
<path d="M87.7949 34.7415C100.5 33.6781 108.915 27.2019 117.5 20.1781C123 15.6781 128 6.67781 135 2.67814C142.014 -1.32943 153.015 1.84224 154 12.1784C155 22.6784 143.754 44.191 141 48.1782C138.49 51.7982 133.5 60.1784 131.985 67.2815" stroke="#507062" stroke-width="1.5" stroke-linecap="round" stroke-linejoin="round"/>
<path d="M118.105 127.172C117.835 128.312 117.545 129.472 116.985 130.502C116.895 130.672 116.795 130.822 116.695 130.982C115.705 132.462 114.255 133.032 112.865 132.872C111.755 132.742 110.695 132.162 109.945 131.192C109.725 130.922 109.535 130.612 109.375 130.282C109.305 130.132 109.235 129.972 109.175 129.822C107.905 126.702 108.505 122.882 109.865 119.902C113.435 112.092 122.135 107.532 130.705 106.902C131.735 106.822 132.775 106.802 133.815 106.842C140.525 107.092 147.085 109.792 151.125 115.382C155.615 121.622 155.305 128.702 152.445 135.402C151.205 138.302 148.435 140.132 145.355 141.032C144.485 141.282 143.595 141.462 142.705 141.572C141.645 141.702 140.595 141.732 139.585 141.672C139.555 141.672 139.515 141.662 139.485 141.662" stroke="#507062" stroke-width="1.5" stroke-linecap="round" stroke-linejoin="round"/>
<path d="M116.985 130.501C116.675 132.171 116.575 134.501 116.805 136.191C116.945 137.251 117.325 138.311 117.955 139.151C118.325 139.661 118.795 140.091 119.355 140.401C119.415 140.431 119.485 140.471 119.545 140.491C121.175 141.281 123.205 140.921 124.775 139.991C126.405 139.021 127.645 137.521 128.845 136.051C127.755 138.311 126.855 141.001 127.975 143.241C128.195 143.691 128.495 144.081 128.845 144.421C129.545 145.101 130.475 145.551 131.475 145.751C132.925 146.061 134.525 145.881 135.845 145.211C137.415 144.421 138.635 143.151 139.585 141.671C140.285 140.611 140.845 139.441 141.305 138.271C142.015 136.461 142.535 134.571 142.875 132.651" stroke="#507062" stroke-width="1.5" stroke-linecap="round" stroke-linejoin="round"/>
<path d="M101.055 79.6414C101.815 79.2414 102.005 78.2714 102.405 77.5114C102.955 76.4814 103.975 75.7814 105.035 75.2814C106.875 74.4014 108.945 74.0014 110.985 74.1214C111.835 74.1614 112.715 74.3114 113.455 74.7514C114.335 75.2714 114.935 76.1414 115.425 77.0314C116.285 78.5714 116.915 80.2714 116.975 82.0214" stroke="#507062" stroke-width="1.5" stroke-linecap="round" stroke-linejoin="round"/>
<path d="M80.5249 36.1318C80.7349 48.3518 85.0049 60.6018 82.6649 72.6118C80.8949 81.7118 75.1849 89.9718 67.3049 94.8518C60.4149 99.1118 52.2749 100.752 44.3149 102.232" stroke="#507062" stroke-width="1.5" stroke-linecap="round" stroke-linejoin="round"/>
<path d="M89.3349 35.3418C89.1849 45.4418 89.0349 55.5818 90.1949 65.6218C90.4949 68.2218 90.8849 70.8218 91.5849 73.3418C93.2649 79.3818 96.7449 84.8018 101.305 89.1118C103.375 91.0718 105.665 92.8018 108.115 94.2518C115.935 98.8918 125.205 100.782 134.275 100.382H134.355" stroke="#507062" stroke-width="1.5" stroke-linecap="round" stroke-linejoin="round"/>
<path d="M98.6349 89.7617C97.1049 88.9417 95.3549 88.5117 93.6249 88.2817C92.2349 88.0917 90.5549 87.9517 88.7949 87.9517C83.9549 87.9517 78.4749 89.0017 76.3849 92.9317C75.6249 94.3517 75.4549 96.2017 76.3849 97.5217C76.9249 98.2817 77.7549 98.7817 78.5649 99.2517C80.6349 100.452 82.7149 101.622 84.8049 102.772C85.7549 103.292 86.7249 103.822 87.7949 103.992C88.2349 104.062 88.6749 104.062 89.1149 104.022C90.3649 103.912 91.5949 103.422 92.7749 102.942C94.5149 102.232 96.2649 101.522 97.9749 100.752C99.4149 100.112 100.905 99.3617 101.765 98.0417C103.145 95.9117 102.365 92.8917 100.545 91.1317C99.9649 90.5817 99.3249 90.1317 98.6349 89.7617Z" stroke="#507062" stroke-width="1.5" stroke-linecap="round" stroke-linejoin="round"/>
<path d="M89.1149 104.021C89.1149 105.491 89.1549 106.831 89.2249 108.231C89.2349 108.411 89.2449 108.591 89.2449 108.781C89.2449 109.371 89.2149 109.971 89.0549 110.541C88.8549 111.211 88.4749 111.831 88.0449 112.381C86.4349 114.471 83.9849 115.881 81.3749 116.241C80.4149 116.371 79.4349 116.361 78.4749 116.211C76.8249 115.971 75.2449 115.331 73.9049 114.341C72.0749 112.981 70.7549 111.061 69.1649 109.431C67.5849 107.791 65.5149 106.361 63.2349 106.471" stroke="#507062" stroke-width="1.5" stroke-linecap="round" stroke-linejoin="round"/>
<path d="M89.2451 108.782C89.3251 110.452 89.9851 112.152 91.0851 113.372C92.1851 114.592 93.7051 115.372 95.2751 115.862C96.3451 116.202 97.4751 116.422 98.5951 116.462C99.7951 116.512 100.985 116.352 102.095 115.932C104.425 115.032 106.175 113.082 107.635 111.062C109.095 109.042 110.385 106.862 112.215 105.172" stroke="#507062" stroke-width="1.5" stroke-linecap="round" stroke-linejoin="round"/>
<path d="M78.4149 116.662C78.2549 121.192 79.0649 125.762 80.7349 129.972C81.2149 131.192 81.7649 132.392 82.3949 133.542C83.2649 135.152 84.3249 136.732 85.8749 137.702C87.0549 138.442 88.4349 138.772 89.8149 138.952C90.9249 139.102 92.0749 139.162 93.1449 138.812C94.5149 138.362 95.6049 137.262 96.3049 136.002C97.0049 134.732 97.3649 133.312 97.6649 131.902C97.8049 131.232 97.9349 130.562 98.0349 129.892C98.8049 125.442 98.9949 121.002 98.5949 116.472" stroke="#507062" stroke-width="1.5" stroke-linecap="round" stroke-linejoin="round"/>
<path d="M33.8647 142.682C34.4247 143.122 35.0247 143.512 35.6547 143.852C35.9447 144.002 36.2447 144.142 36.5747 144.182C36.8947 144.212 37.2547 144.112 37.4547 143.862C37.6247 143.642 37.6647 143.352 37.6647 143.072C37.6747 142.462 37.5247 141.852 37.2447 141.312" stroke="#507062" stroke-width="1.5" stroke-linecap="round" stroke-linejoin="round"/>
<path d="M47.2349 144.762C48.0149 145.582 49.0449 146.152 50.1549 146.392C50.3449 146.432 50.5349 146.462 50.7149 146.402C50.9649 146.322 51.1349 146.092 51.2349 145.852C51.4749 145.272 51.4049 144.602 51.1749 144.012C50.9349 143.442 50.5749 142.942 50.2149 142.442C50.2049 142.432 50.2049 142.422 50.1949 142.412" stroke="#507062" stroke-width="1.5" stroke-linecap="round" stroke-linejoin="round"/>
<path d="M59.0049 141.272C59.4849 141.702 60.0549 142.042 60.6749 142.252C60.7549 142.282 60.8549 142.312 60.9449 142.292C61.0249 142.262 61.0949 142.192 61.1449 142.122C61.4649 141.712 61.5549 141.172 61.5149 140.652C61.4649 140.152 61.2949 139.652 61.1249 139.182C61.1249 139.182 61.1216 139.175 61.1149 139.162" stroke="#507062" stroke-width="1.5" stroke-linecap="round" stroke-linejoin="round"/>
<path d="M65.6548 133.702C66.1648 134.162 66.7648 134.532 67.3948 134.792C67.5148 134.842 67.6548 134.892 67.7748 134.842C67.9148 134.802 67.9848 134.652 68.0348 134.512C68.3548 133.572 68.0348 132.802 67.5848 131.912" stroke="#507062" stroke-width="1.5" stroke-linecap="round" stroke-linejoin="round"/>
<path d="M109.775 131.332C109.855 131.842 109.735 132.372 109.775 132.892C109.815 133.412 110.055 133.992 110.555 134.132C111.035 134.272 111.525 133.952 111.925 133.642C112.235 133.412 112.555 133.172 112.865 132.942" stroke="#507062" stroke-width="1.5" stroke-linecap="round" stroke-linejoin="round"/>
<path d="M117.675 139.231C117.295 139.821 116.955 140.441 116.685 141.101C116.575 141.371 116.505 141.751 116.775 141.891C116.915 141.961 117.095 141.911 117.245 141.851C118.035 141.551 118.785 141.141 119.475 140.641" stroke="#507062" stroke-width="1.5" stroke-linecap="round" stroke-linejoin="round"/>
<path d="M128.675 144.602C128.515 145.262 128.405 145.932 128.355 146.602C128.335 146.892 128.355 147.232 128.595 147.402C128.725 147.492 128.905 147.502 129.075 147.482C130.085 147.382 130.835 146.552 131.475 145.752C131.495 145.742 131.505 145.722 131.515 145.712" stroke="#507062" stroke-width="1.5" stroke-linecap="round" stroke-linejoin="round"/>
<path d="M142.725 141.772C142.505 142.332 142.335 142.912 142.195 143.492C142.155 143.702 142.145 143.962 142.335 144.052C142.415 144.092 142.525 144.082 142.625 144.052C143.285 143.882 143.855 143.442 144.295 142.922C144.745 142.402 145.075 141.802 145.405 141.202" stroke="#507062" stroke-width="1.5" stroke-linecap="round" stroke-linejoin="round"/>
<path d="M74.5449 102.821C75.1849 102.821 75.1849 101.821 74.5449 101.821C73.9049 101.821 73.9049 102.821 74.5449 102.821Z" fill="#507062"/>
<path d="M79.6849 105.971C80.3249 105.971 80.3249 104.971 79.6849 104.971C79.0449 104.971 79.0449 105.971 79.6849 105.971Z" fill="#507062"/>
<path d="M75.1249 109.251C75.7649 109.251 75.7649 108.251 75.1249 108.251C74.4849 108.251 74.4849 109.251 75.1249 109.251Z" fill="#507062"/>
<path d="M98.9849 105.711C99.6249 105.711 99.6249 104.711 98.9849 104.711C98.3449 104.711 98.3449 105.711 98.9849 105.711Z" fill="#507062"/>
<path d="M103.615 102.751C104.255 102.751 104.255 101.751 103.615 101.751C102.975 101.751 102.975 102.751 103.615 102.751Z" fill="#507062"/>
<path d="M74.5449 102.821C75.1849 102.821 75.1849 101.821 74.5449 101.821C73.9049 101.821 73.9049 102.821 74.5449 102.821Z" stroke="#507062" stroke-width="1.5"/>
<path d="M79.6849 105.971C80.3249 105.971 80.3249 104.971 79.6849 104.971C79.0449 104.971 79.0449 105.971 79.6849 105.971Z" stroke="#507062" stroke-width="1.5"/>
<path d="M75.1249 109.251C75.7649 109.251 75.7649 108.251 75.1249 108.251C74.4849 108.251 74.4849 109.251 75.1249 109.251Z" stroke="#507062" stroke-width="1.5"/>
<path d="M98.9849 105.711C99.6249 105.711 99.6249 104.711 98.9849 104.711C98.3449 104.711 98.3449 105.711 98.9849 105.711Z" stroke="#507062" stroke-width="1.5"/>
<path d="M103.615 102.751C104.255 102.751 104.255 101.751 103.615 101.751C102.975 101.751 102.975 102.751 103.615 102.751Z" stroke="#507062" stroke-width="1.5"/>
<path d="M74.685 79.2116C74.685 80.2516 74.355 81.1216 73.525 81.5716L73.445 81.4316C73.025 79.5616 72.515 76.9916 71.465 75.4016C70.415 73.8116 68.725 72.5316 66.815 72.4216C65.045 72.3316 63.315 73.2816 62.205 74.6716C61.105 76.0616 59.865 78.1016 59.545 81.2016C59.215 84.4516 60.215 88.6716 60.825 89.9916L61.105 90.2116C59.605 91.1816 57.795 91.7716 57.075 89.5816C56.155 86.7616 55.925 84.0016 56.055 81.6316C56.395 75.9216 60.255 72.4116 62.865 70.9216C65.475 69.4316 68.735 69.4416 71.105 71.4316C72.515 72.6116 74.685 76.5116 74.685 79.2116Z" fill="white"/>
<path d="M73.4451 81.4314L73.5251 81.5714C73.2451 81.7214 72.9151 81.8214 72.5151 81.8714C72.1451 81.9214 71.7751 81.9814 71.4051 82.0814L71.2951 81.6514C71.1151 80.1714 70.7551 78.6714 69.8351 77.5014C68.7651 76.1214 66.8251 75.3914 65.1951 76.2214C63.8651 76.9014 62.9251 78.2214 62.4851 79.6514C62.0351 81.0914 62.0351 82.6214 62.2051 84.1114C62.3751 85.6014 62.7251 87.0714 62.9551 88.5514L63.0451 88.6414L62.9251 88.7614C62.5051 89.1414 61.8451 89.7214 61.1051 90.2114L60.8251 89.9914C60.2151 88.6714 59.2151 84.4514 59.5451 81.2014C59.8651 78.1014 61.1051 76.0614 62.2051 74.6714C63.3151 73.2814 65.0451 72.3314 66.8151 72.4214C68.7251 72.5314 70.4151 73.8114 71.4651 75.4014C72.5151 76.9914 73.0251 79.5614 73.4451 81.4314Z" fill="#507062"/>
<path d="M71.2949 81.6518L71.4049 82.0818C69.6549 82.4918 67.9849 83.3618 66.5349 84.6218C65.2949 85.6918 64.2449 87.4918 63.0449 88.6418L62.9549 88.5518C62.7249 87.0718 62.3749 85.6018 62.2049 84.1118C62.0349 82.6218 62.0349 81.0918 62.4849 79.6518C62.9249 78.2218 63.8649 76.9018 65.1949 76.2218C66.8249 75.3918 68.7649 76.1218 69.8349 77.5018C70.7549 78.6718 71.1149 80.1718 71.2949 81.6518Z" fill="#507062"/>
<path d="M73.525 81.5716C74.355 81.1216 74.685 80.2516 74.685 79.2116C74.685 76.5116 72.515 72.6116 71.105 71.4316C68.735 69.4416 65.475 69.4316 62.865 70.9216C60.255 72.4116 56.395 75.9216 56.055 81.6316C55.925 84.0016 56.155 86.7616 57.075 89.5816C57.795 91.7716 59.605 91.1816 61.105 90.2116C61.845 89.7216 62.505 89.1416 62.925 88.7616L63.045 88.6416C64.245 87.4916 65.295 85.6916 66.535 84.6216C67.985 83.3616 69.655 82.4916 71.405 82.0816C71.775 81.9816 72.145 81.9216 72.515 81.8716C72.915 81.8216 73.245 81.7216 73.525 81.5716Z" stroke="#507062" stroke-width="1.5" stroke-linecap="round" stroke-linejoin="round"/>
<path d="M73.4451 81.4314C73.0251 79.5614 72.5151 76.9914 71.4651 75.4014C70.4151 73.8114 68.7251 72.5314 66.8151 72.4214C65.0451 72.3314 63.3151 73.2814 62.2051 74.6714C61.1051 76.0614 59.8651 78.1014 59.5451 81.2014C59.2151 84.4514 60.2151 88.6714 60.8251 89.9914" stroke="#507062" stroke-width="1.5" stroke-linecap="round" stroke-linejoin="round"/>
<path d="M62.9549 88.5518C62.7249 87.0718 62.3749 85.6018 62.2049 84.1118C62.0349 82.6218 62.0349 81.0918 62.4849 79.6518C62.9249 78.2218 63.8649 76.9018 65.1949 76.2218C66.8249 75.3918 68.7649 76.1218 69.8349 77.5018C70.7549 78.6718 71.1149 80.1718 71.2949 81.6518" stroke="#507062" stroke-width="1.5" stroke-linecap="round" stroke-linejoin="round"/>
<path d="M67.5 80.6782C69.433 80.6782 71 79.1112 71 77.1782C71 75.2452 69.433 73.6782 67.5 73.6782C65.567 73.6782 64 75.2452 64 77.1782C64 79.1112 65.567 80.6782 67.5 80.6782Z" fill="white"/>
<path d="M62 87.6782C63.1046 87.6782 64 86.7828 64 85.6782C64 84.5737 63.1046 83.6782 62 83.6782C60.8954 83.6782 60 84.5737 60 85.6782C60 86.7828 60.8954 87.6782 62 87.6782Z" fill="white"/>
<path d="M100.725 79.2116C100.725 80.2516 101.055 81.1216 101.885 81.5716L101.965 81.4316C102.385 79.5616 102.895 76.9916 103.945 75.4016C104.995 73.8116 106.685 72.5316 108.595 72.4216C110.365 72.3316 112.095 73.2816 113.205 74.6716C114.305 76.0616 115.545 78.1016 115.865 81.2016C116.195 84.4516 115.195 88.6716 114.585 89.9916L114.305 90.2116C115.805 91.1816 117.615 91.7716 118.335 89.5816C119.255 86.7616 119.485 84.0016 119.355 81.6316C119.015 75.9216 115.155 72.4116 112.545 70.9216C109.935 69.4316 106.675 69.4416 104.305 71.4316C102.895 72.6116 100.725 76.5116 100.725 79.2116Z" fill="white"/>
<path d="M101.965 81.4314L101.885 81.5714C102.165 81.7214 102.495 81.8214 102.895 81.8714C103.265 81.9214 103.635 81.9814 104.005 82.0814L104.115 81.6514C104.295 80.1714 104.655 78.6714 105.575 77.5014C106.645 76.1214 108.585 75.3914 110.215 76.2214C111.545 76.9014 112.485 78.2214 112.925 79.6514C113.375 81.0914 113.375 82.6214 113.205 84.1114C113.035 85.6014 112.685 87.0714 112.455 88.5514L112.365 88.6414L112.485 88.7614C112.905 89.1414 113.565 89.7214 114.305 90.2114L114.585 89.9914C115.195 88.6714 116.195 84.4514 115.865 81.2014C115.545 78.1014 114.305 76.0614 113.205 74.6714C112.095 73.2814 110.365 72.3314 108.595 72.4214C106.685 72.5314 104.995 73.8114 103.945 75.4014C102.895 76.9914 102.385 79.5614 101.965 81.4314Z" fill="#507062"/>
<path d="M104.115 81.6518L104.005 82.0818C105.755 82.4918 107.425 83.3618 108.875 84.6218C110.115 85.6918 111.165 87.4918 112.365 88.6418L112.455 88.5518C112.685 87.0718 113.035 85.6018 113.205 84.1118C113.375 82.6218 113.375 81.0918 112.925 79.6518C112.485 78.2218 111.545 76.9018 110.215 76.2218C108.585 75.3918 106.645 76.1218 105.575 77.5018C104.655 78.6718 104.295 80.1718 104.115 81.6518Z" fill="#507062"/>
<path d="M101.885 81.5716C101.055 81.1216 100.725 80.2516 100.725 79.2116C100.725 76.5116 102.895 72.6116 104.305 71.4316C106.675 69.4416 109.935 69.4316 112.545 70.9216C115.155 72.4116 119.015 75.9216 119.355 81.6316C119.485 84.0016 119.255 86.7616 118.335 89.5816C117.615 91.7716 115.805 91.1816 114.305 90.2116C113.565 89.7216 112.905 89.1416 112.485 88.7616L112.365 88.6416C111.165 87.4916 110.115 85.6916 108.875 84.6216C107.425 83.3616 105.755 82.4916 104.005 82.0816C103.635 81.9816 103.265 81.9216 102.895 81.8716C102.495 81.8216 102.165 81.7216 101.885 81.5716Z" stroke="#507062" stroke-width="1.5" stroke-linecap="round" stroke-linejoin="round"/>
<path d="M101.965 81.4314C102.385 79.5614 102.895 76.9914 103.945 75.4014C104.995 73.8114 106.685 72.5314 108.595 72.4214C110.365 72.3314 112.095 73.2814 113.205 74.6714C114.305 76.0614 115.545 78.1014 115.865 81.2014C116.195 84.4514 115.195 88.6714 114.585 89.9914" stroke="#507062" stroke-width="1.5" stroke-linecap="round" stroke-linejoin="round"/>
<path d="M112.455 88.5518C112.685 87.0718 113.035 85.6018 113.205 84.1118C113.375 82.6218 113.375 81.0918 112.925 79.6518C112.485 78.2218 111.545 76.9018 110.215 76.2218C108.585 75.3918 106.645 76.1218 105.575 77.5018C104.655 78.6718 104.295 80.1718 104.115 81.6518" stroke="#507062" stroke-width="1.5" stroke-linecap="round" stroke-linejoin="round"/>
<path d="M107.5 80.6782C109.433 80.6782 111 79.1112 111 77.1782C111 75.2452 109.433 73.6782 107.5 73.6782C105.567 73.6782 104 75.2452 104 77.1782C104 79.1112 105.567 80.6782 107.5 80.6782Z" fill="white"/>
<path d="M113 87.6782C114.105 87.6782 115 86.7828 115 85.6782C115 84.5737 114.105 83.6782 113 83.6782C111.895 83.6782 111 84.5737 111 85.6782C111 86.7828 111.895 87.6782 113 87.6782Z" fill="white"/>
<path d="M12.9999 39.6782C8.99989 34.6782 1.5 28.1782 2.5 44.1782C3.00023 45.6782 2.79993 48.3782 6.00011 55.1782C10.0003 63.6782 17.0001 68.6782 26.5001 71.6782C34.1001 74.0782 39.0001 79.6782 40.5001 82.1782L41.5001 81.1782C44.6668 78.3449 48.4001 71.3782 38.0001 66.1782C25.0001 59.6782 16.9999 44.6782 12.9999 39.6782Z" fill="#C38B58" stroke="#507062" stroke-width="1.5" stroke-linecap="round"/>
</svg>
