<svg width="150" height="142" viewBox="0 0 150 142" fill="none" xmlns="http://www.w3.org/2000/svg">
<path d="M139.355 134.354L139.405 134.524C139.075 135.124 138.745 135.724 138.295 136.244C137.855 136.764 137.285 137.204 136.625 137.374C136.525 137.404 136.415 137.414 136.335 137.374C136.145 137.284 136.155 137.024 136.195 136.814C136.335 136.234 136.505 135.654 136.725 135.094L136.705 134.894C137.595 134.784 138.485 134.604 139.355 134.354Z" fill="#537062"/>
<path d="M125.474 139.074C124.834 139.874 124.084 140.704 123.074 140.804C122.904 140.824 122.725 140.814 122.595 140.724C122.355 140.554 122.334 140.214 122.354 139.924C122.404 139.254 122.514 138.584 122.674 137.924L122.845 137.744C123.545 138.424 124.474 138.874 125.474 139.074Z" fill="#537062"/>
<path d="M113.545 133.814L113.475 133.964C112.785 134.464 112.035 134.874 111.245 135.174C111.095 135.234 110.915 135.284 110.775 135.214C110.505 135.074 110.575 134.694 110.685 134.424C110.955 133.764 111.295 133.144 111.675 132.554L111.955 132.474C112.325 132.984 112.795 133.414 113.355 133.724C113.415 133.754 113.485 133.794 113.545 133.814Z" fill="#537062"/>
<path d="M106.865 126.193V126.263C106.545 126.493 106.225 126.733 105.915 126.963C105.515 127.273 105.025 127.593 104.545 127.453C104.045 127.313 103.795 126.733 103.765 126.213C103.735 125.693 103.855 125.163 103.765 124.653L103.935 124.513C104.685 125.483 105.745 126.073 106.855 126.193H106.865Z" fill="#537062"/>
<path d="M61.585 125.233C62.035 126.123 62.355 126.893 62.035 127.833C61.985 127.973 61.915 128.123 61.775 128.163C61.655 128.213 61.515 128.163 61.395 128.113C60.765 127.853 60.165 127.483 59.655 127.023L59.335 126.983C60.205 126.673 61.025 126.023 61.585 125.233Z" fill="#537062"/>
<path d="M55.5151 133.973C55.5551 134.493 55.4651 135.033 55.1451 135.443C55.0951 135.513 55.0251 135.583 54.9451 135.613C54.8551 135.633 54.7551 135.603 54.6751 135.573C54.0551 135.363 53.4851 135.023 53.0051 134.593L52.9551 134.503C53.8351 134.053 54.5651 133.353 55.1251 132.503C55.2951 132.973 55.4651 133.473 55.5151 133.973Z" fill="#537062"/>
<path d="M45.1751 137.333C45.4051 137.923 45.4751 138.593 45.2351 139.173C45.1351 139.413 44.9651 139.643 44.7151 139.723C44.5351 139.783 44.3451 139.753 44.1551 139.713C43.0451 139.473 42.0151 138.903 41.2351 138.083L41.2051 137.963C41.4451 137.913 41.6851 137.833 41.9251 137.743C42.9051 137.363 43.7051 136.643 44.2151 135.763C44.5751 136.263 44.9351 136.763 45.1751 137.333Z" fill="#537062"/>
<path d="M31.2447 134.633C31.5247 135.173 31.6747 135.783 31.6647 136.393C31.6647 136.673 31.6247 136.963 31.4547 137.183C31.2547 137.433 30.8947 137.533 30.5747 137.503C30.2447 137.463 29.9447 137.323 29.6547 137.173C29.0247 136.833 28.4247 136.443 27.8647 136.003L27.8447 135.853C29.0647 135.703 30.2147 135.283 31.1647 134.533L31.2447 134.633Z" fill="#537062"/>
<path d="M125.475 139.074C124.475 138.874 123.545 138.424 122.845 137.744C122.495 137.404 122.195 137.014 121.975 136.564C120.855 134.324 121.755 131.634 122.845 129.374C121.645 130.844 120.405 132.344 118.775 133.314C117.205 134.244 115.175 134.604 113.545 133.814C113.485 133.794 113.415 133.754 113.355 133.724C112.795 133.414 112.325 132.984 111.955 132.474C111.325 131.634 110.945 130.574 110.805 129.514C110.575 127.824 110.675 125.494 110.985 123.824C110.895 123.994 110.795 124.144 110.695 124.304C109.705 125.784 108.255 126.354 106.865 126.194C105.755 126.074 104.695 125.484 103.945 124.514C103.725 124.244 103.535 123.934 103.375 123.604C103.305 123.454 103.235 123.294 103.175 123.144C101.905 120.024 102.505 116.204 103.865 113.224C107.435 105.414 116.135 100.854 124.705 100.224C125.735 100.144 126.775 100.124 127.815 100.164C134.525 100.414 141.085 103.114 145.125 108.704C149.615 114.944 149.305 122.024 146.445 128.724C145.205 131.624 142.435 133.454 139.355 134.354C138.485 134.604 137.595 134.784 136.705 134.894C135.645 135.024 134.595 135.054 133.585 134.994C132.635 136.474 131.415 137.744 129.845 138.534C128.525 139.204 126.925 139.384 125.475 139.074Z" fill="white"/>
<path d="M92.5947 109.784C91.4747 109.744 90.3447 109.524 89.2747 109.184C87.7047 108.694 86.1847 107.914 85.0847 106.694C83.9847 105.474 83.3247 103.774 83.2447 102.104C83.2447 101.914 83.2347 101.734 83.2247 101.554C83.1547 100.154 83.1147 98.8136 83.1147 97.3436C84.3647 97.2336 85.5947 96.7436 86.7747 96.2636C88.5147 95.5536 90.2647 94.8436 91.9747 94.0736C93.4147 93.4336 94.9047 92.6836 95.7647 91.3636C97.1447 89.2336 96.3647 86.2136 94.5447 84.4536C93.9647 83.9036 93.3247 83.4536 92.6347 83.0836L95.3047 82.4336C97.3747 84.3936 99.6747 86.1236 102.115 87.5736C109.935 92.2136 119.205 94.1036 128.275 93.7036C128.135 95.7136 127.985 97.7136 127.825 99.7236V100.164C126.775 100.124 125.735 100.144 124.705 100.224C116.135 100.854 107.435 105.414 103.865 113.224C102.505 116.204 101.905 120.024 103.175 123.144C99.4947 123.064 95.8047 123.094 92.1247 123.234L92.0347 123.214C92.8047 118.764 92.9947 114.324 92.5947 109.794V109.784Z" fill="white"/>
<path d="M72.4749 109.534L72.4149 109.984C72.2549 114.514 73.0649 119.084 74.7349 123.294L74.3749 123.444C70.4849 123.164 66.5649 123.214 62.6849 123.594L62.3449 123.474C63.0849 120.564 61.8349 117.354 60.3149 114.664C57.9049 110.364 54.7449 106.384 50.6449 103.634C47.2449 101.334 43.1449 99.9436 39.0649 100.034V99.5435C38.6949 98.2435 38.3549 96.9335 38.0449 95.6135L38.3149 95.5536C46.2749 94.0735 54.4149 92.4335 61.3049 88.1735C69.1849 83.2935 74.8949 75.0336 76.6649 65.9336C79.0049 53.9236 74.7349 41.6736 74.5249 29.4536L74.4249 28.4036C76.8449 28.1436 79.3249 28.1236 81.7849 28.2836C82.3149 28.3136 82.8349 28.3536 83.3549 28.4036L83.3349 28.6636C83.1849 38.7636 83.0349 48.9035 84.1949 58.9436C84.4949 61.5435 84.8849 64.1436 85.5849 66.6636C87.2649 72.7036 90.7449 78.1236 95.3049 82.4336L92.6349 83.0836C91.1049 82.2636 89.3549 81.8335 87.6249 81.6035C86.2349 81.4136 84.5549 81.2735 82.7949 81.2735C77.9549 81.2735 72.4749 82.3236 70.3849 86.2536C69.6249 87.6735 69.4549 89.5235 70.3849 90.8435C70.9249 91.6035 71.7549 92.1035 72.5649 92.5735C74.6349 93.7735 76.7149 94.9435 78.8049 96.0935C79.7549 96.6135 80.7249 97.1435 81.7949 97.3135C82.2349 97.3835 82.6749 97.3835 83.1149 97.3435C83.1149 98.8135 83.1549 100.154 83.2249 101.554C83.2349 101.734 83.2449 101.914 83.2449 102.104C83.2449 102.694 83.2149 103.294 83.0549 103.864C82.8549 104.534 82.4749 105.154 82.0449 105.704C80.4349 107.794 77.9849 109.204 75.3749 109.564C74.4149 109.694 73.4349 109.684 72.4749 109.534Z" fill="white"/>
<path d="M32.165 133.563L32.135 133.583C31.845 133.943 31.525 134.263 31.165 134.533C30.215 135.283 29.065 135.703 27.845 135.853C25.425 136.143 22.765 135.333 20.925 133.683C17.815 130.893 16.675 126.473 16.485 122.293C16.285 117.823 17.125 113.063 20.085 109.713C21.455 108.153 23.205 106.993 24.935 105.853C28.555 103.463 32.325 101.033 36.605 100.273C37.415 100.123 38.245 100.043 39.065 100.033C43.145 99.9434 47.245 101.333 50.645 103.633C54.745 106.383 57.905 110.363 60.315 114.663C61.835 117.353 63.085 120.563 62.345 123.473C62.255 123.823 62.135 124.173 61.985 124.523C61.875 124.773 61.735 125.003 61.585 125.233C61.025 126.023 60.205 126.673 59.335 126.983C58.415 127.323 57.425 127.283 56.635 126.673C56.415 126.503 56.235 126.303 56.075 126.083C56.725 128.173 56.325 130.673 55.125 132.503C54.565 133.353 53.835 134.053 52.955 134.503C52.245 134.873 51.435 135.073 50.535 135.053C48.685 135.003 46.715 134.583 45.435 133.233C45.165 132.943 44.925 132.613 44.725 132.273C45.045 133.473 44.825 134.723 44.215 135.763C43.705 136.643 42.905 137.363 41.925 137.743C41.685 137.833 41.445 137.913 41.205 137.963C39.255 138.443 37.095 137.883 35.395 136.763C34.125 135.923 33.065 134.803 32.165 133.563Z" fill="white"/>
<path d="M137.535 43.8333C139.475 47.3833 139.995 52.0333 137.695 55.3633C135.185 58.9833 130.345 59.9433 125.985 60.6033C124.965 57.6033 123.615 54.7633 121.835 52.1833C114.705 41.8433 104.535 32.9033 92.0947 29.8633C89.3447 29.1933 86.3746 28.6733 83.3546 28.4033C82.8346 28.3533 82.3146 28.3133 81.7846 28.2833V28.0633C81.6646 16.9733 89.0347 6.17326 99.4147 2.26326C102.365 1.15326 105.635 0.563262 108.675 1.38326C109.975 1.74326 111.225 2.36326 112.195 3.30326C114.845 5.91326 114.715 10.1133 115.355 13.7833C116.835 22.2633 123.115 29.0233 129.475 34.8333C132.455 37.5633 135.595 40.2833 137.535 43.8333Z" fill="#C38B58"/>
<path d="M125.985 60.6033C129.455 70.8633 128.975 83.0033 128.305 93.2133C128.295 93.3733 128.285 93.5433 128.275 93.7033C119.205 94.1033 109.935 92.2133 102.115 87.5733C99.6749 86.1233 97.3749 84.3933 95.3049 82.4333C90.7449 78.1233 87.2649 72.7033 85.5849 66.6633C84.8849 64.1433 84.4949 61.5433 84.1949 58.9433C83.0349 48.9033 83.1849 38.7633 83.3349 28.6633L83.3549 28.4033C86.3749 28.6733 89.3449 29.1933 92.0949 29.8633C104.535 32.9033 114.705 41.8433 121.835 52.1833C123.615 54.7633 124.965 57.6033 125.985 60.6033Z" fill="#F6B97B"/>
<path d="M94.5449 84.4534C96.3649 86.2134 97.1449 89.2334 95.7649 91.3634C94.9049 92.6834 93.4149 93.4334 91.9749 94.0734C90.2649 94.8434 88.5149 95.5534 86.7749 96.2634C85.5949 96.7434 84.3649 97.2334 83.1149 97.3434C82.6749 97.3834 82.2349 97.3834 81.7949 97.3134C80.7249 97.1434 79.7549 96.6134 78.8049 96.0934C76.7149 94.9434 74.6349 93.7734 72.5649 92.5734C71.7549 92.1034 70.9249 91.6034 70.3849 90.8434C69.4549 89.5234 69.6249 87.6734 70.3849 86.2534C72.4749 82.3234 77.9549 81.2734 82.7949 81.2734C84.5549 81.2734 86.2349 81.4134 87.6249 81.6034C89.3549 81.8334 91.1049 82.2634 92.6349 83.0834C93.3249 83.4534 93.9649 83.9034 94.5449 84.4534Z" fill="#C97155"/>
<path d="M92.5949 109.794C92.9949 114.324 92.8049 118.764 92.0349 123.214C91.9349 123.884 91.8049 124.554 91.6649 125.224C91.3649 126.634 91.0049 128.054 90.3049 129.324C89.6049 130.584 88.5149 131.684 87.1449 132.134C86.0749 132.484 84.9249 132.424 83.8149 132.274C82.4349 132.094 81.0549 131.764 79.8749 131.024C78.3249 130.054 77.2649 128.474 76.3949 126.864C75.7649 125.714 75.2149 124.514 74.7349 123.294C73.0649 119.084 72.2549 114.514 72.4149 109.984L72.4749 109.534C73.4349 109.684 74.4149 109.694 75.3749 109.564C77.9849 109.204 80.4349 107.794 82.0449 105.704C82.4749 105.154 82.8549 104.534 83.0549 103.864C83.2149 103.294 83.2449 102.694 83.2449 102.104C83.3249 103.774 83.9849 105.474 85.0849 106.694C86.1849 107.914 87.7049 108.694 89.2749 109.184C90.3449 109.524 91.4749 109.744 92.5949 109.784V109.794Z" fill="#C97155"/>
<path d="M55.9249 36.0133C59.1849 33.5033 62.8649 31.5433 66.7249 30.1133C69.1349 29.2233 71.7449 28.6733 74.4249 28.4033L74.5249 29.4533C74.7349 41.6733 79.0049 53.9233 76.6649 65.9333C74.8949 75.0333 69.1849 83.2933 61.3049 88.1733C54.4149 92.4333 46.2749 94.0733 38.3149 95.5533L38.0449 95.6133C36.5249 89.2133 35.6149 82.6733 35.3249 76.0933H35.0849C28.2749 80.4933 19.4849 81.6633 11.7549 79.2133C8.25492 78.0933 4.87492 76.1833 2.81492 73.1533C0.74492 70.1233 0.26492 65.8433 2.32492 62.8033C4.96492 58.9233 10.3749 58.3533 14.3949 55.9233C16.2649 54.8033 17.8349 53.2633 19.4149 51.7633C23.3949 47.9933 27.5449 44.4233 31.8649 41.0533C33.6949 39.6133 35.5749 38.2133 37.6949 37.2333C42.9049 34.8433 50.2149 35.4933 55.9249 36.0133Z" fill="#F6B97B"/>
<path d="M55.9249 36.0136C50.2149 35.4936 42.9049 34.8436 37.6949 37.2336C35.5749 38.2136 33.6949 39.6136 31.8649 41.0536C27.5449 44.4236 23.3949 47.9936 19.4149 51.7636C17.8349 53.2636 16.2649 54.8036 14.3949 55.9236C10.3749 58.3536 4.96492 58.9236 2.32492 62.8036C0.26492 65.8436 0.74492 70.1236 2.81492 73.1536C4.87492 76.1836 8.25492 78.0936 11.7549 79.2136C19.4849 81.6636 28.2749 80.4936 35.0849 76.1036" stroke="#537062" stroke-width="1.5" stroke-linecap="round" stroke-linejoin="round"/>
<path d="M49.0547 43.0436C50.9847 40.3536 53.3147 38.0035 55.9247 36.0135C59.1847 33.5035 62.8647 31.5436 66.7247 30.1136C69.1347 29.2236 71.7447 28.6736 74.4247 28.4036C76.8447 28.1436 79.3247 28.1236 81.7847 28.2836C82.3147 28.3136 82.8347 28.3536 83.3547 28.4036C86.3747 28.6736 89.3447 29.1936 92.0947 29.8636C104.535 32.9036 114.705 41.8436 121.835 52.1836C123.615 54.7636 124.965 57.6035 125.985 60.6035C129.455 70.8636 128.975 83.0035 128.305 93.2135C128.295 93.3735 128.285 93.5435 128.275 93.7035C128.135 95.7135 127.985 97.7135 127.825 99.7235" stroke="#537062" stroke-width="1.5" stroke-linecap="round" stroke-linejoin="round"/>
<path d="M35.3148 67.0732C35.1848 70.0832 35.1948 73.0932 35.3248 76.0932C35.6148 82.6732 36.5248 89.2132 38.0448 95.6132C38.3548 96.9332 38.6948 98.2432 39.0548 99.5432" stroke="#537062" stroke-width="1.5" stroke-linecap="round" stroke-linejoin="round"/>
<path d="M53.415 119.813C54.015 121.323 54.605 122.843 55.205 124.353C55.445 124.953 55.695 125.573 56.075 126.083C56.235 126.303 56.415 126.503 56.635 126.673C57.425 127.283 58.415 127.323 59.335 126.983C60.205 126.673 61.025 126.023 61.585 125.233C61.735 125.003 61.875 124.773 61.985 124.523C62.135 124.173 62.255 123.823 62.345 123.473C63.085 120.563 61.835 117.353 60.315 114.663C57.905 110.363 54.745 106.383 50.645 103.633C47.245 101.333 43.145 99.9434 39.065 100.033C38.245 100.043 37.415 100.123 36.605 100.273C32.325 101.033 28.555 103.463 24.935 105.853C23.205 106.993 21.455 108.153 20.085 109.713C17.125 113.063 16.285 117.823 16.485 122.293C16.675 126.473 17.815 130.893 20.925 133.683C22.765 135.333 25.425 136.143 27.845 135.853C29.065 135.703 30.215 135.283 31.165 134.533C31.525 134.263 31.845 133.943 32.135 133.583" stroke="#537062" stroke-width="1.5" stroke-linecap="round" stroke-linejoin="round"/>
<path d="M28.375 126.403C29.075 128.213 29.925 129.973 30.915 131.643C31.305 132.303 31.715 132.943 32.165 133.563C33.065 134.803 34.125 135.923 35.395 136.763C37.095 137.883 39.255 138.443 41.205 137.963C41.445 137.913 41.685 137.833 41.925 137.743C42.905 137.363 43.705 136.643 44.215 135.763C44.825 134.723 45.045 133.473 44.725 132.273" stroke="#537062" stroke-width="1.5" stroke-linecap="round" stroke-linejoin="round"/>
<path d="M42.5146 127.734L43.9846 130.854C44.2146 131.334 44.4446 131.824 44.7246 132.274C44.9246 132.614 45.1646 132.944 45.4346 133.234C46.7146 134.584 48.6846 135.004 50.5346 135.054C51.4346 135.074 52.2446 134.874 52.9546 134.504C53.8346 134.054 54.5646 133.354 55.1246 132.504C56.3246 130.674 56.7246 128.174 56.0746 126.084C56.0646 126.024 56.0446 125.974 56.0246 125.914" stroke="#537062" stroke-width="1.5" stroke-linecap="round" stroke-linejoin="round"/>
<path d="M81.7947 28.0633C81.6647 16.9733 89.0347 6.17326 99.4147 2.26326C102.365 1.15326 105.635 0.563262 108.675 1.38326C109.975 1.74326 111.225 2.36326 112.195 3.30326C114.845 5.91326 114.715 10.1133 115.355 13.7833C116.835 22.2633 123.115 29.0233 129.475 34.8333C132.455 37.5633 135.595 40.2833 137.535 43.8333C139.475 47.3833 139.995 52.0333 137.695 55.3633C135.185 58.9833 130.345 59.9433 125.985 60.6033" stroke="#537062" stroke-width="1.5" stroke-linecap="round" stroke-linejoin="round"/>
<path d="M112.105 120.494C111.835 121.634 111.545 122.794 110.985 123.824C110.895 123.994 110.795 124.144 110.695 124.304C109.705 125.784 108.255 126.354 106.865 126.194C105.755 126.074 104.695 125.484 103.945 124.514C103.725 124.244 103.535 123.934 103.375 123.604C103.305 123.454 103.235 123.294 103.175 123.144C101.905 120.024 102.505 116.204 103.865 113.224C107.435 105.414 116.135 100.854 124.705 100.224C125.735 100.144 126.775 100.124 127.815 100.164C134.525 100.414 141.085 103.114 145.125 108.704C149.615 114.944 149.305 122.024 146.445 128.724C145.205 131.624 142.435 133.454 139.355 134.354C138.485 134.604 137.595 134.784 136.705 134.894C135.645 135.024 134.595 135.054 133.585 134.994C133.555 134.994 133.515 134.984 133.485 134.984" stroke="#537062" stroke-width="1.5" stroke-linecap="round" stroke-linejoin="round"/>
<path d="M110.985 123.823C110.675 125.493 110.575 127.823 110.805 129.513C110.945 130.573 111.325 131.633 111.955 132.473C112.325 132.983 112.795 133.413 113.355 133.723C113.415 133.753 113.485 133.793 113.545 133.813C115.175 134.603 117.205 134.243 118.775 133.313C120.405 132.343 121.645 130.843 122.845 129.373C121.755 131.633 120.855 134.323 121.975 136.563C122.195 137.013 122.495 137.403 122.845 137.743C123.545 138.423 124.475 138.873 125.475 139.073C126.925 139.383 128.525 139.203 129.845 138.533C131.415 137.743 132.635 136.473 133.585 134.993C134.285 133.933 134.845 132.763 135.305 131.593C136.015 129.783 136.535 127.893 136.875 125.973" stroke="#537062" stroke-width="1.5" stroke-linecap="round" stroke-linejoin="round"/>
<path d="M52.9049 75.5434C52.7249 74.5234 53.2149 73.5034 53.8149 72.6634C55.5049 70.2934 58.2449 68.7134 61.1449 68.4334C62.5449 68.3034 64.0249 68.4734 65.2149 69.2134C67.1949 70.4434 67.9849 72.8934 68.6149 75.1434" stroke="#537062" stroke-width="1.5" stroke-linecap="round" stroke-linejoin="round"/>
<path d="M95.0547 72.9632C95.8147 72.5632 96.0047 71.5932 96.4047 70.8332C96.9547 69.8032 97.9747 69.1032 99.0347 68.6032C100.875 67.7232 102.945 67.3232 104.985 67.4432C105.835 67.4832 106.715 67.6332 107.455 68.0732C108.335 68.5932 108.935 69.4632 109.425 70.3532C110.285 71.8932 110.915 73.5932 110.975 75.3432" stroke="#537062" stroke-width="1.5" stroke-linecap="round" stroke-linejoin="round"/>
<path d="M74.5244 29.4536C74.7344 41.6736 79.0045 53.9236 76.6645 65.9336C74.8945 75.0336 69.1845 83.2936 61.3045 88.1736C54.4145 92.4336 46.2745 94.0736 38.3145 95.5536" stroke="#537062" stroke-width="1.5" stroke-linecap="round" stroke-linejoin="round"/>
<path d="M83.3349 28.6636C83.1849 38.7636 83.0349 48.9036 84.1949 58.9436C84.4949 61.5436 84.8849 64.1436 85.5849 66.6636C87.2649 72.7036 90.7449 78.1236 95.3049 82.4336C97.3749 84.3936 99.6749 86.1236 102.115 87.5736C109.935 92.2136 119.205 94.1036 128.275 93.7036H128.355" stroke="#537062" stroke-width="1.5" stroke-linecap="round" stroke-linejoin="round"/>
<path d="M92.6349 83.0834C91.1049 82.2634 89.3549 81.8334 87.6249 81.6034C86.2349 81.4134 84.5549 81.2734 82.7949 81.2734C77.9549 81.2734 72.4749 82.3234 70.3849 86.2534C69.6249 87.6734 69.4549 89.5234 70.3849 90.8434C70.9249 91.6034 71.7549 92.1034 72.5649 92.5734C74.6349 93.7734 76.7149 94.9434 78.8049 96.0934C79.7549 96.6134 80.7249 97.1434 81.7949 97.3134C82.2349 97.3834 82.6749 97.3834 83.1149 97.3434C84.3649 97.2334 85.5949 96.7434 86.7749 96.2634C88.5149 95.5534 90.2649 94.8434 91.9749 94.0734C93.4149 93.4334 94.9049 92.6834 95.7649 91.3634C97.1449 89.2334 96.3649 86.2134 94.5449 84.4534C93.9649 83.9034 93.3249 83.4534 92.6349 83.0834Z" stroke="#537062" stroke-width="1.5" stroke-linecap="round" stroke-linejoin="round"/>
<path d="M83.1149 97.3433C83.1149 98.8133 83.1549 100.153 83.2249 101.553C83.2349 101.733 83.2449 101.913 83.2449 102.103C83.2449 102.693 83.2149 103.293 83.0549 103.863C82.8549 104.533 82.4749 105.153 82.0449 105.703C80.4349 107.793 77.9849 109.203 75.3749 109.563C74.4149 109.693 73.4349 109.683 72.4749 109.533C70.8249 109.293 69.2449 108.653 67.9049 107.663C66.0749 106.303 64.7549 104.383 63.1649 102.753C61.5849 101.113 59.5149 99.6833 57.2349 99.7933" stroke="#537062" stroke-width="1.5" stroke-linecap="round" stroke-linejoin="round"/>
<path d="M83.2451 102.104C83.3251 103.774 83.9851 105.474 85.0851 106.694C86.1851 107.914 87.7051 108.694 89.2751 109.184C90.3451 109.524 91.4751 109.744 92.5951 109.784C93.7951 109.834 94.9851 109.674 96.0951 109.254C98.4251 108.354 100.175 106.404 101.635 104.384C103.095 102.364 104.385 100.184 106.215 98.4937" stroke="#537062" stroke-width="1.5" stroke-linecap="round" stroke-linejoin="round"/>
<path d="M72.4149 109.983C72.2549 114.513 73.0649 119.083 74.7349 123.293C75.2149 124.513 75.7649 125.713 76.3949 126.863C77.2649 128.473 78.3249 130.053 79.8749 131.023C81.0549 131.763 82.4349 132.093 83.8149 132.273C84.9249 132.423 86.0749 132.483 87.1449 132.133C88.5149 131.683 89.6049 130.583 90.3049 129.323C91.0049 128.053 91.3649 126.633 91.6649 125.223C91.8049 124.553 91.9349 123.883 92.0349 123.213C92.8049 118.763 92.9949 114.323 92.5949 109.793" stroke="#537062" stroke-width="1.5" stroke-linecap="round" stroke-linejoin="round"/>
<path d="M27.8647 136.003C28.4247 136.443 29.0247 136.833 29.6547 137.173C29.9447 137.323 30.2447 137.463 30.5747 137.503C30.8947 137.533 31.2547 137.433 31.4547 137.183C31.6247 136.963 31.6647 136.673 31.6647 136.393C31.6747 135.783 31.5247 135.173 31.2447 134.633" stroke="#537062" stroke-width="1.5" stroke-linecap="round" stroke-linejoin="round"/>
<path d="M41.2349 138.083C42.0149 138.903 43.0449 139.473 44.1549 139.713C44.3449 139.753 44.5349 139.783 44.7149 139.723C44.9649 139.643 45.1349 139.413 45.2349 139.173C45.4749 138.593 45.4049 137.923 45.1749 137.333C44.9349 136.763 44.5749 136.263 44.2149 135.763C44.2049 135.753 44.2049 135.743 44.1949 135.733" stroke="#537062" stroke-width="1.5" stroke-linecap="round" stroke-linejoin="round"/>
<path d="M53.0049 134.593C53.4849 135.023 54.0549 135.363 54.6749 135.573C54.7549 135.603 54.8549 135.633 54.9449 135.613C55.0249 135.583 55.0949 135.513 55.1449 135.443C55.4649 135.033 55.5549 134.493 55.5149 133.973C55.4649 133.473 55.2949 132.973 55.1249 132.503C55.1249 132.503 55.1216 132.497 55.1149 132.483" stroke="#537062" stroke-width="1.5" stroke-linecap="round" stroke-linejoin="round"/>
<path d="M59.6548 127.023C60.1648 127.483 60.7648 127.853 61.3948 128.113C61.5148 128.163 61.6548 128.213 61.7748 128.163C61.9148 128.123 61.9848 127.973 62.0348 127.833C62.3548 126.893 62.0348 126.123 61.5848 125.233" stroke="#537062" stroke-width="1.5" stroke-linecap="round" stroke-linejoin="round"/>
<path d="M103.775 124.653C103.855 125.163 103.735 125.693 103.775 126.213C103.815 126.733 104.055 127.313 104.555 127.453C105.035 127.593 105.525 127.273 105.925 126.963C106.235 126.733 106.555 126.493 106.865 126.263" stroke="#537062" stroke-width="1.5" stroke-linecap="round" stroke-linejoin="round"/>
<path d="M111.675 132.553C111.295 133.143 110.955 133.763 110.685 134.423C110.575 134.693 110.505 135.073 110.775 135.213C110.915 135.283 111.095 135.233 111.245 135.173C112.035 134.873 112.785 134.463 113.475 133.963" stroke="#537062" stroke-width="1.5" stroke-linecap="round" stroke-linejoin="round"/>
<path d="M122.674 137.923C122.514 138.583 122.404 139.253 122.354 139.923C122.334 140.213 122.355 140.553 122.595 140.723C122.725 140.813 122.904 140.823 123.074 140.803C124.084 140.703 124.834 139.873 125.474 139.073C125.494 139.063 125.504 139.043 125.514 139.033" stroke="#537062" stroke-width="1.5" stroke-linecap="round" stroke-linejoin="round"/>
<path d="M136.725 135.093C136.505 135.653 136.335 136.233 136.195 136.813C136.155 137.023 136.145 137.283 136.335 137.373C136.415 137.413 136.525 137.403 136.625 137.373C137.285 137.203 137.855 136.763 138.295 136.243C138.745 135.723 139.075 135.123 139.405 134.523" stroke="#537062" stroke-width="1.5" stroke-linecap="round" stroke-linejoin="round"/>
<path d="M62.6846 123.593C66.5646 123.213 70.4846 123.163 74.3746 123.443" stroke="#537062" stroke-width="1.5" stroke-linecap="round" stroke-linejoin="round"/>
<path d="M92.125 123.233C95.805 123.093 99.495 123.063 103.175 123.143H103.195" stroke="#537062" stroke-width="1.5" stroke-linecap="round" stroke-linejoin="round"/>
<path d="M68.5445 96.1436C69.1845 96.1436 69.1845 95.1436 68.5445 95.1436C67.9045 95.1436 67.9045 96.1436 68.5445 96.1436Z" fill="#537062"/>
<path d="M73.6846 99.2935C74.3246 99.2935 74.3246 98.2935 73.6846 98.2935C73.0446 98.2935 73.0446 99.2935 73.6846 99.2935Z" fill="#537062"/>
<path d="M69.1245 102.573C69.7645 102.573 69.7645 101.573 69.1245 101.573C68.4845 101.573 68.4845 102.573 69.1245 102.573Z" fill="#537062"/>
<path d="M92.9846 99.0332C93.6246 99.0332 93.6246 98.0332 92.9846 98.0332C92.3446 98.0332 92.3446 99.0332 92.9846 99.0332Z" fill="#537062"/>
<path d="M97.6145 96.0732C98.2545 96.0732 98.2545 95.0732 97.6145 95.0732C96.9745 95.0732 96.9745 96.0732 97.6145 96.0732Z" fill="#537062"/>
<path d="M68.5445 96.1436C69.1845 96.1436 69.1845 95.1436 68.5445 95.1436C67.9045 95.1436 67.9045 96.1436 68.5445 96.1436Z" stroke="#507062" stroke-width="1.5"/>
<path d="M73.6846 99.2935C74.3246 99.2935 74.3246 98.2935 73.6846 98.2935C73.0446 98.2935 73.0446 99.2935 73.6846 99.2935Z" stroke="#507062" stroke-width="1.5"/>
<path d="M69.1245 102.573C69.7645 102.573 69.7645 101.573 69.1245 101.573C68.4845 101.573 68.4845 102.573 69.1245 102.573Z" stroke="#507062" stroke-width="1.5"/>
<path d="M92.9846 99.0332C93.6246 99.0332 93.6246 98.0332 92.9846 98.0332C92.3446 98.0332 92.3446 99.0332 92.9846 99.0332Z" stroke="#507062" stroke-width="1.5"/>
<path d="M97.6145 96.0732C98.2545 96.0732 98.2545 95.0732 97.6145 95.0732C96.9745 95.0732 96.9745 96.0732 97.6145 96.0732Z" stroke="#507062" stroke-width="1.5"/>
</svg>
