<?xml version="1.0" encoding="utf-8"?>
<!-- Generator: Adobe Illustrator 23.0.5, SVG Export Plug-In . SVG Version: 6.00 Build 0)  -->
<svg version="1.1" id="Capa_1" xmlns="http://www.w3.org/2000/svg" xmlns:xlink="http://www.w3.org/1999/xlink" x="0px" y="0px"
	 viewBox="0 0 29.7 14.4" style="enable-background:new 0 0 29.7 14.4;" xml:space="preserve">
<style type="text/css">
	.st0{fill:#F9F4F0;}
	.st1{fill:#507062;}
</style>
<path class="st0" d="M27.5,13.6c-1.8,0-3.6-0.8-4.7-2.3l-7.6-9.6c-0.4-0.5-1.2-0.5-1.6,0l-7.6,9.6c-1.1,1.4-2.9,2.3-4.7,2.3H0.2
	l-0.5,1H30l0-1H27.5z"/>
<path class="st1" d="M-0.3,14.6h1.7c2.2,0,4.5-0.3,5.8-2l7.3-9l7.5,9.3c1.3,1.7,3.3,1.8,5.5,1.8H30l0.2-2h-2.6c-1.5,0-3-0.7-3.9-1.9
	L16,1c-0.8-1-2.4-1-3.1,0l-7.6,9.6c-1,1.2-2.4,1.9-3.9,1.9h-1.5L-0.3,14.6z"/>
</svg>
