<svg width="156" height="57" viewBox="0 0 156 57" fill="none" xmlns="http://www.w3.org/2000/svg">
<path d="M80.4646 31.87C77.7779 31.87 75.5255 33.0445 74.1966 35.2035V31.9923H72.0986V54.2201H74.2899V45.1752C75.6477 47.2731 77.8712 48.3864 80.4646 48.3864C85.0949 48.3864 88.5539 45.0529 88.5539 40.1137C88.5539 35.1746 85.0949 31.87 80.4646 31.87ZM80.3102 46.4429C76.8512 46.4429 74.2577 43.9106 74.2577 40.1137C74.2577 36.3169 76.8512 33.7845 80.3102 33.7845C83.7692 33.7845 86.3626 36.3458 86.3626 40.1137C86.3626 43.8816 83.737 46.4429 80.3102 46.4429Z" fill="#F7B97C"/>
<path d="M105.656 35.078C104.298 32.9769 102.075 31.8668 99.4812 31.8668C94.8509 31.8668 91.3919 35.2003 91.3919 40.1105C91.3919 45.0207 94.8509 48.3832 99.4812 48.3832C102.168 48.3832 104.42 47.2087 105.749 45.0175V48.2287H107.847V31.9891H105.656V35.078ZM99.6678 46.4397C96.2088 46.4397 93.6185 43.9074 93.6185 40.1105C93.6185 36.3136 96.212 33.7813 99.6678 33.7813C103.124 33.7813 105.688 36.3136 105.688 40.1105C105.688 43.9074 103.095 46.4397 99.6678 46.4397Z" fill="#F7B97C"/>
<path d="M136.803 40.7894C136.803 44.6185 135.352 46.4075 132.202 46.4075C129.052 46.4075 127.51 44.6185 127.51 40.7283V31.9923H125.319V40.7283C125.319 44.6185 123.807 46.4075 120.628 46.4075C117.449 46.4075 115.998 44.6185 115.998 40.7894V31.9891H113.806V40.9729C113.806 45.7897 116.123 48.3832 120.631 48.3832C123.501 48.3832 125.387 47.3342 126.404 44.9564C127.452 47.3954 129.428 48.3832 132.176 48.3832C136.652 48.3832 138.998 45.7897 138.998 40.9729V31.9891H136.806V40.7894H136.803Z" fill="#F7B97C"/>
<path d="M145.478 36.4391C145.478 34.8946 146.775 33.7524 149.706 33.7524C151.373 33.7524 153.072 34.1546 154.491 35.1424L155.446 33.3823C154.089 32.4556 151.804 31.87 149.703 31.87C145.565 31.87 143.28 33.8457 143.28 36.5003C143.28 42.9228 153.809 39.586 153.809 43.8173C153.809 45.4229 152.544 46.4719 149.455 46.4719C147.171 46.4719 144.979 45.6675 143.683 44.6507L142.695 46.3786C144.02 47.5209 146.614 48.3864 149.301 48.3864C153.529 48.3864 156 46.5652 156 43.7562C156 37.5203 145.472 40.8216 145.472 36.4391H145.478Z" fill="#F7B97C"/>
<path d="M44.4657 30.4607L34.9059 24.4565C32.2127 22.7639 28.728 22.7639 26.0315 24.4565L16.4718 30.4607C14.2805 31.8378 12.4883 35.0169 12.4883 37.5267C12.4883 40.7412 14.1937 42.6975 16.9319 43.473C18.3992 43.8913 19.9662 43.8656 21.4495 43.5052L28.9275 41.6775C29.9378 41.4298 30.9964 41.4298 32.0068 41.6775L39.4847 43.5052C40.968 43.8688 42.5351 43.8913 44.0023 43.473C46.7406 42.6943 48.446 40.738 48.446 37.5267C48.446 35.0169 46.6537 31.8378 44.4625 30.4607H44.4657Z" fill="#F7B97C"/>
<path d="M15.5065 26.5061C17.4307 26.6927 19.4996 24.1765 19.3645 21.8115C19.2454 19.7361 17.4146 18.3525 15.5226 18.5391C13.711 18.7193 12.6009 20.1898 12.5526 21.9531C12.4979 23.9191 13.7335 26.3356 15.5033 26.5061H15.5065Z" fill="#F7B97C"/>
<path d="M45.4342 26.5061C47.2039 26.3356 48.4395 23.9191 48.3848 21.9531C48.3365 20.1898 47.2264 18.7193 45.4149 18.5391C43.5229 18.3525 41.692 19.7361 41.5729 21.8115C41.4378 24.1765 43.5068 26.6895 45.4309 26.5061H45.4342Z" fill="#F7B97C"/>
<path d="M24.7187 21.3417C27.1706 21.3417 29.3425 17.8248 29.1269 14.797C28.9499 12.3032 27.0901 10.0863 24.6736 10.1023C22.27 10.1184 20.4713 12.3354 20.3072 14.797C20.1045 17.8184 22.2636 21.3385 24.7155 21.3417H24.7187Z" fill="#F7B97C"/>
<path d="M36.222 21.3417C38.6739 21.3417 40.8329 17.8184 40.6302 14.797C40.4661 12.3354 38.6674 10.1216 36.2638 10.1023C33.8473 10.083 31.9875 12.3 31.8105 14.797C31.5982 17.8216 33.7701 21.3417 36.2188 21.3417H36.222Z" fill="#F7B97C"/>
<path d="M77.1478 23.3335C76.2404 23.3335 75.5486 23.0761 75.0627 22.5612C74.58 22.0464 74.3387 21.316 74.3387 20.37V10.6783H79.2779V8.85709H74.3387V5.2758H72.1475V8.85709H69.2451V10.6783H72.1475V20.4955C72.1475 21.9981 72.5593 23.1597 73.3831 23.9834C74.2068 24.8072 75.378 25.219 76.9032 25.219C77.5403 25.219 78.1646 25.1257 78.7695 24.9423C79.3776 24.7557 79.8957 24.4693 80.3268 24.0768L79.5546 22.5033C78.9175 23.06 78.1131 23.3367 77.1478 23.3367V23.3335Z" fill="#507062"/>
<path d="M86.4083 8.82492H84.3104V25.0646H86.5016V16.7919C86.5016 12.9629 88.5706 10.8038 91.9652 10.8038C92.1197 10.8038 92.3031 10.836 92.4897 10.836V8.70587C89.4941 8.70587 87.4251 9.84815 86.4083 12.0104V8.82492Z" fill="#507062"/>
<path d="M98.6323 8.82492H96.441V25.0646H98.6323V8.82492Z" fill="#507062"/>
<path d="M97.5543 2.15465C96.6598 2.15465 95.9487 2.86576 95.9487 3.69914C95.9487 4.53252 96.6598 5.27259 97.5543 5.27259C98.4489 5.27259 99.16 4.56148 99.16 3.66696C99.16 2.83358 98.4489 2.15465 97.5543 2.15465Z" fill="#507062"/>
<path d="M113.019 8.70265C110.21 8.70265 108.018 9.84493 106.844 11.8206V8.82492H104.746V25.0646H106.937V16.5442C106.937 12.8406 109.128 10.6783 112.616 10.6783C115.702 10.6783 117.494 12.4384 117.494 15.8652V25.0646H119.686V15.6496C119.686 10.9872 116.97 8.70265 113.019 8.70265Z" fill="#507062"/>
<path d="M127.514 8.82492H125.323V25.0646H127.514V8.82492Z" fill="#507062"/>
<path d="M126.433 2.15465C125.539 2.15465 124.827 2.86576 124.827 3.69914C124.827 4.53252 125.539 5.27259 126.433 5.27259C127.328 5.27259 128.039 4.56148 128.039 3.66696C128.039 2.83358 127.328 2.15465 126.433 2.15465Z" fill="#507062"/>
<path d="M33.5152 44.2131L31.9803 45.6932C31.1534 46.4912 29.847 46.4976 29.0104 45.7093L27.4273 44.2131L24.541 44.9177L27.8552 48.0518C27.6493 48.1966 27.4498 48.3542 27.2664 48.5344C26.0501 49.7282 25.5835 51.4786 26.108 53.2226C26.1692 53.4285 26.2496 53.628 26.3494 53.8179C27.1827 55.4267 28.7304 56.3598 30.4262 56.3759C30.4423 56.3759 30.4551 56.3759 30.4712 56.3759C31.1759 56.3759 31.8773 56.2343 32.5016 55.9126C35.4039 54.4035 35.8287 50.7289 33.7372 48.5956C33.5441 48.3993 33.335 48.2255 33.1162 48.0711L36.3853 44.9145L33.5184 44.2131H33.5152ZM31.9256 53.2837C31.5298 53.6731 31.0182 53.8919 30.4487 53.879C29.892 53.8726 29.374 53.6538 28.9846 53.2548C28.5953 52.859 28.3829 52.3345 28.3894 51.7778C28.3958 51.2212 28.6146 50.7031 29.0136 50.3138C29.419 49.918 29.9435 49.7185 30.468 49.7185C30.9925 49.7185 31.5459 49.9277 31.9514 50.3395C32.7526 51.1568 32.7429 52.4761 31.9224 53.2805L31.9256 53.2837Z" fill="#507062"/>
<path d="M56.4065 4.3652C50.3991 -1.44917 40.6269 -1.44917 34.6195 4.3652C34.124 4.84463 34.1111 5.63619 34.5906 6.13171C35.07 6.62723 35.8615 6.6401 36.3571 6.16067C41.4056 1.26978 49.6204 1.26978 54.6689 6.16067C57.1015 8.51602 58.4401 11.6468 58.4401 14.9707C58.4401 18.2978 57.1015 21.4254 54.6689 23.7807L47.6833 30.5282C48.2271 31.1589 48.7194 31.8571 49.1313 32.6004L56.4033 25.5762C59.3249 22.7446 60.937 18.9799 60.937 14.9707C60.937 10.9615 59.3281 7.19677 56.4033 4.3652H56.4065Z" fill="#507062"/>
<path d="M24.5831 6.15745C25.0787 6.63689 25.867 6.62402 26.3497 6.12849C26.8291 5.63297 26.8162 4.84142 26.3207 4.36198C20.3165 -1.45238 10.5412 -1.4556 4.53372 4.36198C1.60884 7.19355 0 10.9615 0 14.9675C0 18.9735 1.60884 22.7414 4.53372 25.573L11.7993 32.6069C12.2111 31.8636 12.7034 31.1621 13.2472 30.5314L6.27128 23.7775C3.8387 21.4222 2.50014 18.2946 2.50014 14.9675C2.50014 11.6404 3.8387 8.5128 6.27128 6.15745C11.3198 1.26656 19.5346 1.26656 24.5831 6.15745Z" fill="#507062"/>
</svg>
