<svg width="349" height="267" viewBox="0 0 349 267" fill="none" xmlns="http://www.w3.org/2000/svg">
<path d="M3.8551 216.383C3.57117 218.92 3.74151 221.626 5.14225 223.765C5.38833 224.125 5.8237 224.485 6.18335 224.258C6.31585 224.163 6.39157 224.011 6.44835 223.86C7.07301 222.308 7.35695 220.642 7.8491 219.052C8.34125 217.462 9.13626 215.853 10.4991 214.888L10.8398 214.452C10.0827 213.885 9.32554 213.298 8.56838 212.711C7.52729 211.878 6.4862 211.045 5.52082 210.118C4.66902 212.105 4.10118 214.225 3.8551 216.383Z" fill="#537062"/>
<path d="M31.6971 250.152C32.3407 248.07 33.06 246.007 34.1579 244.133C35.199 242.411 36.5808 240.839 38.3223 239.836C34.9908 238.757 31.8864 236.845 29.0849 234.536L28.9146 234.707C27.1731 239.685 27.6842 245.401 30.2964 250.001C30.5425 250.436 31.0914 250.91 31.47 250.588C31.5836 250.474 31.6404 250.304 31.6971 250.152Z" fill="#537062"/>
<path d="M42.1475 226.094C42.1286 229.879 44.1162 233.855 47.618 235.312C50.1923 236.391 53.1452 235.994 55.8899 235.464C57.5178 235.161 59.2214 234.763 60.3571 233.59L60.4707 233.722C61.7579 232.605 62.9504 231.413 64.0861 230.182C66.0358 228.062 67.8719 225.734 69.3105 223.217C71.298 219.753 72.5474 215.948 72.3581 211.992C72.112 209.531 70.2002 207.562 67.9477 206.559C64.0104 204.818 59.335 205.234 55.4546 207.07C52.8424 208.319 50.5709 210.156 48.6212 212.295C47.6559 213.336 46.7851 214.452 45.9901 215.607C43.8322 218.73 42.1476 222.308 42.1286 226.094L42.1475 226.094Z" fill="#F6B97B"/>
<path d="M53.6383 196.603C52.7865 194.35 50.7233 192.628 48.7168 191.397C46.4075 189.996 43.89 188.747 41.1831 188.671C37.1891 188.558 33.5737 191.075 30.7533 193.934C27.4218 197.341 24.6771 201.581 24.185 206.313C23.7117 211.045 25.9643 216.251 30.3368 218.163C33.5169 219.563 37.208 219.052 40.5395 218.03L40.5395 218.068C43.4167 216.478 46.01 214.377 48.2625 211.954C49.6443 210.459 50.9315 208.812 52.0294 207.089C52.0673 207.07 52.0862 207.051 52.1051 207.014C52.2187 206.862 52.3133 206.692 52.4269 206.521C54.3576 203.644 54.8498 199.839 53.6383 196.603Z" fill="#F6B97B"/>
<path d="M65.1273 181.061C61.0765 191.756 70.0677 199.934 79.4375 202.981C91.7413 206.994 105.843 204.95 116.5 197.624C118.677 196.11 120.816 194.293 121.819 191.851C122.804 189.466 122.633 186.759 121.914 184.298C119.718 176.651 112.999 171.256 106.279 166.997C98.7261 162.208 87.5202 159.028 79.5133 164.12C76.4657 166.07 73.9103 168.701 71.5253 171.408C68.9509 174.323 66.4902 177.427 65.1273 181.061Z" fill="#F7B97C"/>
<path d="M71.7351 263.856C71.6972 263.364 71.489 262.91 71.2997 262.437C70.7508 261.093 70.2586 259.711 70.1072 258.253C69.9369 256.796 70.1072 255.282 70.8076 253.994L70.8076 253.673C68.309 253.616 65.8103 253.143 63.4631 252.272C63.3306 254.543 63.2171 256.928 64.0499 259.03C64.6935 260.639 65.8103 261.982 67.0218 263.194C67.7411 263.894 68.4982 264.595 69.4068 265.049C69.9558 265.333 70.6751 265.503 71.1861 265.163C71.6026 264.898 71.773 264.349 71.7351 263.856Z" fill="#537062"/>
<path d="M72.3389 234.309C72.1875 236.997 72.3579 239.969 74.1561 241.975C75.8786 243.925 78.699 244.493 81.3112 244.53C83.8666 244.587 86.7059 244.133 88.3906 242.183L88.4285 242.183C88.8828 241.048 89.2424 239.874 89.5453 238.7C90.9839 233.173 91.495 227.4 91.0785 221.721C90.7567 219.715 88.3149 218.522 86.2517 218.125C82.2766 217.368 78.169 219.62 75.8218 222.876C75.235 223.69 74.724 224.561 74.3075 225.469C73.0582 228.214 72.5282 231.28 72.3389 234.309Z" fill="#F6B97B"/>
<path d="M102.57 221.57C102.116 224.466 103.062 227.722 105.485 229.388C107.889 231.035 111.221 230.769 113.776 229.369C116.313 227.949 118.187 225.583 119.739 223.122C121.007 221.154 122.105 218.977 122.275 216.63C122.616 211.86 119.209 209.815 114.988 209.815L114.817 209.815C113.076 209.853 111.278 210.004 109.744 210.818C108.419 211.519 107.397 212.655 106.451 213.809C104.615 216.1 103.006 218.674 102.57 221.57Z" fill="#F6B97B"/>
<path d="M110.898 245.552C110.861 245.193 110.652 244.871 110.444 244.568C109.782 243.66 108.949 242.865 108.438 241.861C107.718 240.479 107.699 238.852 107.681 237.28L107.624 237.072C107.378 237.167 107.113 237.224 106.867 237.299C104.974 237.829 103.024 238.265 101.074 238.53C101.339 240.555 102.456 242.429 103.97 243.792C105.561 245.212 107.605 246.101 109.706 246.48C109.971 246.537 110.236 246.575 110.482 246.461C110.804 246.31 110.955 245.912 110.898 245.552Z" fill="#537062"/>
<path d="M52.1043 207.013C52.2178 206.862 52.3123 206.691 52.4258 206.521" stroke="#537062" stroke-width="1.5" stroke-linecap="round" stroke-linejoin="round"/>
<path d="M347.018 1.06641C329.338 11.0798 311.318 20.5253 293.013 29.3273C231.551 58.9321 166.928 81.5522 105.523 111.252C94.8088 116.419 84.1897 121.833 74.2142 128.326C63.2732 135.462 53.2409 143.866 42.5082 151.305C31.4727 158.971 20.0775 164.025 10.2344 173.414C7.07331 176.405 4.00682 179.68 2.41679 183.73C0.694264 188.179 0.921405 193.1 1.16748 197.87C1.33784 201.05 1.54608 204.363 3.1361 207.127C3.77969 208.243 4.61255 209.228 5.52114 210.117C6.48651 211.045 7.5276 211.878 8.56869 212.711C9.32585 213.297 10.083 213.884 10.8402 214.452C13.2252 216.269 15.686 217.992 18.3739 219.241C19.3582 219.714 20.3803 220.131 21.4214 220.453C27.2326 222.27 33.7063 221.475 39.1957 218.787C39.65 218.56 40.1043 218.332 40.5586 218.067C43.4168 216.477 46.0101 214.376 48.2626 211.953C49.6444 210.458 50.9316 208.811 52.0295 207.089" stroke="#537062" stroke-width="1.5" stroke-linecap="round" stroke-linejoin="round"/>
<path d="M18.2971 218.806C18.316 218.957 18.335 219.09 18.3728 219.241C19.0543 223.633 21.8747 227.456 24.979 230.693C26.2662 232.037 27.6291 233.343 29.0866 234.536C31.8881 236.845 34.9924 238.757 38.3239 239.836C40.1979 240.442 42.1475 240.801 44.154 240.82C46.3687 240.839 48.5266 240.442 50.5898 239.722C54.1863 238.492 57.5178 236.315 60.4707 233.722C61.7579 232.605 62.9504 231.413 64.0861 230.182C66.0358 228.062 67.8719 225.734 69.3105 223.216C71.298 219.752 72.5474 215.948 72.3581 211.991" stroke="#537062" stroke-width="1.5" stroke-linecap="round" stroke-linejoin="round"/>
<path d="M50.4382 239.325C50.495 239.458 50.5328 239.59 50.5896 239.723C52.615 244.739 56.5333 248.96 61.3791 251.364C62.0605 251.705 62.742 252.007 63.4613 252.272C65.8084 253.143 68.3071 253.616 70.8057 253.673C73.0961 253.749 75.3865 253.465 77.5822 252.821C79.5508 252.254 81.4437 251.402 83.0527 250.152C85.627 248.146 87.2928 245.288 88.4285 242.202C88.8828 241.048 89.2424 239.874 89.5453 238.7C90.9839 233.173 91.495 227.4 91.0785 221.721" stroke="#537062" stroke-width="1.5" stroke-linecap="round" stroke-linejoin="round"/>
<path d="M90.6812 238.133C94.0695 239.041 97.5903 239.041 101.073 238.53C103.023 238.265 104.973 237.83 106.865 237.3C107.112 237.224 107.377 237.167 107.623 237.073C112.412 235.71 117.163 233.59 120.343 229.804C125.283 223.917 125.378 215.475 124.886 207.808C124.413 200.161 123.731 191.946 127.593 185.302C131.643 178.355 139.821 174.853 147.733 173.452C155.664 172.052 163.823 172.26 171.659 170.443C178.398 168.891 184.323 165.673 190.645 163.098C197.573 160.278 205.106 159.937 212.47 159.464C223.638 158.726 234.806 157.476 245.747 155.167C274.481 149.11 301.625 135.841 330.832 132.926C337.685 132.244 344.575 132.131 351.465 132.036C363.617 131.847 375.77 131.657 387.922 131.487" stroke="#537062" stroke-width="1.5" stroke-linecap="round" stroke-linejoin="round"/>
<path d="M165.186 116.306C161.173 117.915 157.519 120.3 153.885 122.647C146.635 127.379 138.988 132.566 135.732 140.573C133.764 145.456 133.631 150.927 131.719 155.829C129.675 161.054 125.87 165.786 119.813 165.256C115.024 164.858 110.273 163.174 106.733 159.937C105.219 158.555 103.951 156.908 102.701 155.28C100.676 152.649 98.5558 149.696 98.7072 146.384" stroke="#537062" stroke-width="1.5" stroke-linecap="round" stroke-linejoin="round"/>
<path d="M106.279 166.997C112.999 171.256 119.718 176.651 121.914 184.298C122.633 186.759 122.804 189.466 121.819 191.851C120.816 194.293 118.677 196.11 116.5 197.624C105.843 204.95 91.7413 206.994 79.4375 202.981C70.0677 199.934 61.0765 191.756 65.1273 181.061C66.4902 177.427 68.9509 174.323 71.5253 171.408C73.9103 168.701 76.4657 166.07 79.5133 164.12C87.5202 159.028 98.7261 162.208 106.279 166.997Z" stroke="#537062" stroke-width="1.5" stroke-linecap="round" stroke-linejoin="round"/>
<path d="M72.377 212.03L72.377 211.992C72.1309 209.531 70.2191 207.562 67.9665 206.559C64.0293 204.818 59.3538 205.234 55.4734 207.07C52.8612 208.319 50.5898 210.156 48.6401 212.295C47.6747 213.336 46.804 214.452 46.009 215.607C43.8511 218.73 42.1664 222.308 42.1475 226.094C42.1286 229.879 44.1161 233.855 47.6179 235.312C50.1923 236.391 53.1452 235.994 55.8899 235.464C57.5177 235.161 59.2214 234.763 60.3571 233.59" stroke="#537062" stroke-width="1.5" stroke-linecap="round" stroke-linejoin="round"/>
<path d="M91.1172 222.081C91.1172 221.967 91.0983 221.834 91.0793 221.721C90.7575 219.714 88.3157 218.522 86.2525 218.124C82.2774 217.367 78.1698 219.62 75.8226 222.876C75.2358 223.69 74.7248 224.56 74.3083 225.469C73.059 228.214 72.529 231.28 72.3397 234.309C72.1883 236.997 72.3587 239.968 74.1569 241.975C75.8794 243.925 78.6998 244.492 81.312 244.53C83.8674 244.587 86.7067 244.133 88.3914 242.183" stroke="#537062" stroke-width="1.5" stroke-linecap="round" stroke-linejoin="round"/>
<path d="M122.275 216.63C122.105 218.977 121.007 221.154 119.739 223.122C118.187 225.583 116.313 227.949 113.776 229.369C111.221 230.769 107.889 231.035 105.485 229.388C103.062 227.722 102.116 224.466 102.57 221.57C103.006 218.674 104.615 216.1 106.451 213.809C107.397 212.655 108.419 211.519 109.744 210.818C111.278 210.004 113.076 209.853 114.817 209.815L114.988 209.815C119.209 209.815 122.616 211.86 122.275 216.63Z" stroke="#537062" stroke-width="1.5" stroke-linecap="round" stroke-linejoin="round"/>
<path d="M51.4426 207.809C51.6508 207.581 51.859 207.335 52.0294 207.089C52.0673 207.07 52.0862 207.051 52.1051 207.014C52.2187 206.862 52.3322 206.692 52.4269 206.521C54.3576 203.644 54.8498 199.839 53.6383 196.603C52.7865 194.35 50.7233 192.628 48.7168 191.397C46.4075 189.996 43.89 188.747 41.1831 188.671C37.1891 188.558 33.5737 191.075 30.7533 193.934C27.4218 197.341 24.6771 201.581 24.185 206.313C23.7117 211.045 25.9643 216.251 30.3369 218.163C33.5169 219.563 37.208 219.052 40.5395 218.03" stroke="#537062" stroke-width="1.5" stroke-linecap="round" stroke-linejoin="round"/>
<path d="M5.6542 209.815C5.6542 209.815 5.55954 210.004 5.52169 210.118C4.66989 212.106 4.10204 214.226 3.85596 216.384C3.57203 218.92 3.74238 221.627 5.14312 223.766C5.38919 224.125 5.82456 224.485 6.18421 224.258C6.31671 224.163 6.39243 224.012 6.44922 223.86C7.07387 222.308 7.35781 220.643 7.84996 219.053C8.34212 217.462 9.13712 215.854 10.5 214.888" stroke="#537062" stroke-width="1.5" stroke-linecap="round" stroke-linejoin="round"/>
<path d="M28.9155 234.706C27.1741 239.684 27.6852 245.401 30.2973 250.001C30.5434 250.436 31.0924 250.909 31.4709 250.587C31.5845 250.474 31.6413 250.303 31.6981 250.152C32.3416 248.07 33.061 246.007 34.1588 244.133C35.1999 242.41 36.5817 240.839 38.3232 239.836C38.4557 239.741 38.5882 239.665 38.7207 239.59" stroke="#537062" stroke-width="1.5" stroke-linecap="round" stroke-linejoin="round"/>
<path d="M63.4631 252.177L63.4631 252.272C63.3306 254.544 63.2171 256.929 64.0499 259.03C64.6935 260.639 65.8103 261.983 67.0218 263.194C67.7411 263.894 68.4982 264.595 69.4068 265.049C69.9558 265.333 70.6751 265.503 71.1861 265.163C71.6026 264.898 71.773 264.349 71.7351 263.857C71.6972 263.364 71.489 262.91 71.2997 262.437C70.7508 261.093 70.2586 259.711 70.1072 258.254C69.9369 256.796 70.1072 255.282 70.8076 253.995" stroke="#537062" stroke-width="1.5" stroke-linecap="round" stroke-linejoin="round"/>
<path d="M101.036 238.246C101.036 238.246 101.055 238.436 101.074 238.53C101.339 240.556 102.456 242.43 103.97 243.793C105.561 245.212 107.605 246.102 109.706 246.48C109.971 246.537 110.236 246.575 110.482 246.462C110.804 246.31 110.955 245.913 110.898 245.553C110.861 245.193 110.652 244.871 110.444 244.569C109.782 243.66 108.949 242.865 108.438 241.862C107.718 240.48 107.699 238.852 107.681 237.281" stroke="#537062" stroke-width="1.5" stroke-linecap="round" stroke-linejoin="round"/>
</svg>
