<svg width="57" height="69" viewBox="0 0 57 69" fill="none" xmlns="http://www.w3.org/2000/svg">
<path d="M55.9448 22.4429C56.158 23.5514 55.7355 24.7025 55.0727 25.6172C54.4061 26.528 53.5185 27.2489 52.662 27.9854C52.3713 28.2334 52.0845 28.4892 51.7976 28.745L51.7821 28.7295C49.9721 26.4621 46.3714 26.4699 44.3327 24.4079C43.0266 23.0824 42.6002 21.1561 41.9336 19.4197C41.5537 18.4159 40.9646 17.3577 39.9375 17.0438C40.5731 16.3771 41.2282 15.726 41.9336 15.102C42.7901 14.3501 43.732 13.5594 44.8676 13.4625C46.6505 13.3113 48.2318 14.3462 49.476 15.4779C50.8868 16.7531 52.2976 18.0321 53.7046 19.3073C54.6735 20.1871 55.7006 21.1561 55.9448 22.4429Z" fill="white"/>
<path d="M51.7819 28.7294L51.7974 28.7449C47.596 32.4968 43.9255 36.8029 39.8714 40.7058C35.5227 44.8957 31.4453 49.3761 27.0578 53.5543C26.209 54.3644 25.3485 55.1667 24.4067 55.8643C21.0192 58.3914 16.7829 59.4767 13.1047 61.558C12.4303 61.9378 11.7752 62.3525 11.1435 62.7983L11.1125 62.7556C9.92259 60.6704 7.95365 59.1588 6.02734 57.717C7.05057 56.3566 7.93427 54.8993 8.6203 53.3412C9.27144 51.8567 9.74042 50.2986 10.314 48.7831C11.3799 45.9615 13.4109 43.4306 15.562 41.3686C18.2441 38.795 20.9262 36.2176 23.6083 33.6401C24.7904 32.5084 25.9687 31.3766 27.143 30.2333C30.2515 27.214 33.3095 24.1365 36.2707 20.97C37.5575 19.6832 38.7086 18.3344 39.9373 17.0437C40.9644 17.3576 41.5535 18.4158 41.9333 19.4196C42.6 21.156 43.0263 23.0823 44.3325 24.4078C46.3712 26.4698 49.9719 26.462 51.7819 28.7294ZM41.5613 30.2798C41.6039 29.6558 41.476 29.0085 41.1427 28.4775C40.8093 27.9504 40.259 27.5473 39.6388 27.4504C38.6931 27.307 36.9839 27.9 36.5614 28.8535C36.0537 30.0007 36.7397 31.8379 37.8869 32.3301C38.1776 32.4541 38.4954 32.4968 38.8094 32.5239C39.3288 32.5665 39.8675 32.5588 40.3365 32.3379C41.0923 31.9774 41.5031 31.1131 41.5613 30.2798ZM35.1041 37.6943C35.1816 37.4114 34.9568 37.1439 34.7514 36.9346C33.8909 36.0664 33.0266 35.1982 32.1662 34.33C31.9607 34.1208 31.7166 33.8998 31.4259 33.9115C31.236 33.9192 31.0654 34.0316 30.9104 34.144C30.5461 34.4192 30.2166 34.7409 29.8872 35.0587L24.864 39.919C24.0889 40.6671 22.8873 41.4771 22.3176 42.3802C21.8486 43.1244 22.492 43.7678 23.0773 44.3337C23.6819 44.9189 24.2865 45.5042 24.895 46.0894C25.1625 46.3452 25.4687 46.6243 25.8408 46.6243C26.1082 46.6243 26.3562 46.477 26.5772 46.3258C27.3407 45.7949 27.9957 45.1205 28.6469 44.4499C30.7205 42.3105 32.7979 40.1671 34.8715 38.0276C34.9645 37.9307 35.0653 37.8261 35.1041 37.6943Z" fill="white"/>
<path d="M34.7517 36.935C34.9571 37.1443 35.1819 37.4117 35.1044 37.6947C35.0656 37.8264 34.9648 37.9311 34.8718 38.028C32.7982 40.1675 30.7208 42.3108 28.6472 44.4503C27.996 45.1208 27.341 45.7952 26.5775 46.3262C26.3565 46.4774 26.1085 46.6246 25.841 46.6246C25.469 46.6246 25.1628 46.3456 24.8953 46.0898C24.2868 45.5045 23.6822 44.9193 23.0776 44.334C22.4923 43.7681 21.8489 43.1247 22.3179 42.3806C22.8876 41.4775 24.0892 40.6674 24.8643 39.9194L29.8874 35.0591C30.2169 34.7413 30.5463 34.4196 30.9107 34.1444C31.0657 34.032 31.2362 33.9196 31.4262 33.9118C31.7169 33.9002 31.961 34.1211 32.1665 34.3304C33.0269 35.1986 33.8912 36.0668 34.7517 36.935Z" fill="#F6B97B"/>
<path d="M22.0762 9.92374C22.1034 11.071 22.0414 12.2182 21.8902 13.3578C21.8863 13.3849 21.8824 13.412 21.8669 13.4353C21.8398 13.474 21.7894 13.4895 21.7429 13.5012C20.836 13.726 19.867 13.7298 18.9329 13.7298C18.0066 13.7608 17.0996 13.6368 16.1849 13.6368C16.1345 13.6368 16.0764 13.6368 16.0338 13.6717C15.9873 13.7105 15.9795 13.7763 15.9717 13.8384C15.8283 15.4313 15.7935 17.0359 15.8749 18.6367C15.902 19.1367 15.8942 19.7374 15.4756 20.0126C15.3167 20.1211 15.1229 20.156 14.933 20.1831C13.4137 20.3886 11.7897 20.2839 10.2548 20.2374C10.0145 20.2297 9.75874 20.218 9.54944 20.0901C9.12697 19.8304 9.08821 19.2374 9.09597 18.7413C9.11535 17.3731 9.10372 16.005 9.05721 14.6368C9.04558 14.3151 9.0107 13.943 8.73939 13.7647C8.57272 13.6562 8.35955 13.6523 8.15801 13.6523C6.61929 13.6562 5.08057 13.6601 3.53798 13.6639C3.32868 13.6639 3.10388 13.6601 2.93334 13.536C2.69692 13.3616 2.66203 13.0244 2.65428 12.7299C2.6039 11.1989 2.65041 9.66405 2.80156 8.14084C2.82094 7.94317 2.8442 7.73775 2.96823 7.58272C3.14652 7.36179 3.46434 7.32303 3.74728 7.30365C5.35963 7.1835 6.93711 7.23389 8.55722 7.24939C8.70063 7.25327 8.86342 7.24552 8.95644 7.13699C9.03395 7.0556 9.0417 6.93157 9.04558 6.81917C9.06108 6.43159 9.07271 6.044 9.08046 5.65254C9.11147 4.27273 9.09209 2.88905 9.01845 1.50924C9.01457 1.40459 9.0107 1.28831 9.07659 1.20305C9.1541 1.10227 9.30139 1.08677 9.43317 1.07902C11.3672 0.982122 13.2741 0.951115 15.2082 1.12165C15.3167 1.13328 15.4369 1.14491 15.5221 1.21855C15.6462 1.31932 15.6578 1.50536 15.6578 1.66815C15.6539 3.09447 15.7043 4.52854 15.6423 5.95873C15.6268 6.28818 15.619 6.64088 15.7935 6.91994C16.15 7.48582 17.6888 7.23776 18.2508 7.25327C19.305 7.2804 20.3592 7.30753 21.4173 7.33466C21.5917 7.33854 21.7855 7.35016 21.9096 7.47419C22.3204 7.99743 22.0646 9.30748 22.0762 9.92374Z" fill="#C97155"/>
<path d="M11.1123 62.7559L11.1433 62.7985C10.0851 63.5466 9.08905 64.3799 8.17047 65.2907C7.19763 66.2519 6.22091 67.3527 4.88761 67.6589C3.72873 67.9224 2.43807 67.4728 1.69003 66.5465C0.945862 65.6202 0.786952 64.2597 1.29469 63.1861C1.64739 62.4342 2.27528 61.8567 2.86829 61.2792C4.00392 60.1707 5.07366 58.9886 6.02712 57.7173C7.95342 59.1591 9.92236 60.6707 11.1123 62.7559Z" fill="#537062"/>
<path d="M39.937 17.0438C38.7084 18.3345 37.5573 19.6833 36.2705 20.97C33.3093 24.1366 30.2513 27.2141 27.1428 30.2334C25.9684 31.3767 24.7902 32.5085 23.608 33.6402C20.9259 36.2177 18.2438 38.7951 15.5617 41.3687C13.4106 43.4307 11.3797 45.9616 10.3138 48.7832C9.7402 50.2987 9.27122 51.8568 8.62007 53.3413C7.93404 54.8993 7.05035 56.3567 6.02712 57.7171C5.07366 58.9884 4.00392 60.1705 2.86829 61.279C2.27528 61.8565 1.64739 62.434 1.29469 63.186C0.786952 64.2596 0.945862 65.62 1.69003 66.5463C2.43807 67.4727 3.72873 67.9223 4.88762 67.6587C6.22091 67.3525 7.19763 66.2518 8.17047 65.2905C9.08905 64.3797 10.0851 63.5464 11.1433 62.7984C11.775 62.3526 12.43 61.9379 13.1044 61.5581C16.7826 59.4767 21.019 58.3915 24.4065 55.8644C25.3483 55.1668 26.2087 54.3645 27.0576 53.5544C31.445 49.3762 35.5224 44.8957 39.8712 40.7059C43.9253 36.8029 47.5957 32.4969 51.7972 28.745C52.084 28.4892 52.3708 28.2334 52.6615 27.9854C53.5181 27.2489 54.4056 26.528 55.0723 25.6172C55.7351 24.7025 56.1575 23.5514 55.9444 22.4429C55.7002 21.1561 54.6731 20.1871 53.7041 19.3073C52.2972 18.0321 50.8864 16.7531 49.4755 15.4779C48.2314 14.3462 46.65 13.3113 44.8671 13.4625C43.7315 13.5594 42.7897 14.3501 41.9331 15.102C41.2277 15.726 40.5727 16.3771 39.937 17.0438Z" stroke="#537062" stroke-miterlimit="10"/>
<path d="M9.08046 5.65254C9.07271 6.044 9.06108 6.43159 9.04558 6.81917C9.0417 6.93157 9.03395 7.0556 8.95644 7.13699C8.86342 7.24552 8.70063 7.25327 8.55722 7.24939C6.93711 7.23389 5.35963 7.1835 3.74728 7.30365C3.46434 7.32303 3.14652 7.36179 2.96823 7.58272C2.8442 7.73775 2.82094 7.94317 2.80156 8.14084C2.65041 9.66405 2.6039 11.1989 2.65428 12.7299C2.66203 13.0244 2.69692 13.3616 2.93334 13.536C3.10388 13.6601 3.32868 13.6639 3.53798 13.6639C5.08057 13.6601 6.61929 13.6562 8.15801 13.6523C8.35955 13.6523 8.57272 13.6562 8.73939 13.7647C9.0107 13.943 9.04558 14.3151 9.05721 14.6368C9.10372 16.005 9.11535 17.3731 9.09597 18.7413C9.08821 19.2374 9.12697 19.8304 9.54944 20.0901C9.75874 20.218 10.0145 20.2297 10.2548 20.2374C11.7897 20.2839 13.4137 20.3886 14.933 20.1831C15.1229 20.156 15.3167 20.1211 15.4756 20.0126C15.8942 19.7374 15.902 19.1367 15.8749 18.6367C15.7935 17.0359 15.8283 15.4313 15.9717 13.8384C15.9795 13.7763 15.9873 13.7105 16.0338 13.6717C16.0764 13.6368 16.1345 13.6368 16.1849 13.6368C17.0996 13.6368 18.0066 13.7608 18.9329 13.7298C19.867 13.7298 20.836 13.726 21.7429 13.5012C21.7894 13.4895 21.8398 13.474 21.8669 13.4353C21.8824 13.412 21.8863 13.3849 21.8902 13.3578C22.0414 12.2182 22.1034 11.071 22.0762 9.92374C22.0646 9.30748 22.3204 7.99743 21.9096 7.47419C21.7855 7.35016 21.5917 7.33854 21.4173 7.33466C20.3592 7.30753 19.305 7.2804 18.2508 7.25327C17.6888 7.23776 16.15 7.48582 15.7935 6.91994C15.619 6.64088 15.6268 6.28818 15.6423 5.95873C15.7043 4.52854 15.6539 3.09447 15.6578 1.66815C15.6578 1.50536 15.6462 1.31932 15.5221 1.21855C15.4369 1.14491 15.3167 1.13328 15.2082 1.12165C13.2741 0.951115 11.3672 0.982122 9.43317 1.07902C9.30139 1.08677 9.1541 1.10227 9.07659 1.20305C9.0107 1.28831 9.01457 1.40459 9.01845 1.50924C9.09209 2.88905 9.11147 4.27273 9.08046 5.65254Z" stroke="#537062" stroke-miterlimit="10"/>
<path d="M39.9219 17.0398C39.9219 17.0398 39.9335 17.0398 39.9374 17.0398C40.9645 17.3537 41.5536 18.4118 41.9334 19.4157C42.6001 21.1521 43.0264 23.0784 44.3326 24.4039C46.3713 26.4659 49.972 26.4581 51.782 28.7255" stroke="#537062" stroke-miterlimit="10"/>
<path d="M37.886 32.3305C38.1767 32.4545 38.4945 32.4971 38.8084 32.5243C39.3278 32.5669 39.8665 32.5591 40.3355 32.3382C41.0913 31.9778 41.5022 31.1134 41.5603 30.2801C41.6029 29.6561 41.475 29.0088 41.1417 28.4779C40.8084 27.9507 40.258 27.5476 39.6379 27.4507C38.6922 27.3073 36.9829 27.9004 36.5604 28.8538C36.0527 30.0011 36.7387 31.8382 37.886 32.3305Z" stroke="#537062" stroke-miterlimit="10"/>
<path d="M29.8874 35.0591C30.2169 34.7413 30.5463 34.4196 30.9107 34.1444C31.0657 34.032 31.2362 33.9196 31.4262 33.9118C31.7169 33.9002 31.961 34.1211 32.1665 34.3304C33.0269 35.1986 33.8912 36.0668 34.7517 36.935C34.9571 37.1443 35.1819 37.4117 35.1044 37.6947C35.0656 37.8264 34.9648 37.9311 34.8718 38.028C32.7982 40.1675 30.7208 42.3108 28.6472 44.4503C27.996 45.1208 27.341 45.7952 26.5775 46.3262C26.3565 46.4774 26.1085 46.6246 25.841 46.6246C25.469 46.6246 25.1628 46.3456 24.8953 46.0898C24.2868 45.5045 23.6822 44.9193 23.0776 44.334C22.4923 43.7681 21.8489 43.1247 22.3179 42.3806C22.8876 41.4775 24.0892 40.6674 24.8643 39.9194L29.8874 35.0591Z" stroke="#537062" stroke-miterlimit="10"/>
<path d="M5.98828 57.686C5.98828 57.686 6.01541 57.7054 6.02704 57.717C7.95334 59.1589 9.92228 60.6705 11.1122 62.7557" stroke="#537062" stroke-miterlimit="10"/>
</svg>
